<svg width="963" height="1056" viewBox="0 0 963 1056" fill="none" xmlns="http://www.w3.org/2000/svg">
<g opacity="0.7" filter="url(#filter0_f_0_1)">
<ellipse cx="479.77" cy="599.819" rx="122.755" ry="158.717" transform="rotate(-64.941 479.77 599.819)" fill="#4B3AB3"/>
</g>
<g filter="url(#filter1_f_0_1)">
<ellipse cx="1031.64" cy="476.072" rx="161.505" ry="180.534" transform="rotate(-64.941 1031.64 476.072)" fill="#DB2BAA"/>
</g>
<g opacity="0.71">
<path d="M695.55 575.812C674.548 575.812 659.193 567.149 651.944 550.995C639.52 523.375 653.674 480.088 684.827 450.324C701.641 434.284 724.001 429.652 741.772 438.516C761.96 448.594 771.796 473.612 768.036 505.434C765.934 523.261 762.546 541.545 752.066 554.469C742.058 566.834 726.332 573.525 702.37 575.512C700.068 575.712 697.766 575.812 695.55 575.812ZM722.6 435.113C709.804 435.113 696.494 440.631 685.556 451.067C654.661 480.545 640.607 523.304 652.859 550.537C660.694 567.935 678.236 576.427 702.27 574.426C750.536 570.394 761.917 547.978 766.949 505.291C770.652 473.926 761.045 449.323 741.286 439.459C735.483 436.57 729.083 435.081 722.6 435.113V435.113Z" fill="url(#paint0_radial_0_1)"/>
</g>
<g opacity="0.57">
<path d="M691.476 576.641C684.645 576.711 677.844 575.747 671.302 573.782C658.435 569.722 651.001 564.49 647.212 556.813C641.75 545.791 643.709 528.693 653.56 501.388C664.068 472.268 695.522 431.339 729.691 435.957C761.903 440.245 776.114 472.168 777.658 485.992C777.993 488.513 778.509 491.007 779.202 493.454C782.39 506.006 785.707 518.972 751.094 551.809C731.65 570.208 709.647 576.641 691.476 576.641ZM724.359 436.543C692.905 436.543 664.454 474.341 654.618 501.631C644.867 528.636 642.894 545.462 648.213 556.213C651.873 563.603 659.107 568.664 671.674 572.638C691.004 578.743 723.229 576.713 750.408 550.923C784.506 518.586 781.218 505.92 778.158 493.726C777.462 491.225 776.936 488.679 776.586 486.106C775.085 472.511 761.131 441.275 729.549 437C727.817 436.728 726.068 436.575 724.316 436.543H724.359Z" fill="url(#paint1_radial_0_1)"/>
</g>
<g opacity="0.12">
<path d="M689.46 581.102C682.956 581.14 676.471 580.396 670.144 578.886C662.639 577.027 656.191 571.366 651.558 562.503C642.408 545.133 640.921 517.5 648.113 498.172C657.377 473.34 698.796 425.521 728.748 427.837C754.897 429.867 779.946 456.099 783.42 485.134C784.063 490.481 776.014 537.685 756.784 554.912C738.333 571.632 714.361 580.958 689.46 581.102V581.102ZM726.518 428.866C697.18 428.866 658.035 474.612 649.085 498.586C641.936 517.614 643.366 544.876 652.473 562.002C656.991 570.58 663.196 576.055 670.402 577.842C691.776 583.146 727.032 580.115 756.027 554.154C775.013 537.156 782.948 490.581 782.319 485.306C778.888 456.714 754.297 430.982 728.619 428.952C727.924 428.894 727.223 428.866 726.518 428.866V428.866Z" fill="url(#paint2_radial_0_1)"/>
</g>
<g opacity="0.55">
<path d="M686.6 580.001C681.119 580.001 675.651 579.47 670.273 578.414C649.457 574.34 639.492 558.285 642.251 533.239C644.639 511.41 656.834 483.719 673.99 460.845C691.862 437.114 711.706 423.176 726.961 423.548C752.824 424.191 784.992 450.352 789.339 484.405C791.812 503.733 779.331 529.336 757.657 549.636C736.568 569.365 711.377 580.001 686.6 580.001ZM726.389 424.577C711.506 424.577 692.319 438.301 674.92 461.446C657.763 484.148 645.725 511.71 643.352 533.354C641.465 550.637 644.639 572.295 670.516 577.37C699.925 583.089 731.45 572.724 757.013 548.779C778.158 529.008 790.754 503.161 788.367 484.448C784.077 450.924 752.452 425.163 727.018 424.534H726.432L726.389 424.577Z" fill="url(#paint3_radial_0_1)"/>
</g>
<g opacity="0.26">
<path d="M689.345 582.059C682.768 582.055 676.201 581.548 669.701 580.544C651.344 577.685 641.808 560.53 643.552 533.625C644.982 510.752 654.847 483.447 669.129 462.447C685.428 438.487 705.372 425.02 725.288 424.534C761.288 423.648 792.984 462.804 795.758 483.504C798.918 507.135 789.682 531.51 770.395 550.394C749.493 570.823 720.198 582.059 689.345 582.059ZM725.259 425.106V425.635C680.939 426.707 647.312 491.396 644.567 533.725C642.866 560.073 652.059 576.756 669.816 579.472C707.274 585.29 744.575 574.125 769.594 549.622C788.624 531.038 797.76 506.935 794.629 483.647C791.898 463.276 760.687 424.72 725.259 425.607V425.106Z" fill="url(#paint4_radial_0_1)"/>
</g>
<g opacity="0.78">
<path d="M678.894 583.789C671.337 583.94 663.803 582.913 656.562 580.744C645.925 577.27 639.177 570.952 636.546 561.96C630.57 541.946 634.173 515.856 646.454 490.409C658.478 465.463 677.193 444.105 697.795 431.797C728.39 413.498 758.872 417.001 783.577 441.632C791.44 449.466 801.748 472.225 800.004 498.286C798.903 514.769 792.298 538.429 767.121 557.557C750.022 570.551 710.104 583.789 678.894 583.789ZM736.011 421.304C723.73 421.304 711.019 425.092 698.295 432.74C677.85 444.963 659.293 466.164 647.355 490.91C635.202 516.127 631.628 541.931 637.518 561.688C640.092 570.266 646.611 576.413 656.905 579.772C687.472 589.779 745.046 572.967 766.435 556.742C791.312 537.857 797.888 514.498 798.918 498.243C800.619 472.797 790.339 449.895 782.805 442.49C768.737 428.423 752.781 421.361 736.011 421.361V421.304Z" fill="url(#paint5_radial_0_1)"/>
</g>
<g opacity="0.41">
<path d="M668.557 590.766H667.699C658.163 589.851 650.429 584.561 644.71 575.04C631.514 553.068 632.729 514.155 642.136 491.61C653.574 464.277 691.962 421.303 721.671 417.944V418.473V417.944C760.759 413.527 804.593 459.244 807.825 481.889C809.783 495.37 792.741 537.957 768.379 555.498C747.305 570.637 681.568 590.766 668.557 590.766ZM727.089 418.687C725.317 418.688 723.546 418.788 721.785 418.988C692.934 422.247 654.174 465.535 643.151 491.996C633.844 514.297 632.629 552.753 645.653 574.454C651.186 583.675 658.649 588.75 667.842 589.665C678.394 590.68 746.319 570.051 767.779 554.597C791.869 537.271 808.711 495.284 806.795 482.018C803.693 460.703 764.204 418.687 727.089 418.687V418.687Z" fill="url(#paint6_radial_0_1)"/>
</g>
<g opacity="0.26">
<path d="M669.701 597.899C668.743 597.899 667.771 597.899 666.842 597.799C656.834 597.084 648.541 591.666 642.737 582.074C630.284 561.645 631.657 526.32 646.254 492.21C647.283 489.809 648.275 487.479 649.228 485.22C666.141 445.32 673.861 427.122 720.713 419.902C730.894 418.379 741.276 418.898 751.254 421.428C761.232 423.959 770.606 428.451 778.83 434.641C795.057 446.593 806.295 464.191 808.854 481.717C813.143 510.137 813.143 523.933 770.052 553.368C767.45 555.14 764.848 556.999 762.189 558.886C750.222 567.378 737.884 576.17 722.643 580.773C716.1 582.89 709.68 585.372 703.413 588.207C691.876 593.21 680.996 597.899 669.701 597.899ZM720.741 420.503L720.827 421.032C674.576 428.18 666.927 446.192 650.186 485.706C649.213 487.965 648.227 490.295 647.198 492.711C632.743 526.563 631.328 561.445 643.609 581.588C649.228 590.794 657.277 596.041 666.885 596.727C679.051 597.599 690.675 592.595 702.985 587.292C709.293 584.44 715.756 581.944 722.343 579.815C737.369 575.269 749.679 566.534 761.574 558.071C764.233 556.198 766.849 554.34 769.451 552.553C811.999 523.49 811.956 509.909 807.796 481.946C805.237 464.691 794.157 447.365 778.158 435.571C770.041 429.472 760.793 425.046 750.951 422.55C741.11 420.054 730.87 419.538 720.827 421.032L720.741 420.503Z" fill="url(#paint7_radial_0_1)"/>
</g>
<g opacity="0.61">
<path d="M666.613 596.184H666.356C643.909 594.997 629.913 577.871 627.925 549.193C626.138 523.461 634.273 492.639 649.7 466.807C667.128 437.615 691.461 418.687 718.211 413.527C740.614 409.238 764.033 414.642 784.163 428.852C803.221 442.29 816.789 461.989 819.591 480.316C822.136 497 816.189 513.454 801.92 529.208C764.133 570.923 676.85 596.184 666.613 596.184ZM718.311 414.055L718.411 414.584C691.962 419.688 667.871 438.43 650.6 467.364C635.288 493.011 627.21 523.575 628.983 549.122C630.928 577.199 644.553 593.968 666.399 595.111H666.656C676.807 595.111 763.518 569.951 801.119 528.436C815.159 512.925 821.007 496.771 818.505 480.416C815.76 462.432 802.363 443.004 783.534 429.724C763.647 415.699 740.514 410.31 718.411 414.584L718.311 414.055Z" fill="url(#paint8_radial_0_1)"/>
</g>
<g opacity="0.5">
<path d="M667.356 597.97H665.684C652.359 597.499 642.108 591.652 635.202 580.587C620.476 556.984 624.494 514.126 636.904 486.32C646.154 465.592 693.32 417.029 716.581 411.668L716.695 412.197L716.581 411.668C736.325 407.122 760.258 413.441 783.949 429.466C808.697 446.206 825.31 467.922 827.083 479.23C828.855 490.538 823.208 500.831 818.219 509.851C817.018 512.01 815.902 514.054 814.902 516.041C803.25 539.444 773.44 559.744 726.26 576.384C719.129 579.054 712.176 582.177 705.444 585.733C692.905 592.023 681.053 597.97 667.356 597.97ZM716.881 412.683C694.378 417.872 646.826 466.678 637.933 486.735C625.652 514.283 621.634 556.699 636.16 579.986C642.865 590.722 652.831 596.412 665.769 596.87C679.909 597.37 692.09 591.251 704.986 584.775C711.772 581.193 718.777 578.041 725.96 575.34C772.854 558.8 802.477 538.686 814.001 515.541C815.002 513.525 816.131 511.481 817.332 509.308C822.236 500.43 827.798 490.38 826.068 479.373C824.338 468.365 807.582 446.678 783.405 430.324C759.958 414.47 736.339 408.208 716.881 412.683V412.683Z" fill="url(#paint9_radial_0_1)"/>
</g>
<g opacity="0.38">
<path d="M665.155 599C654.417 599 645.61 596.67 638.848 591.981C625.023 582.36 620.176 563.303 624.823 536.842C633.515 487.307 676.621 418.187 714.536 408.066L714.665 408.58L714.536 408.066C753.267 397.758 811.27 427.722 827.369 466.364C835.103 484.948 839.307 521.174 780.689 555.441C731.293 584.318 692.133 599 665.155 599ZM731.178 407.079C725.642 407.037 720.124 407.719 714.765 409.109C680.224 418.301 635.345 482.861 625.838 537.028C622.649 555.169 622.421 579.272 639.42 591.094C655.69 602.417 693.305 605.247 780.103 554.512C822.994 529.422 839.45 498.258 826.339 466.778C812.671 433.684 767.85 407.079 731.178 407.079Z" fill="url(#paint10_radial_0_1)"/>
</g>
<g opacity="0.24">
<path d="M664.568 605.233H664.168C642.58 605.061 628.025 589.779 624.236 563.303C620.476 537.085 627.396 504.105 642.823 475.084C660.122 442.361 685.542 419.545 714.393 410.868C768.436 394.599 812.271 422.89 827.626 459.259C834.887 476.076 835.586 495.003 829.585 512.31C822.851 531.309 807.882 547.678 786.307 559.658C777.043 564.804 766.049 567.392 755.426 569.894C747.261 571.607 739.232 573.92 731.407 576.813C723.328 580.294 715.524 584.38 708.06 589.036C694.006 597.413 680.652 605.233 664.568 605.233ZM714.479 411.382L714.636 411.897C686.042 420.474 660.865 443.105 643.695 475.585C628.683 503.99 621.62 537.542 625.294 563.146C629.055 589.422 642.865 603.989 664.182 604.161C680.195 604.275 693.434 596.455 707.517 588.149C715.022 583.459 722.875 579.349 731.007 575.855C738.882 572.936 746.963 570.604 755.183 568.879C765.734 566.391 776.628 563.818 785.778 558.757C835.189 531.324 838.677 488.236 826.568 459.673C811.399 423.748 768.079 395.8 714.636 411.897L714.479 411.382Z" fill="url(#paint11_radial_0_1)"/>
</g>
<g opacity="0.46">
<path d="M663.225 607.992C640.735 607.992 626.782 595.469 622.878 571.752C618.689 546.306 626.996 509.237 644.553 475.027C662.896 439.288 687.973 413.241 711.649 405.321L711.82 405.821L711.649 405.321C735.725 397.258 762.117 399.302 785.993 411.039C808.082 421.961 825.868 440.203 834.803 461.074C851.459 500.03 834.803 537.342 790.139 560.859C780.875 565.734 770.124 568.521 759.744 571.223C751.255 573.2 742.921 575.794 734.81 578.986C727.104 582.428 719.591 586.289 712.306 590.551C696.48 599.457 681.525 607.863 663.482 607.921L663.225 607.992ZM741.186 401.561C731.256 401.559 721.391 403.171 711.978 406.336C660.294 423.677 615.373 519.601 623.951 571.581C626.61 587.721 635.589 606.92 663.239 606.92H663.439C681.225 606.92 696.051 598.514 711.749 589.693C719.061 585.41 726.602 581.53 734.338 578.071C742.502 574.862 750.888 572.249 759.429 570.251C769.766 567.578 780.446 564.805 789.596 559.973C833.674 536.742 850.187 499.93 833.774 461.56C819.72 428.723 782.233 401.561 741.186 401.561Z" fill="url(#paint12_radial_0_1)"/>
</g>
<g opacity="0.33">
<path d="M662.038 610.379C645.768 610.379 633.444 602.988 626.295 588.936C609.511 555.869 623.779 491.724 658.092 445.978C687.115 407.279 723.858 389.867 761.502 396.943C778.473 400.131 842.481 442.69 848.056 476.356C851.988 499.673 839.321 522.36 810.398 543.804C786.951 561.187 759.1 573.196 744.131 579.643C741.958 580.587 740.085 581.387 738.584 582.059C732.093 584.918 725.717 588.264 719.483 591.466C701.812 600.572 683.526 610.05 662.667 610.322H662.024L662.038 610.379ZM744.932 396.514C703.328 396.514 673.747 426.979 658.964 446.693C624.866 492.153 610.654 555.769 627.268 588.521C634.273 602.316 646.554 609.493 662.667 609.321C683.283 609.007 700.626 600.058 718.997 590.594C725.216 587.377 731.65 584.061 738.155 581.159C739.671 580.472 741.544 579.729 743.717 578.728C771.51 566.748 856.063 530.28 847.013 476.599C841.494 443.376 778.115 401.218 761.316 398.073C755.916 397.04 750.43 396.519 744.932 396.514V396.514Z" fill="url(#paint13_radial_0_1)"/>
</g>
<g opacity="0.75">
<path d="M660.78 614.94C638.39 614.94 623.221 600.916 618.017 575.326C612.527 548.393 618.775 512.739 634.702 479.945C652.43 443.462 679.023 416.614 709.747 404.377C758.528 384.892 811.356 406.679 836.29 437.057C857.85 463.347 859.708 494.584 841.394 522.832C828.527 542.646 797.845 555.14 768.193 567.235C758.099 571.338 748.578 575.226 739.771 579.372C731.324 583.563 723.149 588.28 715.294 593.496C698.938 603.832 682.025 614.525 661.966 614.94H660.78ZM709.947 404.878L710.147 405.364C679.723 417.515 653.274 444.162 635.66 480.416C620.076 512.51 613.714 548.793 619.061 575.112C624.251 600.587 639.52 614.339 661.952 613.867C681.725 613.396 698.495 602.774 714.722 592.51C722.625 587.282 730.843 582.546 739.327 578.328C748.163 574.168 757.699 570.28 767.807 566.162C797.302 554.14 827.855 541.717 840.507 522.174C858.55 494.412 856.72 463.562 835.475 437.744C810.784 407.722 758.471 386.079 710.161 405.364L709.947 404.878Z" fill="url(#paint14_radial_0_1)"/>
</g>
<g opacity="0.54">
<path d="M659.607 623.131C633.229 623.131 614.2 604.918 609.739 575.212C607.18 558.057 621.549 498.643 631.714 478.286C645.553 450.295 689.274 404.978 706.287 397.658C754.411 376.944 780.203 391.053 814.044 414.927C862.882 449.237 873.033 483.847 846.012 523.704C828.241 549.937 800.161 560.33 773.026 570.38C763.046 573.864 753.254 577.862 743.688 582.359C734.81 586.734 726.031 592.71 717.539 598.485C700.211 610.265 682.297 622.445 661.38 623.102L659.607 623.131ZM706.702 398.687C690.089 405.835 646.054 451.753 632.672 478.744C622.521 499.015 608.224 558.057 610.812 575.04C615.172 604.189 633.801 622.059 659.622 622.059H661.337C681.954 621.416 699.739 609.321 716.938 597.627C725.517 591.823 734.266 585.833 743.216 581.416C752.814 576.906 762.64 572.898 772.654 569.408C799.632 559.4 827.54 549.079 845.126 523.132C871.747 483.876 861.667 449.78 813.429 415.828C779.874 392.169 754.325 378.187 706.702 398.673V398.687Z" fill="url(#paint15_radial_0_1)"/>
</g>
<g opacity="0.63">
<path d="M657.22 620.272C629.169 620.272 612.899 605.505 608.739 576.327C606.837 562.817 610.383 547.893 614.128 532.096C614.624 529.99 615.124 527.874 615.63 525.749C616.911 519.843 617.842 513.866 618.418 507.85C620.705 487.593 622.878 468.451 659.178 428.766C677.493 408.752 732.837 380.904 763.847 385.707C789.582 389.696 855.82 430.896 863.369 474.427C866.728 493.797 862.353 511.696 850.387 527.65C839.893 541.631 823.723 553.554 803.65 562.131C763.504 579.286 738.656 591.566 720.527 600.53C692.805 614.239 682.44 619.357 660.479 620.201C659.35 620.244 658.263 620.272 657.22 620.272ZM660.394 619.129V619.672V619.129C682.168 618.299 692.476 613.196 720.041 599.572C738.198 590.594 763.046 578.314 803.221 561.145C846.427 542.703 868.501 510.338 862.311 474.598C854.833 431.511 789.253 390.711 763.661 386.765C732.937 382.005 678.108 409.638 659.936 429.495C623.951 468.923 621.749 487.893 619.476 508.022C618.883 514.082 617.928 520.102 616.616 526.049C616.111 528.184 615.634 530.299 615.186 532.396C611.455 548.121 607.938 562.918 609.825 576.227C613.943 605.805 631.013 620.258 660.394 619.129Z" fill="url(#paint16_radial_0_1)"/>
</g>
<g opacity="0.19">
<path d="M658.921 623.16H656.262C630.527 622.616 612.999 609.936 605.493 586.491C597.987 563.046 601.347 530.523 614.743 497.3C628.469 463.261 651.401 432.497 677.65 412.955C698.781 397.229 721.385 388.652 744.846 387.565C771.339 386.35 798.088 394.827 824.409 412.754C851.13 431.11 867.3 452.196 871.003 473.74C874.063 491.195 869.202 508.965 856.578 526.549C846.184 541.016 837.648 545.005 805.866 559.815C792.813 565.905 774.942 574.239 751.423 585.948C738.012 592.61 727.59 598.256 718.383 603.231C693.32 616.669 681.382 623.16 658.921 623.16ZM749.607 388.595C724.916 388.595 700.74 396.972 678.279 413.741C624.637 453.769 590.438 535.941 606.508 586.134C613.943 609.093 631.099 621.516 656.276 622.059C680.238 622.588 692.019 616.198 717.753 602.216C726.961 597.241 737.398 591.595 750.822 584.904C774.355 573.196 792.284 564.89 805.294 558.771C836.876 544.047 845.326 540.101 855.591 525.891C868.044 508.536 872.833 491.038 869.888 473.883C866.171 452.64 850.215 431.796 823.737 413.598C799.318 396.915 774.198 388.595 749.607 388.595Z" fill="url(#paint17_radial_0_1)"/>
</g>
<g opacity="0.12">
<path d="M656.505 632.395C639.062 632.395 623.75 626.591 612.584 615.011C584.719 586.105 590.424 530.966 627.839 467.479C657.577 417.029 683.884 401.046 716.695 391.625C749.507 382.205 805.58 399.703 829.642 415.928C853.832 432.283 870.76 456.328 874.92 480.259C876.495 488.748 876.3 497.47 874.349 505.88C872.398 514.29 868.733 522.207 863.583 529.136C851.43 545.777 833.359 553.168 814.244 561.002L812.185 561.845C770.438 579 737.54 599.543 719.869 610.594C714.579 613.896 710.39 616.512 707.631 618.013C689.831 627.62 672.303 632.395 656.505 632.395ZM738.327 390.01C731.142 389.904 723.978 390.794 717.038 392.655C684.484 402.004 658.421 417.872 628.811 468.022C591.639 531.066 585.92 585.733 613.399 614.268C634.316 635.954 670.23 637.041 707.102 617.127C709.833 615.697 714.007 613.038 719.297 609.736C736.897 598.643 769.895 578.071 811.728 560.916L813.786 560.073C832.759 552.296 850.673 544.948 862.654 528.622C867.719 521.809 871.326 514.024 873.247 505.754C875.168 497.485 875.363 488.908 873.82 480.559C869.702 456.929 852.946 433.14 828.984 416.943C809.812 403.848 770.08 390.01 738.327 390.01Z" fill="url(#paint18_radial_0_1)"/>
</g>
<g opacity="0.55">
<path d="M653.188 633.724C651.301 633.724 649.385 633.724 647.469 633.538C602.448 630.436 590.781 602.602 588.923 579.8C586.307 547.606 601.175 503.761 628.726 462.504C656.276 421.246 689.888 392.454 718.583 385.75L718.711 386.264L718.583 385.75C738.184 381.132 769.28 386.107 799.775 398.716C832.802 412.397 859.823 432.654 874.12 454.298C890.919 479.859 889.847 506.778 870.946 532.167C858.365 549.093 839.235 556.584 810.284 567.906C795.772 573.625 779.331 580.029 759.887 589.078C748.32 594.482 737.483 600.715 727.004 606.748C702.97 620.601 680.166 633.724 653.188 633.724ZM735.139 385.078C729.654 385.02 724.18 385.591 718.826 386.779C690.375 393.484 657.02 422.004 629.598 463.09C602.176 504.176 587.379 547.749 589.981 579.7C592.583 611.651 612.499 630.036 647.526 632.452C676.721 634.453 700.897 620.543 726.475 605.819C736.969 599.772 747.82 593.524 759.443 588.121C778.902 579.043 795.358 572.595 809.883 566.906C838.663 555.641 857.678 548.193 870.088 531.509C888.674 506.52 889.747 480.045 873.219 454.87C846.77 414.641 778.73 385.078 735.139 385.078Z" fill="url(#paint19_radial_0_1)"/>
</g>
<g opacity="0.75">
<path d="M643.967 641.415C624.794 641.415 607.123 633.91 594.013 613.281C585.134 599.343 586.178 579.443 588.151 558.586C591.311 525.205 608.01 485.291 632.829 451.796C659.765 415.456 691.447 392.312 722.071 386.608C775.871 376.6 793.871 389.267 823.68 410.267C828.956 413.97 834.389 417.801 840.522 421.861L845.269 424.992C864.813 437.858 881.683 448.98 888.274 464.234C899.44 489.966 889.146 517.986 876.937 534.126C856.921 560.558 821.822 571.366 793.599 580.058C782.576 583.446 772.154 586.648 764.004 590.351C758.4 592.881 750.651 597.499 741.672 602.888C715.123 618.757 677.25 641.415 643.967 641.415ZM755.054 384.206C744.044 384.353 733.07 385.511 722.271 387.665C691.919 393.384 660.465 416.257 633.701 452.44C608.982 485.777 592.354 525.491 589.223 558.686C587.265 579.357 586.221 599.043 594.942 612.709C630.299 668.291 699.682 626.777 741.143 601.973C750.151 596.584 757.928 591.966 763.59 589.364C771.825 585.633 782.262 582.431 793.299 579.029C821.378 570.451 856.32 559.644 876.107 533.482C888.145 517.571 898.296 489.995 887.316 464.662C880.854 449.695 864.112 438.658 844.711 425.892L839.964 422.747C833.817 418.687 828.37 414.842 823.094 411.139C800.533 395.285 784.807 384.206 755.04 384.206H755.054Z" fill="url(#paint20_radial_0_1)"/>
</g>
<g opacity="0.4">
<path d="M651.987 639.028C647.651 639.01 643.32 638.724 639.02 638.17C599.302 633.253 578.171 611.752 577.914 576.012C577.657 541.874 596.843 496.17 629.212 453.769C660.665 412.569 697.108 384.62 724.316 380.861C760.344 375.871 829.47 405.735 849.772 419.045C876.236 436.4 893.092 459.445 897.238 483.933C898.838 493.202 898.485 502.703 896.203 511.829C893.921 520.954 889.759 529.502 883.985 536.928C864.498 562.288 833.087 572.667 802.721 582.774C790.911 586.691 779.745 590.38 769.523 594.883C751.68 602.731 737.426 609.321 724.859 615.14C689.846 631.323 673.189 639.028 651.987 639.028ZM733.123 381.361C730.226 381.346 727.331 381.528 724.459 381.904C697.523 385.65 661.352 413.441 630.098 454.412C597.858 496.642 578.758 542.088 579.015 575.998C579.272 611.137 600.074 632.266 639.177 637.112C667.285 640.601 681.682 633.924 724.444 614.153C736.397 608.621 751.266 601.745 769.123 593.882C779.388 589.365 790.568 585.662 802.42 581.731C832.63 571.724 863.897 561.359 883.17 536.27C888.854 528.958 892.95 520.541 895.195 511.556C897.44 502.571 897.785 493.216 896.209 484.09C892.12 459.902 875.421 437.115 849.214 419.931C830.514 407.68 770.381 381.361 733.123 381.361Z" fill="url(#paint21_radial_0_1)"/>
</g>
<g opacity="0.71">
<path d="M643.123 649.55C639.959 649.533 636.8 649.284 633.673 648.806C599.36 643.717 568.235 610.951 575.055 558.157C580.302 517.7 606.28 483.504 618.761 467.078C620.905 464.219 622.607 462.018 623.736 460.359C651.387 419.745 676.635 388.309 727.647 383.534C779.331 378.702 805.237 395.542 848.128 423.433L852.489 426.293C886.587 448.437 896.967 472.382 899.669 488.579C901.149 497.064 900.826 505.765 898.723 514.117C896.619 522.469 892.782 530.285 887.459 537.056C863.869 567.263 834.675 576.041 806.438 584.533C795.226 587.68 784.2 591.455 773.412 595.84C739.885 610.136 716.224 621.573 699.067 629.936C671.56 643.131 658.407 649.55 643.123 649.55ZM744.46 383.791C739.185 383.791 733.652 384.049 727.776 384.606C677.179 389.338 652.13 420.589 624.637 460.96C623.479 462.647 621.778 464.877 619.619 467.722C607.195 484.076 581.346 518.129 576.141 558.3C569.379 610.408 600.046 642.745 633.83 647.748C653.617 650.679 665.87 644.746 698.61 628.935C715.852 620.601 739.471 609.193 772.954 594.811C783.78 590.409 794.844 586.62 806.095 583.46C834.174 575.012 863.197 566.305 886.587 536.356C891.817 529.702 895.589 522.022 897.655 513.816C899.722 505.609 900.038 497.059 898.582 488.722C895.909 472.74 885.629 449.08 851.86 427.15L847.571 424.291C809.812 399.688 785.207 383.734 744.46 383.734V383.791Z" fill="url(#paint22_radial_0_1)"/>
</g>
<g opacity="0.78">
<path d="M645.954 646.934C640.721 646.933 635.498 646.488 630.341 645.604C601.104 640.615 581.989 627.806 573.525 607.52C553.252 558.915 598.816 485.534 619.361 456.214C651.873 409.795 683.855 385.293 720.012 379.088C759.172 372.369 804.193 386.465 861.681 423.405C889.103 441.032 904.773 460.574 908.247 481.575C911.192 499.33 905.173 517.786 890.361 536.442C859.108 575.827 837.462 580.072 812.357 585.047C801.276 587.22 789.825 589.465 776.614 594.969C758.028 602.731 741.472 611.394 726.875 619.043C697.623 634.339 673.533 646.934 645.954 646.934ZM739.299 378.545C732.893 378.532 726.498 379.068 720.184 380.146C684.341 386.293 652.573 410.668 620.233 456.829C577.042 518.486 560.386 573.253 574.483 607.106C582.804 627.034 601.647 639.629 630.484 644.546C664.64 650.365 691.89 636.112 726.389 618.056C741.014 610.408 757.57 601.745 776.228 593.954C789.481 588.407 800.99 586.148 812.114 583.947C836.99 579.072 858.479 574.854 889.503 535.77C904.115 517.357 910.048 499.187 907.16 481.76C903.743 461.103 888.231 441.732 861.067 424.306C813 393.398 773.697 378.545 739.299 378.545Z" fill="url(#paint23_radial_0_1)"/>
</g>
<g opacity="0.6">
<path d="M648.742 654.582C640.914 654.501 633.112 653.683 625.438 652.137C584.148 644.232 559.128 595.026 565.147 557.971C572.038 515.498 653.56 376.214 733.009 375.543C783.82 375.128 818.791 399.845 846.913 419.859C852.918 424.148 858.579 428.108 863.912 431.511L868.001 434.112C887.102 446.207 903.601 456.657 910.62 473.083C921.643 498.815 911.921 524.833 899.183 540.687C885.915 557.027 867 563.775 846.984 570.923L842.467 572.553C777.472 596.026 740.958 616.298 714.394 631.165C688.287 645.633 672.189 654.582 648.742 654.582ZM734.295 376.615H733.009C654.089 377.272 573.053 515.87 566.205 558.171C560.258 594.754 584.934 643.317 625.638 651.094C663.325 658.241 679.18 649.492 713.893 630.179C740.543 615.368 777.043 595.068 842.109 571.566L846.641 569.951C866.5 562.803 885.243 556.127 898.296 539.93C910.892 524.304 920.471 498.643 909.648 473.426C902.743 457.3 886.373 446.936 867.429 434.927L863.34 432.325C857.979 428.923 852.303 424.906 846.298 420.646C818.533 401.018 784.077 376.615 734.295 376.615Z" fill="url(#paint24_radial_0_1)"/>
</g>
<g opacity="0.47">
<path d="M633.501 656.183C606.036 656.183 584.891 643.903 570.594 619.614C542.086 571.295 560.586 542.331 576.913 516.785C579.858 512.182 582.632 507.836 585.163 503.39C588.966 496.699 592.497 489.523 595.9 482.575C601.447 471.281 607.166 459.616 614.043 450.281C623.178 437.858 634.487 428.995 644.452 421.189C649.413 417.301 654.089 413.627 658.206 409.752C687.944 382.033 714.994 369.138 740.957 370.296C763.832 371.325 782.962 382.834 801.434 393.984C807.281 397.501 812.8 400.832 818.476 403.863C821.721 405.607 826.325 407.751 831.658 410.238C858.422 422.747 903.171 443.691 916.582 475.041C926.018 497.042 921.843 523.804 905.931 543.246C893.707 558.185 875.306 564.304 857.492 570.208C854.147 571.323 850.673 572.467 847.299 573.668C835.546 577.814 824.195 583.675 813.214 589.236C804.079 593.911 795.443 598.328 786.651 601.83C780.531 604.275 774.155 606.319 767.407 608.507C755.397 612.381 742.987 616.384 731.536 622.802C695.621 642.945 666.298 653.753 641.865 655.826C639.024 656.073 636.236 656.193 633.501 656.183ZM737.54 371.182C715.666 371.182 690.36 381.189 658.907 410.567C654.76 414.441 650.057 418.13 645.081 422.004C635.174 429.767 623.936 438.587 614.872 450.896C608.066 460.145 602.605 471.253 596.843 483.018C593.412 489.98 589.881 497.185 586.063 503.89C583.518 508.365 580.745 512.725 577.785 517.342C561.63 542.617 543.315 571.28 571.48 619.028C587.007 645.361 610.668 657.37 641.793 654.768C666.098 652.709 695.25 641.901 731.021 621.887C742.573 615.411 755.04 611.38 767.092 607.492C773.826 605.319 780.188 603.274 786.265 600.844C795.014 597.37 803.621 592.953 812.743 588.292C823.751 582.66 835.132 576.856 846.955 572.667C850.344 571.466 853.818 570.323 857.178 569.207C874.835 563.346 893.092 557.285 905.116 542.574C920.842 523.447 924.888 497.114 915.624 475.484C902.371 444.463 857.807 423.677 831.171 411.253C825.824 408.752 821.164 406.607 817.932 404.849C812.214 401.804 806.495 398.316 800.862 394.942C781.332 383.162 761.459 371.182 737.54 371.182Z" fill="url(#paint25_radial_0_1)"/>
</g>
<g opacity="0.7">
<path d="M628.383 663.745C603.163 663.745 580.86 652.766 563.231 622.474C545.217 591.537 548.934 552.567 574.297 506.678C599.017 461.918 636.761 424.091 657.048 405.535C686.929 378.216 720.499 368.666 759.701 376.358C798.575 383.991 839.764 407.437 878.509 431.654C902.743 446.75 920.185 471.496 924.188 496.199C927.133 514.455 922.759 531.267 911.478 544.805C889.875 570.809 859.852 580.129 827.969 589.994C815.831 593.753 803.264 597.656 790.554 602.602C772.254 609.75 753.61 618.757 735.568 627.477C697.466 645.89 660.537 663.745 628.383 663.745ZM733.595 374.785C706.545 374.785 681.725 384.406 657.82 406.236C633.916 428.065 517.195 541.102 564.203 621.859C581.574 651.708 603.592 662.53 628.54 662.53C660.48 662.53 697.166 644.775 735.153 626.433C753.196 617.699 771.868 608.678 790.211 601.53C802.964 596.57 815.531 592.667 827.698 588.893C859.38 579.072 889.304 569.808 910.62 544.061C921.672 530.752 925.975 514.24 923.087 496.299C919.156 471.882 901.856 447.422 877.923 432.468C821.378 397.201 774.884 374.785 733.595 374.785Z" fill="url(#paint26_radial_0_1)"/>
</g>
<g opacity="0.48">
<path d="M631.228 663.174C603.363 663.174 578.029 652.509 560.786 622.502C533.622 575.212 544.716 547.206 574.583 498.729C580.559 489.051 639.82 411.968 654.103 399.145C681.997 374.099 741.143 360.546 773.526 371.826C775.756 372.598 880.954 437.129 882.012 437.786L886.801 440.731C904.658 451.696 921.529 462.046 928.735 479.015C938.328 501.46 934.31 529.865 918.97 548.078C896.252 575.054 853.504 585.076 822.279 592.395C810.598 595.14 800.519 597.499 793.27 600.258C786.994 602.66 777.443 607.935 765.334 614.625C730.721 633.824 677.507 663.174 631.228 663.174ZM745.961 368.866C714.508 368.866 675.763 381.132 654.818 399.945C640.521 412.726 581.46 489.637 575.498 499.287C545.846 547.392 534.823 575.183 561.716 621.973C607.066 700.886 709.69 644.16 764.819 613.682C776.957 606.963 786.551 601.673 792.899 599.243C800.204 596.455 810.327 594.096 822.036 591.337C853.103 584.061 895.666 574.097 918.155 547.392C933.238 529.465 937.184 501.531 927.762 479.43C920.614 462.79 903.944 452.511 886.301 441.646L881.511 438.701C854.033 421.875 775.299 373.641 773.169 372.826C764.378 370.024 755.186 368.687 745.961 368.866V368.866Z" fill="url(#paint27_radial_0_1)"/>
</g>
<g opacity="0.38">
<path d="M639.134 671.751C606.651 671.751 572.867 658.556 553.895 625.118C533.622 589.379 553.752 522.646 570.222 496.857C619.518 419.659 665.798 377.358 711.677 367.451C763.59 356.243 809.898 386.365 858.936 418.273C868.844 424.706 879.081 431.368 889.403 437.701C917.168 454.741 933.624 474.955 936.97 496.127C939.657 513.111 933.953 530.437 920.457 546.163C890.275 581.516 865.284 587.406 836.361 594.239C823.596 596.989 811.026 600.575 798.732 604.975C781.103 611.566 761.045 622.874 741.644 633.824C719.583 646.276 696.78 659.142 676.535 665.775C664.457 669.71 651.837 671.726 639.134 671.751V671.751ZM734.038 366.136C726.602 366.132 719.188 366.923 711.92 368.495C666.327 378.345 620.276 420.517 571.137 497.428C554.796 523.032 534.78 589.264 554.839 624.589C581.131 670.908 636.189 677.913 676.22 664.818C696.365 658.227 719.112 645.39 741.129 632.967C760.573 622.002 780.66 610.651 798.317 604.046C810.647 599.625 823.256 596.024 836.061 593.267C864.812 586.477 889.646 580.615 919.599 545.534C932.881 529.98 938.499 512.954 935.869 496.299C932.566 475.441 916.296 455.499 888.789 438.616C878.466 432.283 868.215 425.606 858.307 419.159C816.603 392.011 776.843 366.136 734.038 366.136Z" fill="url(#paint28_radial_0_1)"/>
</g>
<g opacity="0.72">
<path d="M623.236 675.682C615.864 675.752 608.523 674.711 601.461 672.594C582.146 666.662 566.248 651.608 551.422 625.218C522.713 574.125 545.803 539.243 570.251 502.275L572.31 499.158C577.514 491.295 581.846 483.676 586.035 476.285C599.131 453.312 612.67 429.552 654.546 393.226C725.845 331.397 780.832 367.837 850.415 413.97C864.312 423.176 878.695 432.697 893.993 442.004C922.758 459.545 939.057 479.516 942.488 501.445C946.22 525.219 933.524 542.903 927.891 549.422C910.992 568.95 886.315 576.584 852.117 587.006C837.362 591.523 820.663 596.655 801.805 603.546C787.094 608.935 778.53 614.854 768.622 621.716C752.281 633.038 731.95 647.119 673.876 665.918C653.674 672.423 637.247 675.682 623.236 675.682ZM730.377 361.676C706.516 361.676 682.039 370.896 655.247 394.127C613.514 430.324 600.017 454.012 586.978 476.914C582.775 484.291 578.4 491.91 573.21 499.787L571.152 502.889C546.847 539.529 523.971 574.139 552.365 624.675C567.034 650.793 582.732 665.69 601.776 671.537C619.919 677.126 642.065 675.068 673.575 664.875C731.507 646.119 751.766 632.094 768.05 620.815C778.058 613.91 786.636 607.949 801.477 602.517C820.349 595.612 837.076 590.479 851.831 585.948C885.829 575.526 910.449 567.978 927.09 548.693C932.623 542.303 945.09 524.919 941.387 501.517C937.999 479.916 921.872 460.202 893.435 442.904C878.152 433.683 863.769 424.162 849.843 414.942C806.867 386.507 769.466 361.676 730.377 361.676Z" fill="url(#paint29_radial_0_1)"/>
</g>
<g opacity="0.54">
<path d="M631.914 673.395C617.492 673.41 603.168 671.033 589.523 666.362C567.106 658.642 548.162 644.832 540.099 630.293C518.095 590.694 543.601 526.477 564.847 495.298C569.436 488.565 644.495 402.076 656.205 392.069C689.674 363.477 721.328 353.813 755.841 361.504C787.451 368.552 818.905 389.181 855.319 413.055C869.902 422.619 884.971 432.511 901.227 442.304C930.565 459.974 947.249 480.631 950.838 503.776C952.138 512.642 951.529 521.684 949.051 530.296C946.573 538.908 942.283 546.891 936.469 553.711C918.384 574.325 887.859 583.089 852.474 593.239C837.72 597.527 822.451 601.816 806.895 607.42C781.061 616.684 766.463 624.689 751.008 633.153C732.265 643.431 712.892 654.053 671.674 667.262C658.819 671.355 645.405 673.424 631.914 673.395V673.395ZM733.423 359.903C709.261 359.903 684.499 369.353 656.92 392.883C645.854 402.319 570.108 489.509 565.747 495.913C539.284 534.726 521.641 594.84 541.042 629.779C556.44 657.498 613.471 684.76 671.36 666.204C712.478 653.024 731.807 642.416 750.508 632.166C766.006 623.674 780.632 615.654 806.552 606.434C822.136 600.844 837.42 596.427 852.188 592.224C887.402 582.117 917.797 573.396 935.683 553.025C941.391 546.319 945.602 538.472 948.036 530.009C950.469 521.546 951.069 512.661 949.794 503.947C946.263 481.203 929.778 460.788 900.684 443.29C884.414 433.483 869.33 423.591 854.748 414.027C809.669 384.406 772.311 359.903 733.409 359.903H733.423Z" fill="url(#paint30_radial_0_1)"/>
</g>
<g opacity="0.39">
<path d="M628.754 680.629C591.997 680.629 557.269 664.089 539.255 636.469C515.293 599.515 523.185 549.05 561.644 494.226C622.478 407.537 669.287 365.564 713.45 358.273C755.297 351.326 793.399 375.071 841.637 405.092L846.498 408.123C855.491 413.712 865.628 418.43 876.365 423.419C887.74 428.49 898.849 434.14 909.648 440.345V440.345C942.531 460.045 959.43 487.407 956.042 515.427C952.182 547.406 923.345 574.668 878.91 588.335C867.872 591.723 856.163 593.625 844.84 595.483C832.144 597.542 820.149 599.5 809.197 603.374C797.76 607.377 786.651 614.053 774.884 621.13C769.337 624.475 763.59 627.949 757.728 631.137C748.193 636.303 739.136 642.307 730.664 649.078C716.267 660.2 706.759 667.534 652.273 678.284C644.528 679.824 636.651 680.609 628.754 680.629V680.629ZM728.219 358.087C682.568 358.087 634.245 392.626 562.473 494.841C524.272 549.279 516.323 599.372 540.099 635.897C561.644 669.006 607.681 686.033 652.073 677.284C706.302 666.59 715.723 659.314 730.006 648.277C738.509 641.476 747.6 635.444 757.17 630.25C762.975 627.091 768.722 623.631 774.327 620.243C786.093 613.095 797.202 606.434 808.797 602.388C819.834 598.485 831.872 596.527 844.625 594.454C855.92 592.624 867.586 590.723 878.552 587.306C922.573 573.739 951.124 546.806 954.941 515.255C958.272 487.664 941.545 460.688 909.062 441.232C898.295 435.035 887.214 429.4 875.864 424.348C865.113 419.345 854.948 414.613 845.841 408.98L840.98 405.95C798.374 379.431 764.062 358.087 728.219 358.087Z" fill="url(#paint31_radial_0_1)"/>
</g>
<g opacity="0.44">
<path d="M622.206 684.26C593.841 684.26 568.45 676.483 549.821 660.972C522.356 638.099 513.806 601.502 525.759 557.871C537.983 513.182 566.248 480.774 591.182 452.182C595.914 446.75 600.389 441.618 604.621 436.543C706.659 314.4 762.746 350.768 799.804 374.799C803.693 377.315 807.381 379.703 810.856 381.733C821.25 387.794 832.301 393.941 842.895 399.874C898.454 430.824 955.827 462.89 962.347 502.175C965.106 518.815 958.816 535.384 943.103 552.839C909.963 589.665 877.237 594.154 848.414 598.085C836.161 599.758 824.595 601.344 813.572 605.147C801.448 609.336 777.529 623.389 754.411 636.984C736.425 647.548 719.44 657.527 707.417 663.331C678.465 677.312 649.013 684.26 622.206 684.26ZM605.05 436.943L605.465 437.286C601.175 442.375 596.743 447.508 591.997 453.012C567.134 481.389 538.955 513.74 526.731 558.157C514.907 601.344 523.328 637.57 550.45 660.157C586.349 690.035 647.741 690.922 706.845 662.402C718.84 656.612 735.811 646.676 753.768 636.083C776.943 622.459 800.948 608.378 813.129 604.161C824.252 600.315 835.875 598.728 848.171 597.013C876.851 593.082 909.376 588.636 942.26 552.096C957.729 534.941 963.934 518.629 961.232 502.318C954.798 463.548 897.653 431.639 842.381 400.818C831.729 394.871 820.721 388.723 810.312 382.662C806.81 380.618 803.164 378.23 799.218 375.686C762.474 351.84 706.873 315.815 605.45 437.229L605.05 436.943Z" fill="url(#paint32_radial_0_1)"/>
</g>
<g opacity="0.54">
<path d="M617.803 681.93C581.517 681.93 549.949 665.947 532.907 638.099C508.774 598.614 517.967 543.103 558.184 485.777C616.059 403.148 662.81 362.105 709.733 352.712C752.838 344.135 794.185 361.933 851.045 395.671C860.409 401.232 869.631 407.951 879.267 415.056C891.662 424.148 904.487 433.555 919.298 441.761C941.731 454.141 962.533 467.064 970.51 488.937C978.488 510.809 969.753 536.842 947.121 558.571C943.864 561.877 940.849 565.412 938.099 569.15C932.938 575.841 927.591 582.76 919.899 586.305C910.349 590.594 899.297 591.852 888.617 593.038C881.345 593.662 874.123 594.775 867 596.369C765.334 622.03 740.614 639.571 722.6 652.366C706.058 664.103 694.12 672.58 635.574 680.686C629.686 681.51 623.748 681.926 617.803 681.93V681.93ZM730.849 351.84C678.522 351.84 627.911 388.109 558.999 486.392C519.096 543.346 509.932 598.442 533.822 637.527C553.352 669.464 592.254 685.589 635.331 679.628C693.606 671.551 705.472 663.145 721.885 651.494C740 638.628 764.776 621.044 866.671 595.326C873.864 593.696 881.157 592.55 888.503 591.895C899.111 590.723 910.077 589.507 919.47 585.247C926.919 581.873 932.18 575.069 937.27 568.478C940.051 564.696 943.099 561.118 946.391 557.771C968.709 536.327 977.344 510.766 969.51 489.294C961.675 467.822 941.044 454.984 918.784 442.69C903.872 434.455 891.019 425.035 878.581 415.914C868.916 408.766 859.78 402.133 850.458 396.6C805.18 369.724 767.607 351.84 730.849 351.84V351.84Z" fill="url(#paint33_radial_0_1)"/>
</g>
<g opacity="0.39">
<path d="M602.834 683.531C587.894 683.531 573.668 681.258 560.915 675.84C537.654 665.976 521.17 646.447 511.919 617.799C500.582 582.688 506.858 546.32 531.106 506.435C551.937 472.196 582.175 441.532 608.839 414.47L613.7 409.538C707.603 314.099 748.878 336.958 859.18 398.101C878.967 409.052 901.399 421.475 926.633 434.57C957.872 450.781 977.602 476.028 980.762 503.704C983.45 527.335 973.613 550.551 953.855 567.406C921.944 594.568 872.976 603.775 833.617 611.137C816.789 614.296 800.891 617.284 788.724 621.215C784.02 622.731 775.185 627.062 764.019 632.538C727.59 650.365 659.936 683.531 602.834 683.531ZM726.503 346.15C692.262 346.15 659.436 364.549 614.472 410.253L609.611 415.185C558.142 467.422 487.6 538.958 512.934 617.427C522.085 645.761 538.369 665.075 561.33 674.81C573.954 680.171 588.037 682.416 602.791 682.416C659.622 682.416 727.175 649.321 763.49 631.494C775.142 625.776 783.506 621.659 788.338 620.057C800.576 616.098 816.503 613.11 833.359 609.95C872.59 602.602 921.415 593.453 953.097 566.448C972.612 549.822 982.291 526.949 979.632 503.69C976.515 476.328 957 451.425 926.076 435.385C900.841 422.275 878.395 409.852 858.608 398.888C801.763 367.48 763.318 346.193 726.503 346.193V346.15Z" fill="url(#paint34_radial_0_1)"/>
</g>
<g opacity="0.1">
<path d="M604.021 682.63C553.981 682.63 510.961 644.832 503.255 610.022C490.76 553.597 516.68 519.859 539.555 490.081C545.103 482.847 550.35 476.028 554.925 469.066C554.996 468.966 555.196 468.608 555.525 468.022C570.384 441.679 588.429 417.264 609.253 395.328C648.985 354.171 689.917 335.043 730.95 338.374C755.026 340.361 874.963 400.26 920.113 422.819C925.832 425.678 930.264 427.88 932.981 429.181C968.094 446.464 989.954 472.797 992.814 501.446C995.43 527.493 982.806 552.71 957.186 572.438C929.349 593.882 918.298 596.327 877.194 605.405C870.875 606.834 863.855 608.264 855.948 610.136C806.066 621.502 767.907 636.498 734.238 649.736C691.147 666.705 653.889 681.301 606.794 682.587L604.021 682.63ZM721.728 339.074C636.232 339.074 573.954 437.486 556.454 468.551C556.111 469.18 555.897 469.552 555.825 469.666C551.222 476.643 545.975 483.49 540.399 490.724C517.681 520.316 491.918 553.854 504.299 609.779C512.048 644.818 556.025 682.888 606.694 681.515C653.674 680.229 690.832 665.633 733.852 648.735C767.55 635.483 805.752 620.472 855.705 609.093C863.626 607.292 870.646 605.748 876.951 604.347C917.883 595.326 928.892 592.91 956.528 571.581C981.819 552.096 994.329 527.264 991.742 501.531C988.882 473.254 967.294 447.208 932.452 430.124C929.778 428.809 925.389 426.607 919.584 423.748C874.477 401.218 754.668 341.376 730.864 339.403C727.795 339.193 724.749 339.084 721.728 339.074Z" fill="url(#paint35_radial_0_1)"/>
</g>
<g opacity="0.76">
<path d="M599.16 682.816C576.113 682.816 555.268 677.827 537.883 665.29C480.694 624.061 487.643 580.487 515.594 527.75C548.577 465.492 575.641 423.105 600.732 394.37C626.667 364.664 651.701 348.066 679.495 342.191C734.438 330.468 800.619 361.647 900.813 408.838C912.708 414.442 925.127 420.274 938.071 426.336C981.662 446.664 1006.98 481.517 1004.14 517.3C1001.19 554.469 968.852 585.29 917.654 599.901C904.458 603.675 890.49 606.062 876.951 608.378C868.001 609.922 858.751 611.509 849.629 613.496C819.219 620.129 786.494 631.909 751.838 644.361C698.881 663.345 644.724 682.816 599.16 682.816ZM703.828 340.761C695.725 340.722 687.641 341.536 679.709 343.191C626.195 354.628 581.975 404.763 516.537 528.25C488.858 580.501 481.996 623.646 538.512 664.417C555.668 676.812 576.327 681.744 599.174 681.744C644.553 681.744 698.61 662.302 751.48 643.288C786.165 630.822 818.919 618.986 849.4 612.381C858.536 610.394 867.815 608.807 876.779 607.263C890.89 604.847 904.215 602.56 917.369 598.814C968.123 584.333 1000.16 553.811 1003.06 517.157C1005.92 481.832 980.79 447.379 937.613 427.251C924.66 421.208 912.241 415.376 900.355 409.753C814.616 369.353 753.825 340.761 703.828 340.761Z" fill="url(#paint36_radial_0_1)"/>
</g>
<g opacity="0.11">
<path d="M586.221 689.578C582.99 689.578 579.93 689.449 577.071 689.178C551.336 686.747 516.265 666.505 498.852 632.524C486.713 608.864 478.621 569.779 508.859 517.914C509.96 516.027 511.719 512.654 513.978 507.979C524.486 486.964 549.077 437.729 586.092 397.258C632.257 346.88 682.568 325.693 735.467 334.285C752.466 337.044 759.443 340.204 826.125 370.554L864.727 388.109C876.722 393.541 889.36 397.959 902.743 402.648C916.511 407.465 930.736 412.44 945.233 418.888C975.915 432.526 999.133 455.642 1008.93 482.275C1016.66 503.29 1015.42 525.477 1005.35 546.477C997.732 562.331 981.047 573.253 965.035 583.818C961.146 586.363 957.386 589.222 953.383 592.252C943.117 600.058 932.509 608.121 918.941 611.509C906.074 614.697 892.463 616.269 879.267 617.785C867.829 619.1 856.048 620.458 844.582 622.874C759.086 640.858 736.826 650.894 718.954 658.942C711.363 662.519 703.556 665.617 695.579 668.22C671.131 676.054 619.661 689.578 586.221 689.578ZM712.735 333.499C668.414 333.499 626.167 355.114 586.921 397.973C549.992 438.344 525.444 487.479 514.964 508.465C512.62 513.154 510.933 516.542 509.817 518.472C479.794 569.937 487.743 608.635 499.809 632.052C517.066 665.69 551.793 685.718 577.185 688.12C609.382 691.179 668.543 675.783 695.336 667.205C703.275 664.622 711.044 661.543 718.597 657.984C736.525 649.907 758.843 639.843 844.411 621.83C855.848 619.414 867.743 618.056 879.195 616.741C892.349 615.226 905.959 613.653 918.727 610.48C932.08 607.149 942.603 599.157 952.782 591.423C956.785 588.378 960.574 585.505 964.491 582.932C981.176 571.967 996.946 561.617 1004.42 546.02C1014.43 525.305 1015.59 503.39 1007.97 482.661C998.261 456.285 975.257 433.412 944.847 419.888C930.379 413.455 916.167 408.452 902.442 403.677C889.032 398.988 876.365 394.556 864.326 389.095L825.724 371.54C759.157 341.261 752.209 338.088 735.339 335.357C727.866 334.134 720.307 333.512 712.735 333.499V333.499Z" fill="url(#paint37_radial_0_1)"/>
</g>
<g opacity="0.49">
<path d="M579.444 692.866C553.824 692.866 532.492 684.031 509.231 661.415C484.712 637.599 465.611 613.467 480.423 559.487C483.84 547.006 491.86 536.127 499.552 525.606C502.812 521.188 506.172 516.614 509.06 512.067C523.142 489.966 535.466 469.352 546.332 451.182C583.99 388.109 608.881 346.48 652.244 333.184C694.864 320.132 755.998 333.842 870.245 382.076C882.326 387.18 895.036 391.011 908.504 395.085C922.944 399.374 937.885 403.963 952.939 410.367C1005.84 432.826 1010.66 459.488 1015.35 485.277C1015.79 487.736 1016.23 490.181 1016.78 492.611C1021.98 518.686 1018.21 541.359 1005.34 560.015C972.269 608.335 883.685 623.846 812.5 636.326C784.749 641.187 758.543 645.776 738.598 651.694C719.14 657.413 701.326 663.131 685.599 668.063C639.935 682.502 607.18 692.866 579.444 692.866ZM685.971 329.582C674.66 329.441 663.391 331.003 652.544 334.214C609.653 347.38 584.777 388.866 547.233 451.668C536.367 469.852 524.043 490.467 509.96 512.582C507.101 517.171 503.67 521.76 500.41 526.192C492.732 536.628 484.797 547.421 481.438 559.715C466.798 613.196 485.727 637.07 510.032 660.658C558.027 707.291 597.93 694.682 685.328 667.048C701.054 662.073 718.883 656.44 738.341 650.665C758.357 644.732 784.592 640.129 812.371 635.268C883.356 622.831 971.697 607.349 1004.51 559.415C1017.1 541.002 1020.88 518.601 1015.73 492.825C1015.23 490.381 1014.79 487.922 1014.3 485.463C1009.66 459.959 1004.87 433.598 952.539 411.354C937.541 404.978 922.63 400.475 908.218 396.114C894.736 392.04 881.997 388.18 869.845 383.062C782.647 346.251 726.503 329.582 685.971 329.582Z" fill="url(#paint38_radial_0_1)"/>
</g>
<g opacity="0.66">
<path d="M574.383 695.882C547.876 695.882 522.37 686.676 496.436 657.756C457.834 614.725 463.552 599.014 476.205 564.576C477.463 561.159 478.779 557.557 480.137 553.725C489.888 526.092 494.148 519.301 506.787 499.144C515.165 485.763 526.645 467.436 545.632 433.784C570.923 388.952 600.775 357.316 634.359 339.746C666.299 323.034 701.741 318.96 739.757 327.609C802.42 341.905 820.764 353.456 838.506 364.635C849.327 371.841 860.888 377.87 872.991 382.619C885.3 387.451 898.296 390.553 912.05 393.841C927.148 397.444 942.76 401.175 958.229 407.465C1002.19 425.364 1020.36 454.027 1027.88 474.927C1037.46 501.574 1035.6 532.653 1023.02 555.998C997.289 603.918 895.58 622.102 846.741 630.837C841.323 631.809 836.633 632.652 832.945 633.381C827.52 634.275 822.205 635.741 817.089 637.756C808.511 640.887 790.811 647.391 727.976 665.704C716.767 668.978 705.301 670.45 694.206 671.88C685.219 672.852 676.297 674.35 667.485 676.369C658.907 678.499 650.643 680.8 642.608 683.031C618.618 689.664 596.157 695.882 574.383 695.882ZM701.226 324.192C639.749 324.192 587.879 361.104 546.561 434.341C527.574 468.008 516.08 486.349 507.687 499.744C495.106 519.83 490.86 526.592 481.138 554.068C479.794 557.914 478.464 561.516 477.22 564.919C464.353 599.972 459.063 614.482 497.236 657.027C544.045 709.206 589.552 696.597 642.265 681.987C650.314 679.757 658.635 677.455 667.156 675.311C676.012 673.296 684.977 671.797 694.006 670.822C705.043 669.392 716.481 667.963 727.604 664.675C790.397 646.362 808.125 639.872 816.646 636.741C821.828 634.74 827.204 633.283 832.687 632.395C836.39 631.666 841.08 630.822 846.513 629.85C891.391 621.83 996.474 603.031 1022.04 555.512C1031.79 537.414 1038.16 506.835 1026.83 475.299C1019.39 454.613 1001.38 426.221 957.786 408.48C942.388 402.204 926.819 398.473 911.764 394.899C897.967 391.597 884.929 388.495 872.547 383.634C860.394 378.843 848.778 372.786 837.891 365.564C820.22 354.428 801.949 342.92 739.471 328.667C726.931 325.74 714.103 324.229 701.226 324.164V324.192Z" fill="url(#paint39_radial_0_1)"/>
</g>
<g opacity="0.5">
<path d="M577.986 692.752C530.677 692.752 497.551 681.015 479.25 657.713C457.662 630.236 451.829 602.531 460.907 570.509C468.999 542.003 487.986 513.483 508.088 483.304C520.426 464.72 533.193 445.578 544.102 425.406C570.308 376.944 593.083 349.339 620.233 333.213C652.187 314.214 690.732 311.441 741.515 324.478C797.545 338.874 818.805 350.082 839.364 360.918C851.639 367.705 864.409 373.555 877.566 378.416C889.904 382.905 902.585 386.15 916.025 389.581C931.565 393.555 947.635 397.673 963.719 403.963C1009.3 421.761 1037.03 456.428 1039.81 499.058C1042.67 542.389 1019.13 584.304 979.947 605.848C935.626 630.15 913.508 631.952 882.855 634.439C864.294 635.656 845.822 637.986 827.54 641.416C816.417 643.546 799.733 648.306 778.602 654.282C733.795 667.062 672.432 684.56 615.358 690.622C602.947 691.989 590.472 692.7 577.986 692.752V692.752ZM685.328 317.631C618.475 317.631 581.331 358.788 545.031 425.964C534.094 446.178 521.327 465.377 508.974 483.948C468.399 544.905 433.357 597.542 480.094 657.055C502.64 685.761 548.176 696.726 615.244 689.578C672.217 683.517 733.537 666.033 778.316 653.252C799.461 647.22 816.174 642.459 827.326 640.315C845.637 636.88 864.137 634.54 882.727 633.31C913.251 630.894 935.297 629.15 979.389 604.904C1018.22 583.561 1041.5 542.003 1038.69 499.115C1035.95 456.914 1008.45 422.59 963.291 404.949C947.264 398.688 931.222 394.57 915.71 390.653C902.257 387.208 889.532 383.949 877.108 379.46C863.904 374.574 851.086 368.701 838.763 361.89C818.39 351.054 797.159 339.889 741.186 325.522C720.47 320.19 701.984 317.631 685.328 317.631V317.631Z" fill="url(#paint40_radial_0_1)"/>
</g>
<g opacity="0.62">
<path d="M574.898 698.341C523.199 698.341 483.154 679.757 461.865 645.776C442.107 614.239 441.578 573.11 460.436 535.698C466.555 523.561 476.162 513.569 485.398 503.89C490.502 498.544 495.406 493.497 499.481 488.165C527.031 453.126 545.131 422.261 559.671 397.458C611.884 308.367 624.294 287.195 882.241 373.784C894.979 378.073 908.218 380.503 922.272 383.091C938.356 386.05 954.984 389.124 971.268 395.228C1003.38 407.294 1042.1 449.752 1048.47 493.74C1056.66 549.68 1038.06 583.989 984.279 612.181C933.524 638.771 907.246 639.257 876.808 639.8C860.523 640.1 843.682 640.415 821.278 644.604C803.707 647.892 785.092 654.253 763.547 661.601C717.61 677.327 660.437 696.826 578.486 698.184L574.898 698.341ZM661.123 319.947C606.394 319.947 589.738 348.367 560.558 398.13C546.003 422.962 527.889 453.884 500.296 488.965C496.121 494.269 491.274 499.33 486.142 504.691C476.934 514.298 467.412 524.247 461.365 536.242C442.664 573.253 443.165 613.982 462.795 645.19C484.369 679.628 525.458 698.084 578.515 697.226C660.294 695.868 717.382 676.369 763.246 660.701C784.835 653.338 803.478 646.962 821.121 643.66C843.61 639.457 860.495 639.143 876.879 638.842C907.189 638.299 933.353 637.813 983.878 611.337C1037.13 583.418 1055.55 549.48 1047.44 494.026C1041.07 450.41 1002.69 408.323 970.854 396.372C954.669 390.282 938.085 387.237 922.044 384.278C908.004 381.676 894.722 379.231 881.912 374.928C769.394 337.159 703.742 319.947 661.123 319.947Z" fill="url(#paint41_radial_0_1)"/>
</g>
<g opacity="0.8">
<path d="M559.943 706.876C540.084 706.876 518.71 704.102 499.738 695.339C485.875 688.999 473.672 679.529 464.088 667.674C454.505 655.819 447.803 641.903 444.509 627.02C434.501 582.703 452.472 530.194 495.006 479.259C505.728 466.392 515.694 448.565 526.245 429.666C561.115 367.251 604.492 289.568 716.266 308.753C762.532 316.701 763.447 317.087 809.354 337.058C815.631 339.789 822.751 342.877 830.943 346.408C894.893 373.956 910.606 377.115 927.233 380.46C938.328 382.691 949.808 384.992 975.843 394.413C1016.89 409.238 1057.34 461.603 1061.63 493.997C1064.57 516.256 1059.44 540.73 1047.16 562.889C1033.71 586.974 1013.27 606.415 988.539 618.642C969.796 628.035 947.421 631.022 921.5 634.482L917.283 635.054C909.319 636.112 901.356 638.714 893.635 641.23C884.971 644.089 875.993 646.948 866.886 647.82C793.113 654.525 763.075 665.347 731.293 676.798C718.94 681.229 706.187 685.832 690.632 690.178C677.021 693.995 663.468 695.068 650.271 696.097C642.079 696.754 634.33 697.369 626.853 698.599C625.423 698.842 623.336 699.256 620.734 699.785C608.81 702.201 585.663 706.876 559.943 706.876ZM683.197 306.866C596.057 306.866 558.227 374.613 527.188 430.195C516.609 449.123 506.615 467.021 495.821 479.945C453.501 530.623 435.659 582.774 445.552 626.777C448.81 641.502 455.441 655.271 464.922 666.999C474.404 678.728 486.479 688.096 500.196 694.367C543.415 714.381 599.46 702.944 620.562 698.742C623.179 698.213 625.252 697.784 626.724 697.541C634.244 696.297 642.008 695.682 650.229 695.039C663.339 693.995 676.878 692.923 690.389 689.149C705.901 684.86 718.64 680.214 730.964 675.783C762.818 664.346 792.913 653.481 866.786 646.748C875.778 645.933 884.685 643.031 893.306 640.215C901.055 637.684 909.033 635.068 917.14 633.982L921.357 633.424C947.178 629.979 969.481 627.005 988.053 617.699C1042.74 590.265 1065.9 534.783 1060.52 494.155C1056.24 462.004 1016.2 410.138 975.486 395.428C949.465 386.036 938.042 383.748 926.976 381.518C910.291 378.173 894.536 374.999 830.471 347.409C822.279 343.878 815.159 340.775 808.883 338.059C763.061 318.131 762.189 317.745 716.038 309.825C705.194 307.912 694.208 306.922 683.197 306.866V306.866Z" fill="url(#paint42_radial_0_1)"/>
</g>
<g opacity="0.5">
<path d="M577.471 712.308C515.365 712.308 464.124 688.377 441.921 647.119C429.683 624.375 427.066 598.256 434.158 569.479C441.921 538.028 461.108 504.733 491.189 470.681C530.391 426.364 541.014 400.203 548.791 381.146C557.37 359.917 563.088 345.879 600.475 323.306C631.628 304.464 692.434 294.514 718.511 299.889C743.245 305.021 784.077 323.935 811.142 336.472C819.877 340.518 827.412 344.006 832.745 346.279C864.484 359.789 898.94 367.008 929.35 373.441C949.365 377.63 968.237 381.59 983.021 386.736C1009.46 395.928 1031.86 411.697 1047.8 432.354C1062.85 451.637 1071.69 475.03 1073.16 499.444C1076.11 550.909 1045.74 597.127 991.913 623.074C931.251 652.309 911.149 649.936 889.861 647.377C881.093 646.087 872.213 645.728 863.369 646.305C806.881 650.793 789.11 658.699 770.281 667.091C761.796 671.025 753.083 674.448 744.189 677.341C743.374 677.584 626.052 708.005 613.585 709.763C601.622 711.455 589.554 712.306 577.471 712.308V712.308ZM701.155 299.503C671.431 299.503 626.424 308.91 601.076 324.221C564.061 346.608 558.399 360.518 549.821 381.561C542.029 400.675 531.349 426.864 492.032 471.381C434.558 536.456 417.116 598.614 442.908 646.605C469.085 695.21 536.024 719.585 613.485 708.663C626.024 706.89 743.045 676.526 743.903 676.268C752.765 673.395 761.445 669.986 769.895 666.061C788.795 657.641 806.652 649.693 863.326 645.189C872.242 644.608 881.194 644.973 890.033 646.276C911.149 648.778 931.108 651.136 991.542 621.973C1044.97 596.241 1075.11 550.394 1072.19 499.373C1069.33 448.623 1035.02 405.807 982.778 387.637C968.037 382.505 949.194 378.559 929.221 374.37C898.768 367.994 864.255 360.761 832.43 347.208C827.069 344.935 819.563 341.49 810.784 337.387C783.792 324.864 743.002 305.936 718.397 300.89C712.709 299.862 706.934 299.397 701.155 299.503V299.503Z" fill="url(#paint43_radial_0_1)"/>
</g>
<g opacity="0.75">
<path d="M562.216 721.643C535.252 721.643 511.633 716.94 491.846 707.591C464.81 694.824 443.951 672.995 429.854 642.688C407.15 593.796 402.347 570.108 442.493 514.112C450.346 502.695 459.924 492.567 470.887 484.09C483.354 473.983 496.235 463.547 522.585 416.729C526.842 408.766 530.684 400.587 534.094 392.226C550.407 354.142 570.723 306.737 657.792 295.987C718.44 288.496 762.474 307.881 809.083 328.41C835.689 340.118 863.197 352.198 895.88 360.661C908.933 364.035 922.73 366.022 936.083 367.937C953.869 370.496 972.255 373.141 990.04 379.102C1006.81 384.721 1028.54 402.562 1048.19 426.807C1068.03 451.325 1081.07 476.843 1083 495.027C1085.33 516.199 1063.13 579.929 1043.93 599.229C984.321 659.114 865.999 658.127 821.464 657.684C812.385 657.598 805.837 657.541 803.264 657.984C791.097 660.129 772.139 667.205 748.149 676.154C701.069 693.709 636.632 717.755 576.384 721.229C571.566 721.5 566.834 721.643 562.216 721.643ZM683.998 295.429C675.271 295.437 666.552 295.981 657.892 297.059C571.438 307.724 551.264 354.814 535.052 392.64C531.627 401.046 527.766 409.268 523.485 417.272C497.036 464.277 484.068 474.784 471.544 484.948C460.663 493.358 451.156 503.409 443.365 514.741C403.333 570.494 407.851 592.81 430.826 642.245C457.133 698.799 504.713 724.288 576.327 720.157C636.375 716.697 700.711 692.68 747.777 675.139C771.825 666.176 790.811 659.085 803.078 656.941C805.737 656.469 811.999 656.526 821.464 656.612C865.899 656.998 983.878 658.041 1043.17 598.471C1062.21 579.329 1084.24 516.127 1081.93 495.141C1077.92 457.643 1025.34 392.069 989.697 380.117C971.997 374.185 953.669 371.54 935.926 369.01C922.558 367.08 908.762 365.092 895.608 361.704C862.84 353.241 835.303 341.118 808.654 329.396C769.151 311.998 731.493 295.429 683.998 295.429Z" fill="url(#paint44_radial_0_1)"/>
</g>
<g opacity="0.63">
<path d="M560.114 726.29C545.556 726.163 531.038 724.728 516.737 722.001C468.785 713.323 428.982 681.601 412.841 639.2C396.699 596.799 405.692 550.366 438.418 508.637C441.492 504.705 445.995 499.158 451.285 492.725C478.121 459.674 527.989 398.073 547.533 356.773C548.791 354.128 549.963 351.383 551.207 348.481C562.044 323.22 575.512 291.798 657.82 285.265C730.449 279.547 763.332 298.046 801.405 319.575C826.582 333.771 855.133 349.882 899.383 360.232C912.436 363.291 926.075 365.093 939.271 366.837C957.643 369.267 976.63 371.769 995.03 377.716C1016.48 384.664 1038.98 400.946 1056.51 422.39C1075.09 445.035 1086.66 471.196 1089.06 496.071C1094.57 551.309 1081.03 570.923 1048.83 602.488C1025.65 625.19 967.408 652.523 917.626 657.155C907.211 657.979 896.761 658.279 886.315 658.056C865.17 658.056 838.835 657.899 797.674 665.004C781.861 667.734 775.313 669.807 759.501 674.782C742.516 680.143 714.079 689.078 651.058 706.118C643.823 708.091 637.018 710.407 629.812 712.809C610.025 719.442 589.709 726.29 560.114 726.29ZM683.34 285.265C675.434 285.265 666.985 285.608 657.906 286.337C576.241 292.813 562.917 323.907 552.194 348.896C550.95 351.755 549.763 354.614 548.505 357.23C528.904 398.688 478.907 460.317 452.043 493.454C446.839 499.888 442.335 505.434 439.276 509.351C406.836 550.809 397.815 596.784 413.841 638.885C429.868 680.986 469.343 712.451 516.923 721.029C572.324 731.036 601.39 721.243 629.512 711.765C636.732 709.335 643.552 707.033 650.815 705.046C713.822 688.063 742.316 679.099 759.229 673.738C775.084 668.735 781.647 666.662 797.531 663.917C826.844 658.723 856.593 656.392 886.358 656.955C896.77 657.179 907.187 656.878 917.569 656.054C967.136 651.508 1025.08 624.261 1048.11 601.731C1080.03 570.351 1093.49 550.909 1088.05 496.113C1082.64 440.46 1035.38 391.826 994.687 378.674C976.401 372.77 957.514 370.268 939.128 367.837C925.918 366.093 912.25 364.292 899.097 361.219C854.747 350.768 826.125 334.686 800.876 320.447C767.721 301.748 738.513 285.265 683.34 285.265V285.265Z" fill="url(#paint45_radial_0_1)"/>
</g>
<g opacity="0.32">
<path d="M566.634 732.379C539.798 732.379 469.729 718.999 439.819 693.881C399.487 659.971 385.962 618.099 398.515 565.676C407.093 530.109 421.519 503.032 480.709 445.406C496.436 430.167 508.731 408.509 521.827 385.564C557.57 323.106 597.916 252.327 721.499 288.939C809.812 315.029 845.726 332.698 869.516 344.364C882.884 350.911 891.72 355.228 903.443 357.702C916.882 360.561 930.908 361.89 944.461 363.205C963.219 365.021 982.606 366.894 1001.18 372.684C1030.99 381.976 1077.94 423.648 1087.25 441.661C1113.92 493.283 1103.06 521.202 1091.53 550.752C1090.75 552.753 1089.96 554.769 1089.19 556.799C1073.31 598.442 1042.7 627.048 995.616 644.26C953.283 659.728 902.943 664.117 854.848 666.562C836.076 667.519 823.737 667.734 814.816 667.891C790.054 668.32 790.054 668.32 748.206 682.101C739.342 685.032 728.576 688.577 715.323 692.866C703.352 696.845 691.61 701.484 680.152 706.761C656.048 717.455 633.287 727.533 571.037 732.236C569.708 732.337 568.192 732.379 566.634 732.379ZM659.693 280.004C583.319 280.004 551.479 335.758 522.742 386.107C509.603 409.109 497.193 430.824 481.438 446.149C422.434 503.604 408.023 530.495 399.545 565.919C387.106 617.842 400.503 659.428 440.506 693.037C471.959 719.513 548.377 732.851 570.894 731.15C632.958 726.461 655.633 716.411 679.638 705.775C691.129 700.472 702.909 695.819 714.923 691.837C728.19 687.548 738.942 684.003 747.806 681.072C789.811 667.248 789.811 667.248 814.73 666.776C823.723 666.619 836.033 666.404 854.762 665.447C953.726 660.414 1053.26 647.849 1088.16 556.37C1088.93 554.354 1089.72 552.324 1090.51 550.323C1101.94 521.002 1112.68 493.297 1086.22 442.104C1076.98 424.248 1030.37 382.891 1000.78 373.67C982.306 367.952 962.976 366.036 944.276 364.235C930.679 362.919 916.639 361.561 903.143 358.717C891.277 356.215 882.398 351.869 868.959 345.279C845.283 333.685 809.383 316.087 721.171 289.968C697.909 283.063 677.579 280.004 659.693 280.004Z" fill="url(#paint46_radial_0_1)"/>
</g>
<g opacity="0.25">
<path d="M539.155 736.754C507.702 736.754 480.409 731.407 457.662 720.7C422.992 704.403 399.144 675.539 386.806 634.925C370.893 582.36 378.957 560.787 401.289 524.233C414.07 503.304 478.822 439.888 479.436 439.259C517.667 403.662 530.262 372.755 540.385 347.909C549.706 325.036 557.084 306.909 579.673 292.842C579.816 292.742 580.273 292.241 580.759 291.727C607.652 262.477 658.578 258.031 724.144 279.175C777.458 296.33 799.018 309.725 816.346 320.447C825.467 326.165 833.345 330.968 844.096 335.414C895.709 356.729 917.412 356.186 940.358 355.614C957.858 355.171 975.929 354.728 1008.33 364.463C1041.14 374.328 1084.96 413.855 1097.83 439.302C1104.53 452.583 1105.12 468.065 1105.69 483.047C1105.87 487.764 1106.06 492.639 1106.43 497.343C1106.65 500.016 1106.89 502.704 1107.13 505.42C1108.85 524.333 1110.61 543.89 1103.5 562.117C1089.09 599.086 1044.04 638.799 1011 652.681C975.901 667.577 932.266 669.149 886.072 670.808C839.25 672.494 786.165 674.41 732.294 690.364C731.922 690.479 730.507 691.065 728.376 691.965C690.503 707.848 653.66 719.742 618.875 727.304C589.91 733.604 563.336 736.754 539.155 736.754ZM650.672 267.095C620.748 267.095 597.115 275.672 581.603 292.441C581.218 292.921 580.782 293.357 580.302 293.742C557.999 307.638 550.693 325.593 541.428 348.323C531.263 373.27 518.625 404.334 480.223 440.059C479.608 440.617 414.985 503.962 402.261 524.805C380.044 561.059 371.994 582.36 387.821 634.568C400.074 674.91 423.792 703.559 458.105 719.713C543.773 759.999 675.42 713.037 727.962 690.979C730.278 690.007 731.565 689.464 731.993 689.335C785.993 673.338 839.15 671.422 886.044 669.735C934.139 668.006 975.672 666.505 1010.59 651.68C1043.47 637.884 1088.19 598.442 1102.5 561.731C1109.52 543.732 1107.76 524.304 1106.06 505.506C1105.82 502.804 1105.57 500.102 1105.36 497.428C1104.99 492.697 1104.8 487.807 1104.62 483.133C1104.06 468.265 1103.47 452.897 1096.87 439.831C1084.1 414.57 1040.59 375.328 1008.01 365.493C975.786 355.8 957.801 356.243 940.387 356.687C917.311 357.258 895.509 357.802 843.696 336.401C832.859 331.926 824.938 327.023 815.788 321.362C798.503 310.668 777 297.359 723.816 280.19C696.637 271.427 672.017 267.081 650.615 267.081L650.672 267.095Z" fill="url(#paint47_radial_0_1)"/>
</g>
<g opacity="0.28">
<path d="M521.112 749.234C503.355 749.234 488.229 745.503 467.856 738.784C425.651 724.903 391.138 689.95 375.54 645.261C359.813 600.358 364.989 553.039 389.665 515.441C413.513 479.087 429.854 465.821 450.542 449.037C457.891 443.062 465.511 436.872 474.361 429.023C516.723 391.282 521.169 379.517 530.863 353.727C534.265 344.707 538.483 333.485 545.303 318.86C563.503 279.847 629.284 258.16 659.036 259.275C701.155 260.991 752.624 285.908 802.435 309.997C842.781 329.51 880.883 347.909 911.65 353.041C917.726 354.042 926.333 354.471 936.312 355.014C986.352 357.616 1079.6 362.448 1113.19 453.655C1137.43 519.415 1119.94 546.706 1099.68 578.285C1098.04 580.859 1096.37 583.475 1094.69 586.134C1069.95 625.562 1033.43 652.266 986.152 665.49C934.053 680.057 904.659 679.042 873.405 677.984C837.463 676.755 800.29 675.468 724.716 697.998L689.531 708.506C593.713 737.097 553.109 749.22 521.112 749.234ZM656.619 260.347C626.138 260.347 563.817 281.705 546.275 319.318C539.47 333.899 535.309 345.05 531.878 354.113C522.099 380.06 517.652 391.897 475.076 429.881C466.197 437.787 458.577 443.962 451.214 449.895C430.598 466.621 414.328 479.83 390.566 516.056C366.075 553.368 360.971 600.401 376.555 644.947C392.053 689.264 426.309 724.002 468.199 737.783C525.072 756.497 540.613 751.865 689.159 707.476L724.33 696.983C800.104 674.41 837.405 675.697 873.448 676.969C904.544 678.027 933.925 679.042 985.851 664.518C1032.87 651.365 1069.19 624.818 1093.78 585.619C1095.45 582.96 1097.12 580.344 1098.78 577.771C1118.89 546.434 1136.24 519.373 1112.19 454.084C1078.84 363.549 986.08 358.731 936.255 356.143C926.247 355.615 917.669 355.171 911.464 354.156C880.554 349.024 842.381 330.568 801.963 311.012C752.252 286.909 700.84 262.049 658.993 260.39C658.264 260.362 657.434 260.347 656.619 260.347Z" fill="url(#paint48_radial_0_1)"/>
</g>
<defs>
<filter id="filter0_f_0_1" x="-73.1608" y="69.859" width="1105.86" height="1059.92" filterUnits="userSpaceOnUse" color-interpolation-filters="sRGB">
<feFlood flood-opacity="0" result="BackgroundImageFix"/>
<feBlend mode="normal" in="SourceGraphic" in2="BackgroundImageFix" result="shape"/>
<feGaussianBlur stdDeviation="200" result="effect1_foregroundBlur_0_1"/>
</filter>
<filter id="filter1_f_0_1" x="554.326" y="10.9578" width="954.634" height="930.228" filterUnits="userSpaceOnUse" color-interpolation-filters="sRGB">
<feFlood flood-opacity="0" result="BackgroundImageFix"/>
<feBlend mode="normal" in="SourceGraphic" in2="BackgroundImageFix" result="shape"/>
<feGaussianBlur stdDeviation="150" result="effect1_foregroundBlur_0_1"/>
</filter>
<radialGradient id="paint0_radial_0_1" cx="0" cy="0" r="1" gradientUnits="userSpaceOnUse" gradientTransform="translate(744.432 525.991) scale(577.757 577.706)">
<stop offset="0.12" stop-color="#FF136F"/>
<stop offset="0.31" stop-color="#C3478F"/>
<stop offset="0.55" stop-color="#7C85B5"/>
<stop offset="0.76" stop-color="#48B2D0"/>
<stop offset="0.91" stop-color="#28CEE2"/>
<stop offset="1" stop-color="#1CD9E8"/>
</radialGradient>
<radialGradient id="paint1_radial_0_1" cx="0" cy="0" r="1" gradientUnits="userSpaceOnUse" gradientTransform="translate(744.432 525.991) scale(577.757 577.707)">
<stop offset="0.12" stop-color="#FF136F"/>
<stop offset="0.31" stop-color="#C3478F"/>
<stop offset="0.55" stop-color="#7C85B5"/>
<stop offset="0.76" stop-color="#48B2D0"/>
<stop offset="0.91" stop-color="#28CEE2"/>
<stop offset="1" stop-color="#1CD9E8"/>
</radialGradient>
<radialGradient id="paint2_radial_0_1" cx="0" cy="0" r="1" gradientUnits="userSpaceOnUse" gradientTransform="translate(744.432 525.991) scale(577.757 577.706)">
<stop offset="0.12" stop-color="#FF136F"/>
<stop offset="0.31" stop-color="#C3478F"/>
<stop offset="0.55" stop-color="#7C85B5"/>
<stop offset="0.76" stop-color="#48B2D0"/>
<stop offset="0.91" stop-color="#28CEE2"/>
<stop offset="1" stop-color="#1CD9E8"/>
</radialGradient>
<radialGradient id="paint3_radial_0_1" cx="0" cy="0" r="1" gradientUnits="userSpaceOnUse" gradientTransform="translate(744.432 525.991) scale(577.757 577.707)">
<stop offset="0.12" stop-color="#FF136F"/>
<stop offset="0.31" stop-color="#C3478F"/>
<stop offset="0.55" stop-color="#7C85B5"/>
<stop offset="0.76" stop-color="#48B2D0"/>
<stop offset="0.91" stop-color="#28CEE2"/>
<stop offset="1" stop-color="#1CD9E8"/>
</radialGradient>
<radialGradient id="paint4_radial_0_1" cx="0" cy="0" r="1" gradientUnits="userSpaceOnUse" gradientTransform="translate(744.432 525.991) scale(577.757 577.706)">
<stop offset="0.12" stop-color="#FF136F"/>
<stop offset="0.31" stop-color="#C3478F"/>
<stop offset="0.55" stop-color="#7C85B5"/>
<stop offset="0.76" stop-color="#48B2D0"/>
<stop offset="0.91" stop-color="#28CEE2"/>
<stop offset="1" stop-color="#1CD9E8"/>
</radialGradient>
<radialGradient id="paint5_radial_0_1" cx="0" cy="0" r="1" gradientUnits="userSpaceOnUse" gradientTransform="translate(744.432 525.992) scale(577.757 577.707)">
<stop offset="0.12" stop-color="#FF136F"/>
<stop offset="0.31" stop-color="#C3478F"/>
<stop offset="0.55" stop-color="#7C85B5"/>
<stop offset="0.76" stop-color="#48B2D0"/>
<stop offset="0.91" stop-color="#28CEE2"/>
<stop offset="1" stop-color="#1CD9E8"/>
</radialGradient>
<radialGradient id="paint6_radial_0_1" cx="0" cy="0" r="1" gradientUnits="userSpaceOnUse" gradientTransform="translate(744.432 525.991) scale(577.757 577.707)">
<stop offset="0.12" stop-color="#FF136F"/>
<stop offset="0.31" stop-color="#C3478F"/>
<stop offset="0.55" stop-color="#7C85B5"/>
<stop offset="0.76" stop-color="#48B2D0"/>
<stop offset="0.91" stop-color="#28CEE2"/>
<stop offset="1" stop-color="#1CD9E8"/>
</radialGradient>
<radialGradient id="paint7_radial_0_1" cx="0" cy="0" r="1" gradientUnits="userSpaceOnUse" gradientTransform="translate(744.432 525.991) scale(577.757 577.707)">
<stop offset="0.12" stop-color="#FF136F"/>
<stop offset="0.31" stop-color="#C3478F"/>
<stop offset="0.55" stop-color="#7C85B5"/>
<stop offset="0.76" stop-color="#48B2D0"/>
<stop offset="0.91" stop-color="#28CEE2"/>
<stop offset="1" stop-color="#1CD9E8"/>
</radialGradient>
<radialGradient id="paint8_radial_0_1" cx="0" cy="0" r="1" gradientUnits="userSpaceOnUse" gradientTransform="translate(744.432 525.991) scale(577.757 577.706)">
<stop offset="0.12" stop-color="#FF136F"/>
<stop offset="0.31" stop-color="#C3478F"/>
<stop offset="0.55" stop-color="#7C85B5"/>
<stop offset="0.76" stop-color="#48B2D0"/>
<stop offset="0.91" stop-color="#28CEE2"/>
<stop offset="1" stop-color="#1CD9E8"/>
</radialGradient>
<radialGradient id="paint9_radial_0_1" cx="0" cy="0" r="1" gradientUnits="userSpaceOnUse" gradientTransform="translate(744.432 525.991) scale(577.757 577.706)">
<stop offset="0.12" stop-color="#FF136F"/>
<stop offset="0.31" stop-color="#C3478F"/>
<stop offset="0.55" stop-color="#7C85B5"/>
<stop offset="0.76" stop-color="#48B2D0"/>
<stop offset="0.91" stop-color="#28CEE2"/>
<stop offset="1" stop-color="#1CD9E8"/>
</radialGradient>
<radialGradient id="paint10_radial_0_1" cx="0" cy="0" r="1" gradientUnits="userSpaceOnUse" gradientTransform="translate(744.432 525.992) scale(577.757 577.706)">
<stop offset="0.12" stop-color="#FF136F"/>
<stop offset="0.31" stop-color="#C3478F"/>
<stop offset="0.55" stop-color="#7C85B5"/>
<stop offset="0.76" stop-color="#48B2D0"/>
<stop offset="0.91" stop-color="#28CEE2"/>
<stop offset="1" stop-color="#1CD9E8"/>
</radialGradient>
<radialGradient id="paint11_radial_0_1" cx="0" cy="0" r="1" gradientUnits="userSpaceOnUse" gradientTransform="translate(744.431 525.991) scale(577.757 577.706)">
<stop offset="0.12" stop-color="#FF136F"/>
<stop offset="0.31" stop-color="#C3478F"/>
<stop offset="0.55" stop-color="#7C85B5"/>
<stop offset="0.76" stop-color="#48B2D0"/>
<stop offset="0.91" stop-color="#28CEE2"/>
<stop offset="1" stop-color="#1CD9E8"/>
</radialGradient>
<radialGradient id="paint12_radial_0_1" cx="0" cy="0" r="1" gradientUnits="userSpaceOnUse" gradientTransform="translate(744.432 525.992) scale(577.757 577.706)">
<stop offset="0.12" stop-color="#FF136F"/>
<stop offset="0.31" stop-color="#C3478F"/>
<stop offset="0.55" stop-color="#7C85B5"/>
<stop offset="0.76" stop-color="#48B2D0"/>
<stop offset="0.91" stop-color="#28CEE2"/>
<stop offset="1" stop-color="#1CD9E8"/>
</radialGradient>
<radialGradient id="paint13_radial_0_1" cx="0" cy="0" r="1" gradientUnits="userSpaceOnUse" gradientTransform="translate(744.432 525.991) scale(577.757 577.706)">
<stop offset="0.12" stop-color="#FF136F"/>
<stop offset="0.31" stop-color="#C3478F"/>
<stop offset="0.55" stop-color="#7C85B5"/>
<stop offset="0.76" stop-color="#48B2D0"/>
<stop offset="0.91" stop-color="#28CEE2"/>
<stop offset="1" stop-color="#1CD9E8"/>
</radialGradient>
<radialGradient id="paint14_radial_0_1" cx="0" cy="0" r="1" gradientUnits="userSpaceOnUse" gradientTransform="translate(744.431 525.991) scale(577.757 577.706)">
<stop offset="0.12" stop-color="#FF136F"/>
<stop offset="0.31" stop-color="#C3478F"/>
<stop offset="0.55" stop-color="#7C85B5"/>
<stop offset="0.76" stop-color="#48B2D0"/>
<stop offset="0.91" stop-color="#28CEE2"/>
<stop offset="1" stop-color="#1CD9E8"/>
</radialGradient>
<radialGradient id="paint15_radial_0_1" cx="0" cy="0" r="1" gradientUnits="userSpaceOnUse" gradientTransform="translate(744.432 525.991) scale(577.757 577.706)">
<stop offset="0.12" stop-color="#FF136F"/>
<stop offset="0.31" stop-color="#C3478F"/>
<stop offset="0.55" stop-color="#7C85B5"/>
<stop offset="0.76" stop-color="#48B2D0"/>
<stop offset="0.91" stop-color="#28CEE2"/>
<stop offset="1" stop-color="#1CD9E8"/>
</radialGradient>
<radialGradient id="paint16_radial_0_1" cx="0" cy="0" r="1" gradientUnits="userSpaceOnUse" gradientTransform="translate(744.432 525.992) scale(577.757 577.706)">
<stop offset="0.12" stop-color="#FF136F"/>
<stop offset="0.31" stop-color="#C3478F"/>
<stop offset="0.55" stop-color="#7C85B5"/>
<stop offset="0.76" stop-color="#48B2D0"/>
<stop offset="0.91" stop-color="#28CEE2"/>
<stop offset="1" stop-color="#1CD9E8"/>
</radialGradient>
<radialGradient id="paint17_radial_0_1" cx="0" cy="0" r="1" gradientUnits="userSpaceOnUse" gradientTransform="translate(744.432 525.991) scale(577.757 577.706)">
<stop offset="0.12" stop-color="#FF136F"/>
<stop offset="0.31" stop-color="#C3478F"/>
<stop offset="0.55" stop-color="#7C85B5"/>
<stop offset="0.76" stop-color="#48B2D0"/>
<stop offset="0.91" stop-color="#28CEE2"/>
<stop offset="1" stop-color="#1CD9E8"/>
</radialGradient>
<radialGradient id="paint18_radial_0_1" cx="0" cy="0" r="1" gradientUnits="userSpaceOnUse" gradientTransform="translate(744.432 525.991) scale(577.757 577.706)">
<stop offset="0.12" stop-color="#FF136F"/>
<stop offset="0.31" stop-color="#C3478F"/>
<stop offset="0.55" stop-color="#7C85B5"/>
<stop offset="0.76" stop-color="#48B2D0"/>
<stop offset="0.91" stop-color="#28CEE2"/>
<stop offset="1" stop-color="#1CD9E8"/>
</radialGradient>
<radialGradient id="paint19_radial_0_1" cx="0" cy="0" r="1" gradientUnits="userSpaceOnUse" gradientTransform="translate(744.432 525.991) scale(577.757 577.706)">
<stop offset="0.12" stop-color="#FF136F"/>
<stop offset="0.31" stop-color="#C3478F"/>
<stop offset="0.55" stop-color="#7C85B5"/>
<stop offset="0.76" stop-color="#48B2D0"/>
<stop offset="0.91" stop-color="#28CEE2"/>
<stop offset="1" stop-color="#1CD9E8"/>
</radialGradient>
<radialGradient id="paint20_radial_0_1" cx="0" cy="0" r="1" gradientUnits="userSpaceOnUse" gradientTransform="translate(744.432 525.991) scale(577.757 577.706)">
<stop offset="0.12" stop-color="#FF136F"/>
<stop offset="0.31" stop-color="#C3478F"/>
<stop offset="0.55" stop-color="#7C85B5"/>
<stop offset="0.76" stop-color="#48B2D0"/>
<stop offset="0.91" stop-color="#28CEE2"/>
<stop offset="1" stop-color="#1CD9E8"/>
</radialGradient>
<radialGradient id="paint21_radial_0_1" cx="0" cy="0" r="1" gradientUnits="userSpaceOnUse" gradientTransform="translate(744.432 525.991) scale(577.757 577.706)">
<stop offset="0.12" stop-color="#FF136F"/>
<stop offset="0.31" stop-color="#C3478F"/>
<stop offset="0.55" stop-color="#7C85B5"/>
<stop offset="0.76" stop-color="#48B2D0"/>
<stop offset="0.91" stop-color="#28CEE2"/>
<stop offset="1" stop-color="#1CD9E8"/>
</radialGradient>
<radialGradient id="paint22_radial_0_1" cx="0" cy="0" r="1" gradientUnits="userSpaceOnUse" gradientTransform="translate(744.432 525.991) scale(577.757 577.706)">
<stop offset="0.12" stop-color="#FF136F"/>
<stop offset="0.31" stop-color="#C3478F"/>
<stop offset="0.55" stop-color="#7C85B5"/>
<stop offset="0.76" stop-color="#48B2D0"/>
<stop offset="0.91" stop-color="#28CEE2"/>
<stop offset="1" stop-color="#1CD9E8"/>
</radialGradient>
<radialGradient id="paint23_radial_0_1" cx="0" cy="0" r="1" gradientUnits="userSpaceOnUse" gradientTransform="translate(744.431 525.992) scale(577.757 577.707)">
<stop offset="0.12" stop-color="#FF136F"/>
<stop offset="0.31" stop-color="#C3478F"/>
<stop offset="0.55" stop-color="#7C85B5"/>
<stop offset="0.76" stop-color="#48B2D0"/>
<stop offset="0.91" stop-color="#28CEE2"/>
<stop offset="1" stop-color="#1CD9E8"/>
</radialGradient>
<radialGradient id="paint24_radial_0_1" cx="0" cy="0" r="1" gradientUnits="userSpaceOnUse" gradientTransform="translate(744.432 525.991) scale(577.757 577.706)">
<stop offset="0.12" stop-color="#FF136F"/>
<stop offset="0.31" stop-color="#C3478F"/>
<stop offset="0.55" stop-color="#7C85B5"/>
<stop offset="0.76" stop-color="#48B2D0"/>
<stop offset="0.91" stop-color="#28CEE2"/>
<stop offset="1" stop-color="#1CD9E8"/>
</radialGradient>
<radialGradient id="paint25_radial_0_1" cx="0" cy="0" r="1" gradientUnits="userSpaceOnUse" gradientTransform="translate(744.431 525.991) scale(577.757 577.707)">
<stop offset="0.12" stop-color="#FF136F"/>
<stop offset="0.31" stop-color="#C3478F"/>
<stop offset="0.55" stop-color="#7C85B5"/>
<stop offset="0.76" stop-color="#48B2D0"/>
<stop offset="0.91" stop-color="#28CEE2"/>
<stop offset="1" stop-color="#1CD9E8"/>
</radialGradient>
<radialGradient id="paint26_radial_0_1" cx="0" cy="0" r="1" gradientUnits="userSpaceOnUse" gradientTransform="translate(744.432 525.991) scale(577.757 577.706)">
<stop offset="0.12" stop-color="#FF136F"/>
<stop offset="0.31" stop-color="#C3478F"/>
<stop offset="0.55" stop-color="#7C85B5"/>
<stop offset="0.76" stop-color="#48B2D0"/>
<stop offset="0.91" stop-color="#28CEE2"/>
<stop offset="1" stop-color="#1CD9E8"/>
</radialGradient>
<radialGradient id="paint27_radial_0_1" cx="0" cy="0" r="1" gradientUnits="userSpaceOnUse" gradientTransform="translate(744.432 525.991) scale(577.757 577.707)">
<stop offset="0.12" stop-color="#FF136F"/>
<stop offset="0.31" stop-color="#C3478F"/>
<stop offset="0.55" stop-color="#7C85B5"/>
<stop offset="0.76" stop-color="#48B2D0"/>
<stop offset="0.91" stop-color="#28CEE2"/>
<stop offset="1" stop-color="#1CD9E8"/>
</radialGradient>
<radialGradient id="paint28_radial_0_1" cx="0" cy="0" r="1" gradientUnits="userSpaceOnUse" gradientTransform="translate(744.432 525.991) scale(577.757 577.706)">
<stop offset="0.12" stop-color="#FF136F"/>
<stop offset="0.31" stop-color="#C3478F"/>
<stop offset="0.55" stop-color="#7C85B5"/>
<stop offset="0.76" stop-color="#48B2D0"/>
<stop offset="0.91" stop-color="#28CEE2"/>
<stop offset="1" stop-color="#1CD9E8"/>
</radialGradient>
<radialGradient id="paint29_radial_0_1" cx="0" cy="0" r="1" gradientUnits="userSpaceOnUse" gradientTransform="translate(744.431 525.991) scale(577.757 577.707)">
<stop offset="0.12" stop-color="#FF136F"/>
<stop offset="0.31" stop-color="#C3478F"/>
<stop offset="0.55" stop-color="#7C85B5"/>
<stop offset="0.76" stop-color="#48B2D0"/>
<stop offset="0.91" stop-color="#28CEE2"/>
<stop offset="1" stop-color="#1CD9E8"/>
</radialGradient>
<radialGradient id="paint30_radial_0_1" cx="0" cy="0" r="1" gradientUnits="userSpaceOnUse" gradientTransform="translate(744.432 525.991) scale(577.757 577.706)">
<stop offset="0.12" stop-color="#FF136F"/>
<stop offset="0.31" stop-color="#C3478F"/>
<stop offset="0.55" stop-color="#7C85B5"/>
<stop offset="0.76" stop-color="#48B2D0"/>
<stop offset="0.91" stop-color="#28CEE2"/>
<stop offset="1" stop-color="#1CD9E8"/>
</radialGradient>
<radialGradient id="paint31_radial_0_1" cx="0" cy="0" r="1" gradientUnits="userSpaceOnUse" gradientTransform="translate(744.432 525.991) scale(577.757 577.706)">
<stop offset="0.12" stop-color="#FF136F"/>
<stop offset="0.31" stop-color="#C3478F"/>
<stop offset="0.55" stop-color="#7C85B5"/>
<stop offset="0.76" stop-color="#48B2D0"/>
<stop offset="0.91" stop-color="#28CEE2"/>
<stop offset="1" stop-color="#1CD9E8"/>
</radialGradient>
<radialGradient id="paint32_radial_0_1" cx="0" cy="0" r="1" gradientUnits="userSpaceOnUse" gradientTransform="translate(744.432 525.991) scale(577.757 577.707)">
<stop offset="0.12" stop-color="#FF136F"/>
<stop offset="0.31" stop-color="#C3478F"/>
<stop offset="0.55" stop-color="#7C85B5"/>
<stop offset="0.76" stop-color="#48B2D0"/>
<stop offset="0.91" stop-color="#28CEE2"/>
<stop offset="1" stop-color="#1CD9E8"/>
</radialGradient>
<radialGradient id="paint33_radial_0_1" cx="0" cy="0" r="1" gradientUnits="userSpaceOnUse" gradientTransform="translate(744.432 525.991) scale(577.757 577.706)">
<stop offset="0.12" stop-color="#FF136F"/>
<stop offset="0.31" stop-color="#C3478F"/>
<stop offset="0.55" stop-color="#7C85B5"/>
<stop offset="0.76" stop-color="#48B2D0"/>
<stop offset="0.91" stop-color="#28CEE2"/>
<stop offset="1" stop-color="#1CD9E8"/>
</radialGradient>
<radialGradient id="paint34_radial_0_1" cx="0" cy="0" r="1" gradientUnits="userSpaceOnUse" gradientTransform="translate(744.432 525.991) scale(577.757 577.706)">
<stop offset="0.12" stop-color="#FF136F"/>
<stop offset="0.31" stop-color="#C3478F"/>
<stop offset="0.55" stop-color="#7C85B5"/>
<stop offset="0.76" stop-color="#48B2D0"/>
<stop offset="0.91" stop-color="#28CEE2"/>
<stop offset="1" stop-color="#1CD9E8"/>
</radialGradient>
<radialGradient id="paint35_radial_0_1" cx="0" cy="0" r="1" gradientUnits="userSpaceOnUse" gradientTransform="translate(744.432 525.992) scale(577.757 577.706)">
<stop offset="0.12" stop-color="#FF136F"/>
<stop offset="0.31" stop-color="#C3478F"/>
<stop offset="0.55" stop-color="#7C85B5"/>
<stop offset="0.76" stop-color="#48B2D0"/>
<stop offset="0.91" stop-color="#28CEE2"/>
<stop offset="1" stop-color="#1CD9E8"/>
</radialGradient>
<radialGradient id="paint36_radial_0_1" cx="0" cy="0" r="1" gradientUnits="userSpaceOnUse" gradientTransform="translate(744.432 525.992) scale(577.757 577.706)">
<stop offset="0.12" stop-color="#FF136F"/>
<stop offset="0.31" stop-color="#C3478F"/>
<stop offset="0.55" stop-color="#7C85B5"/>
<stop offset="0.76" stop-color="#48B2D0"/>
<stop offset="0.91" stop-color="#28CEE2"/>
<stop offset="1" stop-color="#1CD9E8"/>
</radialGradient>
<radialGradient id="paint37_radial_0_1" cx="0" cy="0" r="1" gradientUnits="userSpaceOnUse" gradientTransform="translate(744.432 525.991) scale(577.757 577.707)">
<stop offset="0.12" stop-color="#FF136F"/>
<stop offset="0.31" stop-color="#C3478F"/>
<stop offset="0.55" stop-color="#7C85B5"/>
<stop offset="0.76" stop-color="#48B2D0"/>
<stop offset="0.91" stop-color="#28CEE2"/>
<stop offset="1" stop-color="#1CD9E8"/>
</radialGradient>
<radialGradient id="paint38_radial_0_1" cx="0" cy="0" r="1" gradientUnits="userSpaceOnUse" gradientTransform="translate(744.431 525.992) scale(577.757 577.706)">
<stop offset="0.12" stop-color="#FF136F"/>
<stop offset="0.31" stop-color="#C3478F"/>
<stop offset="0.55" stop-color="#7C85B5"/>
<stop offset="0.76" stop-color="#48B2D0"/>
<stop offset="0.91" stop-color="#28CEE2"/>
<stop offset="1" stop-color="#1CD9E8"/>
</radialGradient>
<radialGradient id="paint39_radial_0_1" cx="0" cy="0" r="1" gradientUnits="userSpaceOnUse" gradientTransform="translate(744.432 525.992) scale(577.757 577.706)">
<stop offset="0.12" stop-color="#FF136F"/>
<stop offset="0.31" stop-color="#C3478F"/>
<stop offset="0.55" stop-color="#7C85B5"/>
<stop offset="0.76" stop-color="#48B2D0"/>
<stop offset="0.91" stop-color="#28CEE2"/>
<stop offset="1" stop-color="#1CD9E8"/>
</radialGradient>
<radialGradient id="paint40_radial_0_1" cx="0" cy="0" r="1" gradientUnits="userSpaceOnUse" gradientTransform="translate(744.432 525.991) scale(577.757 577.706)">
<stop offset="0.12" stop-color="#FF136F"/>
<stop offset="0.31" stop-color="#C3478F"/>
<stop offset="0.55" stop-color="#7C85B5"/>
<stop offset="0.76" stop-color="#48B2D0"/>
<stop offset="0.91" stop-color="#28CEE2"/>
<stop offset="1" stop-color="#1CD9E8"/>
</radialGradient>
<radialGradient id="paint41_radial_0_1" cx="0" cy="0" r="1" gradientUnits="userSpaceOnUse" gradientTransform="translate(744.432 525.992) scale(577.757 577.706)">
<stop offset="0.12" stop-color="#FF136F"/>
<stop offset="0.31" stop-color="#C3478F"/>
<stop offset="0.55" stop-color="#7C85B5"/>
<stop offset="0.76" stop-color="#48B2D0"/>
<stop offset="0.91" stop-color="#28CEE2"/>
<stop offset="1" stop-color="#1CD9E8"/>
</radialGradient>
<radialGradient id="paint42_radial_0_1" cx="0" cy="0" r="1" gradientUnits="userSpaceOnUse" gradientTransform="translate(744.432 525.991) scale(577.757 577.707)">
<stop offset="0.12" stop-color="#FF136F"/>
<stop offset="0.31" stop-color="#C3478F"/>
<stop offset="0.55" stop-color="#7C85B5"/>
<stop offset="0.76" stop-color="#48B2D0"/>
<stop offset="0.91" stop-color="#28CEE2"/>
<stop offset="1" stop-color="#1CD9E8"/>
</radialGradient>
<radialGradient id="paint43_radial_0_1" cx="0" cy="0" r="1" gradientUnits="userSpaceOnUse" gradientTransform="translate(744.432 525.991) scale(577.757 577.706)">
<stop offset="0.12" stop-color="#FF136F"/>
<stop offset="0.31" stop-color="#C3478F"/>
<stop offset="0.55" stop-color="#7C85B5"/>
<stop offset="0.76" stop-color="#48B2D0"/>
<stop offset="0.91" stop-color="#28CEE2"/>
<stop offset="1" stop-color="#1CD9E8"/>
</radialGradient>
<radialGradient id="paint44_radial_0_1" cx="0" cy="0" r="1" gradientUnits="userSpaceOnUse" gradientTransform="translate(744.432 525.991) scale(577.757 577.706)">
<stop offset="0.12" stop-color="#FF136F"/>
<stop offset="0.31" stop-color="#C3478F"/>
<stop offset="0.55" stop-color="#7C85B5"/>
<stop offset="0.76" stop-color="#48B2D0"/>
<stop offset="0.91" stop-color="#28CEE2"/>
<stop offset="1" stop-color="#1CD9E8"/>
</radialGradient>
<radialGradient id="paint45_radial_0_1" cx="0" cy="0" r="1" gradientUnits="userSpaceOnUse" gradientTransform="translate(744.432 525.992) scale(577.757 577.706)">
<stop offset="0.12" stop-color="#FF136F"/>
<stop offset="0.31" stop-color="#C3478F"/>
<stop offset="0.55" stop-color="#7C85B5"/>
<stop offset="0.76" stop-color="#48B2D0"/>
<stop offset="0.91" stop-color="#28CEE2"/>
<stop offset="1" stop-color="#1CD9E8"/>
</radialGradient>
<radialGradient id="paint46_radial_0_1" cx="0" cy="0" r="1" gradientUnits="userSpaceOnUse" gradientTransform="translate(744.432 525.991) scale(577.757 577.706)">
<stop offset="0.12" stop-color="#FF136F"/>
<stop offset="0.31" stop-color="#C3478F"/>
<stop offset="0.55" stop-color="#7C85B5"/>
<stop offset="0.76" stop-color="#48B2D0"/>
<stop offset="0.91" stop-color="#28CEE2"/>
<stop offset="1" stop-color="#1CD9E8"/>
</radialGradient>
<radialGradient id="paint47_radial_0_1" cx="0" cy="0" r="1" gradientUnits="userSpaceOnUse" gradientTransform="translate(744.432 525.991) scale(577.757 577.706)">
<stop offset="0.12" stop-color="#FF136F"/>
<stop offset="0.31" stop-color="#C3478F"/>
<stop offset="0.55" stop-color="#7C85B5"/>
<stop offset="0.76" stop-color="#48B2D0"/>
<stop offset="0.91" stop-color="#28CEE2"/>
<stop offset="1" stop-color="#1CD9E8"/>
</radialGradient>
<radialGradient id="paint48_radial_0_1" cx="0" cy="0" r="1" gradientUnits="userSpaceOnUse" gradientTransform="translate(744.432 525.992) scale(577.757 577.706)">
<stop offset="0.12" stop-color="#FF136F"/>
<stop offset="0.31" stop-color="#C3478F"/>
<stop offset="0.55" stop-color="#7C85B5"/>
<stop offset="0.76" stop-color="#48B2D0"/>
<stop offset="0.91" stop-color="#28CEE2"/>
<stop offset="1" stop-color="#1CD9E8"/>
</radialGradient>
</defs>
</svg>
