<svg width="24" height="24" viewBox="0 0 24 24" fill="none" xmlns="http://www.w3.org/2000/svg">
<path d="M2.5 11.9998C2.5 7.5215 2.5 5.28233 3.89124 3.89109C5.28249 2.49985 7.52166 2.49985 12 2.49985C16.4783 2.49985 18.7175 2.49985 20.1088 3.89109C21.5 5.28233 21.5 7.5215 21.5 11.9998C21.5 16.4782 21.5 18.7174 20.1088 20.1086C18.7175 21.4998 16.4783 21.4998 12 21.4998C7.52166 21.4998 5.28249 21.4998 3.89124 20.1086C2.5 18.7174 2.5 16.4782 2.5 11.9998Z" stroke="#FA262A" stroke-width="1.5"/>
<path d="M16.25 16C16.25 16.4142 16.5858 16.75 17 16.75C17.4142 16.75 17.75 16.4142 17.75 16H16.25ZM17.75 8C17.75 7.58579 17.4142 7.25 17 7.25C16.5858 7.25 16.25 7.58579 16.25 8H17.75ZM12.3378 8.96087C12.0401 8.67292 11.5653 8.68086 11.2773 8.97862C10.9894 9.27637 10.9973 9.75118 11.2951 10.0391L12.3378 8.96087ZM13.0306 10.6742L13.552 10.135L13.552 10.135L13.0306 10.6742ZM13.0306 13.3258L13.552 13.865L13.552 13.865L13.0306 13.3258ZM11.2951 13.9609C10.9973 14.2488 10.9894 14.7236 11.2773 15.0214C11.5653 15.3191 12.0401 15.3271 12.3378 15.0391L11.2951 13.9609ZM7 11.25C6.58579 11.25 6.25 11.5858 6.25 12C6.25 12.4142 6.58579 12.75 7 12.75L7 11.25ZM17.75 16V8H16.25V16H17.75ZM11.2951 10.0391L12.5092 11.2133L13.552 10.135L12.3378 8.96087L11.2951 10.0391ZM12.5092 12.7867L11.2951 13.9609L12.3378 15.0391L13.552 13.865L12.5092 12.7867ZM12.5092 11.2133C12.8478 11.5407 13.0459 11.7346 13.1688 11.8904C13.279 12.03 13.25 12.0436 13.25 12H14.75C14.75 11.5681 14.5595 11.2313 14.3465 10.9613C14.1462 10.7075 13.8597 10.4326 13.552 10.135L12.5092 11.2133ZM13.552 13.865C13.8597 13.5674 14.1462 13.2925 14.3465 13.0387C14.5595 12.7687 14.75 12.4319 14.75 12H13.25C13.25 11.9564 13.279 11.97 13.1688 12.1096C13.0459 12.2654 12.8478 12.4593 12.5092 12.7867L13.552 13.865ZM14 11.25L7 11.25L7 12.75H14V11.25Z" fill="#FA262A"/>
</svg>
