<svg width="48" height="48" viewBox="0 0 48 48" fill="none" xmlns="http://www.w3.org/2000/svg">
<path d="M22.5 33.75H20.25V36.75H27.75V33.75H25.5H22.5Z" fill="#58595B"/>
<path d="M20.25 36.75H27.75V39.75H20.25V36.75Z" fill="#6D6E71"/>
<path d="M20.25 41.25C20.25 41.6478 20.408 42.0294 20.6893 42.3107C20.9706 42.592 21.3522 42.75 21.75 42.75H26.25C26.6478 42.75 27.0294 42.592 27.3107 42.3107C27.592 42.0294 27.75 41.6478 27.75 41.25V39.75H20.25V41.25Z" fill="#808285"/>
<path d="M21.75 43.5C21.75 44.0967 21.9871 44.669 22.409 45.091C22.831 45.5129 23.4033 45.75 24 45.75C24.5967 45.75 25.169 45.5129 25.591 45.091C26.0129 44.669 26.25 44.0967 26.25 43.5V42.75H21.75V43.5Z" fill="#A7A9AC"/>
<path d="M24.6072 6.76509C21.967 6.63153 19.3566 7.37356 17.1813 8.87593C15.0061 10.3783 13.3879 12.5569 12.578 15.0734C11.7681 17.5899 11.8119 20.3034 12.7025 22.7925C13.5931 25.2816 15.2807 27.4069 17.5032 28.8383C18.1216 29.2447 18.6284 29.7995 18.9773 30.452C19.3262 31.1046 19.506 31.8341 19.5005 32.5741V33.0001C19.5005 33.199 19.5795 33.3898 19.7202 33.5304C19.8608 33.6711 20.0516 33.7501 20.2505 33.7501H27.7505C27.9494 33.7501 28.1402 33.6711 28.2808 33.5304C28.4215 33.3898 28.5005 33.199 28.5005 33.0001V32.4946C28.5112 31.7511 28.7074 31.0221 29.0713 30.3737C29.4351 29.7253 29.9551 29.1779 30.584 28.7813C32.6996 27.3925 34.3221 25.3704 35.2193 23.004C36.1165 20.6376 36.2426 18.0482 35.5796 15.6058C34.9166 13.1634 33.4983 10.9932 31.5277 9.40537C29.557 7.81755 27.1347 6.89341 24.6072 6.76509Z" fill="#FFDAAA"/>
<path d="M21.0005 33.0001V32.5741C21.006 31.8341 20.8262 31.1046 20.4773 30.452C20.1284 29.7995 19.6216 29.2447 19.0032 28.8383C16.8807 27.4697 15.2441 25.4662 14.3265 23.1132C13.4089 20.7603 13.2571 18.1778 13.8926 15.7335C14.5282 13.2893 15.9187 11.1078 17.8662 9.49984C19.8137 7.89185 22.2189 6.93931 24.7392 6.77784C24.695 6.77784 24.6515 6.76734 24.6072 6.76509C21.967 6.63153 19.3566 7.37356 17.1813 8.87593C15.0061 10.3783 13.3879 12.5569 12.578 15.0734C11.7681 17.5899 11.8119 20.3034 12.7025 22.7925C13.5931 25.2816 15.2807 27.4069 17.5032 28.8383C18.1216 29.2447 18.6284 29.7995 18.9773 30.452C19.3262 31.1046 19.506 31.8341 19.5005 32.5741V33.0001C19.5005 33.199 19.5795 33.3898 19.7202 33.5304C19.8608 33.6711 20.0516 33.7501 20.2505 33.7501H21.7505C21.5516 33.7501 21.3608 33.6711 21.2202 33.5304C21.0795 33.3898 21.0005 33.199 21.0005 33.0001Z" fill="#FFB655"/>
<path d="M24 27C23.4967 26.9981 22.9946 26.9504 22.5 26.8575V33.75H25.5V26.8575C25.0054 26.9504 24.5033 26.9981 24 27Z" fill="#FF6243"/>
<path d="M24 10.5C22.3683 10.5 20.7733 10.9839 19.4165 11.8904C18.0598 12.7969 17.0024 14.0854 16.378 15.5929C15.7536 17.1004 15.5902 18.7592 15.9085 20.3595C16.2269 21.9598 17.0126 23.4298 18.1664 24.5836C19.3202 25.7374 20.7902 26.5232 22.3905 26.8415C23.9909 27.1598 25.6497 26.9964 27.1571 26.372C28.6646 25.7476 29.9531 24.6902 30.8596 23.3335C31.7661 21.9767 32.25 20.3817 32.25 18.75C32.25 16.562 31.3808 14.4635 29.8336 12.9164C28.2865 11.3692 26.188 10.5 24 10.5Z" fill="#FF9811"/>
<path d="M24.0004 25.4999C22.2557 25.5076 20.5752 24.8424 19.3084 23.6428C18.0416 22.4431 17.2861 20.8012 17.1989 19.0587C17.1117 17.3162 17.6996 15.6072 18.8404 14.287C19.9811 12.9669 21.5868 12.1374 23.3235 11.9709C25.0603 11.8044 26.7943 12.3139 28.1651 13.3933C29.5358 14.4727 30.4376 16.0389 30.683 17.7663C30.9284 19.4936 30.4985 21.2491 29.4827 22.6676C28.4668 24.086 26.9433 25.0583 25.2289 25.3821C24.8239 25.459 24.4126 25.4984 24.0004 25.4999Z" fill="#FFA733"/>
<path d="M21 21.7499C20.8011 21.7499 20.6104 21.6709 20.4698 21.5302L18.2198 19.2802C18.0792 19.1395 18.0002 18.9488 18.0002 18.7499C18.0002 18.5511 18.0792 18.3603 18.2198 18.2197L20.4698 15.9697C20.6112 15.8331 20.8007 15.7575 20.9973 15.7592C21.194 15.7609 21.3821 15.8398 21.5211 15.9788C21.6602 16.1179 21.7391 16.306 21.7408 16.5026C21.7425 16.6993 21.6669 16.8887 21.5303 17.0302L19.8105 18.7499L21.5303 20.4697C21.6351 20.5746 21.7065 20.7082 21.7355 20.8537C21.7644 20.9991 21.7495 21.1499 21.6928 21.2869C21.636 21.424 21.5399 21.5411 21.4166 21.6235C21.2933 21.7059 21.1483 21.7499 21 21.7499Z" fill="#F1F2F2"/>
<path d="M27 21.7499C26.8517 21.7499 26.7067 21.7059 26.5834 21.6235C26.4601 21.5411 26.364 21.424 26.3073 21.2869C26.2505 21.1499 26.2357 20.9991 26.2646 20.8537C26.2935 20.7082 26.3649 20.5746 26.4698 20.4697L28.1895 18.7499L26.4698 17.0302C26.3332 16.8887 26.2576 16.6993 26.2593 16.5026C26.261 16.306 26.3399 16.1179 26.4789 15.9788C26.618 15.8398 26.8061 15.7609 27.0027 15.7592C27.1994 15.7575 27.3888 15.8331 27.5303 15.9697L29.7803 18.2197C29.9209 18.3603 29.9999 18.5511 29.9999 18.7499C29.9999 18.9488 29.9209 19.1395 29.7803 19.2802L27.5303 21.5302C27.3897 21.6709 27.1989 21.7499 27 21.7499Z" fill="#F1F2F2"/>
<path d="M23.2498 22.4999C23.188 22.5002 23.1266 22.4926 23.0668 22.4774C22.8738 22.4291 22.708 22.3061 22.6057 22.1355C22.5035 21.9649 22.4732 21.7606 22.5215 21.5677L24.0215 15.5677C24.071 15.376 24.1943 15.2116 24.3644 15.1104C24.5346 15.0093 24.7379 14.9795 24.93 15.0276C25.122 15.0757 25.2872 15.1978 25.3896 15.3673C25.492 15.5367 25.5232 15.7398 25.4765 15.9322L23.9765 21.9322C23.9359 22.0942 23.8424 22.2381 23.7107 22.341C23.579 22.4438 23.4168 22.4998 23.2498 22.4999Z" fill="#F1F2F2"/>
<path d="M24 4.5C23.8011 4.5 23.6103 4.42098 23.4697 4.28033C23.329 4.13968 23.25 3.94891 23.25 3.75V2.25C23.25 2.05109 23.329 1.86032 23.4697 1.71967C23.6103 1.57902 23.8011 1.5 24 1.5C24.1989 1.5 24.3897 1.57902 24.5303 1.71967C24.671 1.86032 24.75 2.05109 24.75 2.25V3.75C24.75 3.94891 24.671 4.13968 24.5303 4.28033C24.3897 4.42098 24.1989 4.5 24 4.5Z" fill="#FF5023"/>
<path d="M16.5 6.51004C16.3682 6.51017 16.2387 6.47558 16.1246 6.40975C16.0104 6.34391 15.9156 6.24917 15.8497 6.13504L15.0997 4.83529C15.0018 4.66312 14.976 4.45923 15.0279 4.26809C15.0798 4.07696 15.2052 3.91411 15.3767 3.81509C15.5482 3.71606 15.7519 3.68889 15.9434 3.73951C16.1349 3.79014 16.2986 3.91444 16.3987 4.08529L17.1487 5.38504C17.2145 5.499 17.2492 5.62826 17.2492 5.75985C17.2492 5.89144 17.2147 6.02072 17.1489 6.13471C17.0832 6.2487 16.9886 6.34339 16.8747 6.40927C16.7608 6.47516 16.6316 6.50991 16.5 6.51004Z" fill="#FF5023"/>
<path d="M11.0092 12C10.8776 12.0002 10.7482 11.9656 10.6342 11.8995L9.3345 11.1495C9.16364 11.0493 9.03934 10.8856 8.98872 10.6941C8.9381 10.5027 8.96527 10.299 9.06429 10.1274C9.16332 9.95592 9.32617 9.83054 9.5173 9.77864C9.70843 9.72675 9.91233 9.75257 10.0845 9.85046L11.3842 10.6005C11.5272 10.683 11.639 10.8104 11.7021 10.963C11.7653 11.1155 11.7764 11.2846 11.7337 11.4441C11.6909 11.6035 11.5968 11.7445 11.4658 11.845C11.3348 11.9455 11.1743 11.9999 11.0092 12Z" fill="#FF5023"/>
<path d="M9 19.5H7.5C7.30109 19.5 7.11032 19.421 6.96967 19.2803C6.82902 19.1397 6.75 18.9489 6.75 18.75C6.75 18.5511 6.82902 18.3603 6.96967 18.2197C7.11032 18.079 7.30109 18 7.5 18H9C9.19891 18 9.38968 18.079 9.53033 18.2197C9.67098 18.3603 9.75 18.5511 9.75 18.75C9.75 18.9489 9.67098 19.1397 9.53033 19.2803C9.38968 19.421 9.19891 19.5 9 19.5Z" fill="#FF5023"/>
<path d="M9.71103 27.75C9.54593 27.75 9.38545 27.6956 9.25448 27.5951C9.1235 27.4945 9.02935 27.3536 8.98662 27.1942C8.94389 27.0347 8.95497 26.8656 9.01814 26.7131C9.08132 26.5605 9.19306 26.4331 9.33603 26.3505L10.6358 25.6005C10.7211 25.5505 10.8155 25.5179 10.9135 25.5045C11.0115 25.4911 11.1112 25.4972 11.2068 25.5225C11.3024 25.5478 11.3921 25.5917 11.4707 25.6518C11.5492 25.7119 11.6151 25.7869 11.6646 25.8726C11.7141 25.9582 11.7461 26.0528 11.7588 26.1509C11.7716 26.249 11.7648 26.3486 11.7389 26.4441C11.713 26.5395 11.6684 26.6289 11.6078 26.7071C11.5472 26.7852 11.4718 26.8507 11.3858 26.8995L10.086 27.6495C9.97212 27.7156 9.84272 27.7503 9.71103 27.75Z" fill="#FF5023"/>
<path d="M15.75 33.7897C15.6184 33.7896 15.4892 33.7548 15.3753 33.6889C15.2614 33.6231 15.1668 33.5284 15.1011 33.4144C15.0353 33.3004 15.0008 33.1711 15.0008 33.0395C15.0008 32.9079 15.0355 32.7787 15.1013 32.6647L15.8513 31.365C15.9514 31.1941 16.1151 31.0698 16.3066 31.0192C16.4981 30.9686 16.7018 30.9957 16.8733 31.0947C17.0448 31.1938 17.1702 31.3566 17.2221 31.5478C17.274 31.7389 17.2482 31.9428 17.1503 32.115L16.4003 33.4147C16.3344 33.5288 16.2396 33.6236 16.1254 33.6894C16.0113 33.7552 15.8818 33.7898 15.75 33.7897Z" fill="#FF5023"/>
<path d="M32.2503 33.7897C32.1185 33.7898 31.989 33.7552 31.8749 33.6894C31.7607 33.6235 31.6659 33.5288 31.6001 33.4147L30.8501 32.1149C30.8 32.0296 30.7674 31.9352 30.754 31.8372C30.7406 31.7392 30.7467 31.6395 30.772 31.5439C30.7973 31.4483 30.8412 31.3586 30.9013 31.28C30.9614 31.2014 31.0364 31.1355 31.1221 31.0861C31.2077 31.0366 31.3023 31.0046 31.4004 30.9919C31.4985 30.9791 31.5981 30.9859 31.6936 31.0118C31.789 31.0377 31.8784 31.0823 31.9566 31.1429C32.0348 31.2035 32.1002 31.2789 32.1491 31.3649L32.8991 32.6647C32.9649 32.7786 32.9995 32.9079 32.9995 33.0395C32.9996 33.171 32.965 33.3003 32.8993 33.4143C32.8335 33.5283 32.7389 33.623 32.625 33.6889C32.5111 33.7548 32.3819 33.7895 32.2503 33.7897Z" fill="#FF5023"/>
<path d="M38.2894 27.75C38.1577 27.7503 38.0283 27.7156 37.9144 27.6495L36.6147 26.8995C36.5287 26.8507 36.4532 26.7852 36.3926 26.7071C36.332 26.6289 36.2875 26.5395 36.2616 26.4441C36.2356 26.3486 36.2289 26.249 36.2416 26.1509C36.2544 26.0528 36.2864 25.9582 36.3358 25.8726C36.3853 25.7869 36.4512 25.7119 36.5298 25.6518C36.6083 25.5917 36.698 25.5478 36.7937 25.5225C36.8893 25.4972 36.989 25.4911 37.087 25.5045C37.185 25.5179 37.2793 25.5505 37.3647 25.6005L38.6644 26.3505C38.8074 26.4331 38.9191 26.5605 38.9823 26.7131C39.0455 26.8656 39.0565 27.0347 39.0138 27.1942C38.9711 27.3536 38.8769 27.4945 38.746 27.5951C38.615 27.6956 38.4545 27.75 38.2894 27.75Z" fill="#FF5023"/>
<path d="M40.5 19.5H39C38.8011 19.5 38.6103 19.421 38.4697 19.2803C38.329 19.1397 38.25 18.9489 38.25 18.75C38.25 18.5511 38.329 18.3603 38.4697 18.2197C38.6103 18.079 38.8011 18 39 18H40.5C40.6989 18 40.8897 18.079 41.0303 18.2197C41.171 18.3603 41.25 18.5511 41.25 18.75C41.25 18.9489 41.171 19.1397 41.0303 19.2803C40.8897 19.421 40.6989 19.5 40.5 19.5Z" fill="#FF5023"/>
<path d="M36.9912 12C36.8261 11.9999 36.6656 11.9455 36.5346 11.845C36.4037 11.7445 36.3095 11.6035 36.2668 11.4441C36.224 11.2846 36.2351 11.1155 36.2983 10.963C36.3615 10.8104 36.4732 10.683 36.6162 10.6005L37.9159 9.85046C38.0881 9.75257 38.292 9.72675 38.4831 9.77864C38.6743 9.83054 38.8371 9.95592 38.9361 10.1274C39.0352 10.299 39.0623 10.5027 39.0117 10.6941C38.9611 10.8856 38.8368 11.0493 38.6659 11.1495L37.3662 11.8995C37.2523 11.9656 37.1229 12.0002 36.9912 12Z" fill="#FF5023"/>
<path d="M31.5 6.51004C31.3684 6.50991 31.2392 6.47516 31.1253 6.40927C31.0114 6.34339 30.9168 6.2487 30.8511 6.13471C30.7853 6.02072 30.7508 5.89144 30.7508 5.75985C30.7508 5.62826 30.7855 5.499 30.8513 5.38504L31.6013 4.08529C31.7014 3.91444 31.8651 3.79014 32.0566 3.73951C32.2481 3.68889 32.4518 3.71606 32.6233 3.81509C32.7948 3.91411 32.9202 4.07696 32.9721 4.26809C33.024 4.45923 32.9982 4.66312 32.9003 4.83529L32.1503 6.13504C32.0844 6.24917 31.9896 6.34391 31.8754 6.40975C31.7613 6.47558 31.6318 6.51017 31.5 6.51004Z" fill="#FF5023"/>
</svg>
