<svg width="32" height="32" viewBox="0 0 32 32" fill="none" xmlns="http://www.w3.org/2000/svg">
<path d="M29.3337 14.7732V15.9999C29.332 18.8751 28.401 21.6728 26.6794 23.9757C24.9579 26.2785 22.538 27.9632 19.7808 28.7784C17.0236 29.5937 14.0767 29.4958 11.3796 28.4993C8.68257 27.5029 6.37986 25.6614 4.81494 23.2493C3.25001 20.8373 2.50671 17.984 2.69589 15.115C2.88508 12.246 3.9966 9.515 5.8647 7.32933C7.7328 5.14366 10.2574 3.62041 13.0619 2.98676C15.8664 2.35311 18.8007 2.64302 21.427 3.81323" stroke="url(#paint0_linear_211_6157)" stroke-width="2" stroke-linecap="round" stroke-linejoin="round"/>
<path d="M29.3333 5.33337L16 18.68L12 14.68" stroke="url(#paint1_linear_211_6157)" stroke-width="2" stroke-linecap="round" stroke-linejoin="round"/>
<defs>
<linearGradient id="paint0_linear_211_6157" x1="2.66699" y1="15.9334" x2="29.4042" y2="15.9334" gradientUnits="userSpaceOnUse">
<stop offset="0.0001" stop-color="#54CF68"/>
<stop offset="1" stop-color="#00827A"/>
</linearGradient>
<linearGradient id="paint1_linear_211_6157" x1="12" y1="11.9773" x2="29.3792" y2="11.9772" gradientUnits="userSpaceOnUse">
<stop offset="0.0001" stop-color="#54CF68"/>
<stop offset="1" stop-color="#00827A"/>
</linearGradient>
</defs>
</svg>
