<svg width="56" height="56" viewBox="0 0 56 56" fill="none" xmlns="http://www.w3.org/2000/svg">
<g clip-path="url(#clip0_211_6566)">
<path d="M55.1797 26.5567L46.3094 21.6349C45.7843 21.3724 45.1936 21.3724 44.6688 21.6349L41.125 23.637V9.95361H14.875V23.637L11.3311 21.6349C10.8062 21.3724 10.2156 21.3724 9.69052 21.6349L0.820312 26.5567C0.328016 26.8519 0 27.4099 0 28.0005C0 28.5911 0.328016 29.1488 0.820312 29.4442L7.13125 32.9224L23.8984 47.4911H32.1016L48.8687 32.9224L55.1797 29.4442C55.672 29.1488 56 28.5911 56 28.0005C56 27.4099 55.672 26.8519 55.1797 26.5567ZM28 31.052L19.6946 26.3599H36.3053L28 31.052Z" fill="url(#paint0_linear_211_6566)"/>
<path d="M55.1797 36.4005L48.8687 32.9224L28.8203 44.2099C28.5578 44.341 28.2625 44.4067 28 44.4067C27.7375 44.4067 27.4422 44.341 27.1797 44.2099L7.13125 32.9224L0.820312 36.4005C0.328016 36.6957 0 37.2536 0 37.8442C0 38.4349 0.328016 38.9926 0.820312 39.288L27.1797 54.0536C27.4422 54.1848 27.7375 54.2505 28 54.2505C28.2625 54.2505 28.5578 54.1848 28.8203 54.0536L55.1797 39.288C55.672 38.9926 56 38.4349 56 37.8442C56 37.2536 55.672 36.6957 55.1797 36.4005ZM0.820312 19.6005L27.1797 34.3661C27.4422 34.4973 27.7375 34.563 28 34.563C28.2625 34.563 28.5578 34.4973 28.8203 34.3661L55.1797 19.6005C55.672 19.3051 56 18.7474 56 18.1567C56 17.5661 55.672 17.0082 55.1797 16.713L28.8203 1.94736C28.2954 1.68486 27.7046 1.68486 27.1797 1.94736L0.820312 16.713C0.328016 17.0082 0 17.5661 0 18.1567C0 18.7474 0.328016 19.3051 0.820312 19.6005ZM33.4142 16.0238C32.7579 15.4004 32.7579 14.3504 33.4142 13.7269C34.0376 13.0708 35.0875 13.0708 35.7109 13.7269L38.9922 17.0082C39.6484 17.6316 39.6484 18.6816 38.9922 19.3051L35.7109 22.5863C35.1208 23.2426 34.0047 23.2428 33.4142 22.5863C32.7579 21.9629 32.7579 20.9129 33.4142 20.2894L35.514 18.1567L33.4142 16.0238ZM25.5719 21.0442L27.2125 14.4817C27.4422 13.5957 28.328 13.0708 29.2141 13.3003C30.1001 13.4971 30.625 14.3832 30.4281 15.2691L28.7875 21.8316C28.5079 22.9034 27.2972 23.2688 26.7859 23.0129C25.9 22.8161 25.375 21.9301 25.5719 21.0442ZM17.0079 17.0082L20.2892 13.7269C20.9126 13.0708 21.9625 13.0708 22.5859 13.7269C23.2422 14.3504 23.2422 15.4004 22.5859 16.0238L20.486 18.1567L22.5858 20.2894C23.2421 20.9129 23.2421 21.9629 22.5858 22.5863C21.9956 23.2426 20.8796 23.2428 20.2891 22.5863L17.0078 19.3051C16.3516 18.6816 16.3516 17.6316 17.0079 17.0082Z" fill="url(#paint1_linear_211_6566)"/>
</g>
<defs>
<linearGradient id="paint0_linear_211_6566" x1="28" y1="47.4911" x2="28" y2="9.95361" gradientUnits="userSpaceOnUse">
<stop stop-color="#ADDCFF"/>
<stop offset="0.5028" stop-color="#EAF6FF"/>
<stop offset="1" stop-color="#EAF6FF"/>
</linearGradient>
<linearGradient id="paint1_linear_211_6566" x1="28" y1="54.2505" x2="28" y2="1.75049" gradientUnits="userSpaceOnUse">
<stop stop-color="#5558FF"/>
<stop offset="1" stop-color="#00C0FF"/>
</linearGradient>
<clipPath id="clip0_211_6566">
<rect width="56" height="56" fill="white" transform="translate(0 0.000488281)"/>
</clipPath>
</defs>
</svg>
