<svg width="48" height="48" viewBox="0 0 48 48" fill="none" xmlns="http://www.w3.org/2000/svg">
<path d="M34 4H14C8.47715 4 4 8.47715 4 14V34C4 39.5228 8.47715 44 14 44H34C39.5228 44 44 39.5228 44 34V14C44 8.47715 39.5228 4 34 4Z" fill="url(#paint0_linear_211_6143)"/>
<g opacity="0.9">
<path d="M18 29.5C17.803 29.5001 17.6079 29.4614 17.4258 29.386C17.2438 29.3107 17.0784 29.2003 16.939 29.061L12.939 25.061C12.7996 24.9217 12.689 24.7563 12.6136 24.5742C12.5382 24.3922 12.4993 24.1971 12.4993 24C12.4993 23.8029 12.5382 23.6078 12.6136 23.4257C12.689 23.2437 12.7996 23.0783 12.939 22.939L16.939 18.939C17.2204 18.6576 17.6021 18.4995 18 18.4995C18.398 18.4995 18.7796 18.6576 19.061 18.939C19.3424 19.2204 19.5005 19.602 19.5005 20C19.5005 20.3979 19.3424 20.7796 19.061 21.061L16.121 24L19.061 26.939C19.2709 27.1488 19.4139 27.4161 19.4718 27.7072C19.5298 27.9982 19.5001 28.2999 19.3865 28.5741C19.2729 28.8483 19.0805 29.0826 18.8337 29.2474C18.5869 29.4122 18.2968 29.5001 18 29.5Z" fill="white"/>
</g>
<g opacity="0.9">
<path d="M30 29.5C29.7032 29.5001 29.4131 29.4122 29.1663 29.2474C28.9195 29.0826 28.7271 28.8483 28.6135 28.5741C28.5 28.2999 28.4703 27.9982 28.5282 27.7072C28.5861 27.4161 28.7291 27.1488 28.939 26.939L31.879 24L28.939 21.061C28.7997 20.9217 28.6892 20.7562 28.6137 20.5742C28.5383 20.3922 28.4995 20.197 28.4995 20C28.4995 19.8029 28.5383 19.6078 28.6137 19.4258C28.6892 19.2437 28.7997 19.0783 28.939 18.939C29.2204 18.6576 29.6021 18.4995 30 18.4995C30.1971 18.4995 30.3922 18.5383 30.5742 18.6137C30.7563 18.6891 30.9217 18.7997 31.061 18.939L35.061 22.939C35.2004 23.0783 35.311 23.2437 35.3864 23.4257C35.4619 23.6078 35.5007 23.8029 35.5007 24C35.5007 24.1971 35.4619 24.3922 35.3864 24.5742C35.311 24.7563 35.2004 24.9217 35.061 25.061L31.061 29.061C30.9217 29.2003 30.7562 29.3107 30.5742 29.386C30.3921 29.4614 30.197 29.5001 30 29.5Z" fill="white"/>
</g>
<g opacity="0.5">
<path d="M22 32.5C21.8603 32.4998 21.7214 32.4803 21.587 32.442C21.2046 32.3327 20.8813 32.076 20.6882 31.7283C20.495 31.3806 20.4478 30.9705 20.557 30.588L24.557 16.588C24.608 16.3952 24.6969 16.2144 24.8186 16.0563C24.9403 15.8982 25.0923 15.766 25.2657 15.6674C25.4392 15.5688 25.6305 15.5057 25.8286 15.482C26.0267 15.4582 26.2275 15.4742 26.4193 15.529C26.6111 15.5838 26.7901 15.6764 26.9457 15.8012C27.1013 15.926 27.2305 16.0806 27.3257 16.2559C27.4208 16.4313 27.48 16.6239 27.4998 16.8224C27.5196 17.0209 27.4996 17.2213 27.441 17.412L23.441 31.412C23.3516 31.7253 23.1625 32.0008 22.9026 32.1971C22.6426 32.3934 22.3258 32.4997 22 32.5Z" fill="white"/>
</g>
<defs>
<linearGradient id="paint0_linear_211_6143" x1="4" y1="23.9117" x2="44.1058" y2="23.9117" gradientUnits="userSpaceOnUse">
<stop offset="0.0001" stop-color="#54CF68"/>
<stop offset="1" stop-color="#00827A"/>
</linearGradient>
</defs>
</svg>
