<svg width="36" height="36" viewBox="0 0 36 36" fill="none" xmlns="http://www.w3.org/2000/svg">
<path d="M18 8.25348C16.2785 8.25352 14.5945 8.75584 13.1543 9.69887C11.7141 10.6419 10.5804 11.9847 9.89213 13.5625C9.20385 15.1404 8.99091 16.8848 9.27942 18.5819C9.56794 20.279 10.3454 21.8551 11.5164 23.1168L10.6014 26.5304C10.5473 26.7319 10.5542 26.9449 10.6212 27.1425C10.6882 27.3401 10.8123 27.5134 10.9778 27.6404C11.1433 27.7675 11.3428 27.8426 11.551 27.8563C11.7592 27.8699 11.9668 27.8215 12.1475 27.7172L15.7271 25.65C16.9434 25.9733 18.2147 26.0334 19.4561 25.8262C20.6975 25.6191 21.8804 25.1494 22.9258 24.4487C23.9712 23.7479 24.855 22.8322 25.5183 21.7626C26.1816 20.693 26.609 19.4942 26.7721 18.2463C26.9351 16.9983 26.83 15.73 26.4638 14.5259C26.0976 13.3218 25.4787 12.2097 24.6484 11.2639C23.8181 10.3181 22.7956 9.5603 21.6491 9.04116C20.5026 8.52203 19.2585 8.25349 18 8.25348Z" fill="#2EC4B6"/>
<path d="M18 8.25348V25.9447C20.346 25.9447 22.5959 25.0128 24.2548 23.3539C25.9137 21.695 26.8456 19.4451 26.8456 17.0991C26.8456 14.7531 25.9137 12.5032 24.2548 10.8443C22.5959 9.18543 20.346 8.25348 18 8.25348Z" fill="#2AB5A4"/>
<path d="M35.4234 17.8505C35.4348 17.4201 35.4467 16.9751 35.427 16.5089C35.3686 15.2119 34.8105 13.9878 33.8697 13.093C32.9289 12.1983 31.6783 11.7024 30.38 11.7092C28.2946 6.93838 23.5307 3.59558 17.9999 3.59558C12.4691 3.59558 7.70526 6.93838 5.62007 11.7092C4.3214 11.7022 3.07046 12.1983 2.12953 13.0935C1.1886 13.9886 0.630758 15.2132 0.572973 16.5107C0.553355 16.9747 0.565238 17.4201 0.576699 17.8505C0.588863 18.3076 0.601449 18.7803 0.578949 19.3102C0.523856 20.6394 0.997824 21.9362 1.89702 22.9166C2.79622 23.897 4.04734 24.481 5.3763 24.5407C5.44985 24.5438 5.52321 24.5454 5.59638 24.5455C6.23186 24.5458 6.86157 24.4248 7.45164 24.1889C7.60163 24.1421 7.73926 24.0625 7.8545 23.9557C7.96973 23.8489 8.05965 23.7177 8.1177 23.5717C8.17574 23.4257 8.20043 23.2686 8.18997 23.1119C8.17951 22.9551 8.13417 22.8027 8.05725 22.6657C7.10518 20.9649 6.60542 19.0483 6.60579 17.0992C6.60579 10.8165 11.7175 5.70503 17.9999 5.70503C24.2823 5.70503 29.3941 10.8167 29.3941 17.0992C29.4019 19.7586 28.4761 22.3364 26.7781 24.3832C25.08 26.43 22.7174 27.8158 20.1023 28.2991C19.8269 27.6756 19.3423 27.1679 18.7322 26.8637C18.1222 26.5596 17.4251 26.4781 16.7614 26.6334C16.0976 26.7888 15.5091 27.1711 15.0973 27.7143C14.6856 28.2576 14.4766 28.9276 14.5065 29.6086C14.5363 30.2896 14.8032 30.9387 15.2609 31.4439C15.7186 31.949 16.3384 32.2783 17.0132 32.3749C17.688 32.4715 18.3753 32.3293 18.9563 31.9729C19.5374 31.6166 19.9757 31.0684 20.1954 30.4231C22.0531 30.1159 23.8262 29.4242 25.4011 28.3923C26.976 27.3603 28.3181 26.0109 29.3413 24.4303C29.6903 24.5066 30.0465 24.5452 30.4038 24.5454C30.4771 24.5454 30.5506 24.5438 30.6243 24.5407C31.9531 24.4808 33.2039 23.8967 34.1029 22.9164C35.0019 21.9362 35.4758 20.6396 35.4208 19.3106C35.3985 18.7805 35.411 18.3077 35.4234 17.8505Z" fill="#2EA8E6"/>
<path d="M35.4235 17.8505C35.435 17.4201 35.4468 16.9751 35.4272 16.5089C35.3675 15.1799 34.7834 13.9288 33.8029 13.0297C32.8224 12.1307 31.5255 11.657 30.1963 11.7124C29.9664 11.7229 29.7375 11.7487 29.5111 11.7898C29.3595 11.8168 29.2156 11.8766 29.0896 11.9651C28.9636 12.0536 28.8585 12.1686 28.7817 12.302C28.7048 12.4355 28.6582 12.5842 28.6449 12.7376C28.6317 12.891 28.6522 13.0454 28.7051 13.1901C29.2666 14.7316 29.4891 16.3761 29.3575 18.0115C29.2258 19.6468 28.7431 21.2345 27.9423 22.6664C27.8655 22.8034 27.8203 22.9558 27.8099 23.1125C27.7996 23.2692 27.8243 23.4262 27.8824 23.5721C27.9405 23.718 28.0304 23.8491 28.1456 23.9558C28.2608 24.0625 28.3984 24.1422 28.5483 24.1889C29.1385 24.4248 29.7683 24.5458 30.4039 24.5454C30.4773 24.5454 30.5508 24.5438 30.6245 24.5407C31.9532 24.4807 33.204 23.8967 34.103 22.9164C35.002 21.9362 35.476 20.6396 35.421 19.3106C35.3986 18.7805 35.4111 18.3077 35.4235 17.8505Z" fill="#176F93"/>
<path d="M28.7141 13.2209C28.7108 13.2107 28.7085 13.1998 28.7048 13.1898C28.652 13.0452 28.6314 12.8907 28.6447 12.7373C28.6579 12.5839 28.7046 12.4352 28.7814 12.3018C28.8582 12.1683 28.9633 12.0533 29.0893 11.9648C29.2153 11.8763 29.3592 11.8165 29.5108 11.7895C29.7372 11.7485 29.9662 11.7226 30.1961 11.7122C30.2576 11.7095 30.3188 11.7094 30.3799 11.7089C28.2947 6.93838 23.5309 3.59565 18 3.59558V5.70496C22.9219 5.70503 27.1242 8.84181 28.7141 13.2209Z" fill="#1794C6"/>
<path d="M8.05725 22.6657C7.25656 21.2338 6.77401 19.6461 6.64249 18.0109C6.51097 16.3756 6.73358 14.7312 7.29513 13.1898C7.34796 13.0452 7.36849 12.8907 7.35526 12.7373C7.34203 12.5839 7.29536 12.4352 7.21855 12.3018C7.14173 12.1683 7.03663 12.0533 6.91061 11.9648C6.7846 11.8763 6.64074 11.8165 6.48914 11.7895C6.26193 11.7484 6.03222 11.7225 5.80155 11.7122C4.47239 11.6571 3.1756 12.1312 2.19549 13.0307C1.21537 13.9302 0.631895 15.1816 0.572973 16.5106C0.553355 16.9747 0.565238 17.4201 0.576699 17.8505C0.588863 18.3076 0.601449 18.7803 0.578949 19.3102C0.523856 20.6394 0.997824 21.9362 1.89702 22.9166C2.79622 23.897 4.04734 24.481 5.3763 24.5407C5.44985 24.5438 5.52321 24.5454 5.59638 24.5455C6.23186 24.5458 6.86157 24.4248 7.45164 24.1889C7.60163 24.1421 7.73926 24.0624 7.8545 23.9557C7.96973 23.8489 8.05965 23.7177 8.1177 23.5717C8.17574 23.4257 8.20043 23.2686 8.18997 23.1118C8.17951 22.9551 8.13417 22.8026 8.05725 22.6657Z" fill="#176F93"/>
<path d="M6.60586 17.0991C6.60433 15.7656 6.83758 14.4423 7.29493 13.1897C7.34776 13.0451 7.36828 12.8906 7.35505 12.7372C7.34182 12.5838 7.29516 12.4351 7.21834 12.3017C7.14153 12.1682 7.03642 12.0532 6.91041 11.9647C6.7844 11.8762 6.64054 11.8164 6.48893 11.7894C6.26173 11.7483 6.03202 11.7224 5.80135 11.7121C5.51559 11.7002 5.22934 11.7128 4.94571 11.7496C4.22376 12.8388 3.81958 14.1077 3.77853 15.4138C3.75666 16.0104 3.76988 16.5821 3.78268 17.1349C3.79625 17.7221 3.81031 18.3293 3.78521 19.0098C3.70217 21.2575 4.63437 23.2899 6.11227 24.518C6.57183 24.4707 7.02261 24.3598 7.45172 24.1887C7.6017 24.1419 7.73934 24.0622 7.85457 23.9554C7.96981 23.8486 8.05973 23.7175 8.11777 23.5715C8.17582 23.4255 8.20051 23.2684 8.19005 23.1116C8.17959 22.9549 8.13425 22.8024 8.05732 22.6654C7.1053 20.9647 6.60554 19.0481 6.60586 17.0991Z" fill="#0D647F"/>
<path d="M29.3941 17.0991C29.3956 15.7656 29.1624 14.4423 28.705 13.1897C28.6522 13.0451 28.6317 12.8906 28.6449 12.7372C28.6581 12.5838 28.7048 12.4351 28.7816 12.3017C28.8584 12.1682 28.9635 12.0532 29.0895 11.9647C29.2155 11.8762 29.3594 11.8164 29.511 11.7894C29.7382 11.7483 29.968 11.7225 30.1987 11.7121C30.4844 11.7002 30.7706 11.7128 31.0542 11.7496C31.7762 12.8388 32.1804 14.1077 32.2214 15.4138C32.2433 16.0104 32.2301 16.5821 32.2173 17.1349C32.2037 17.7221 32.1897 18.3293 32.2147 19.0098C32.2983 21.2572 31.3661 23.2896 29.8883 24.5179C29.4287 24.4706 28.9779 24.3598 28.5488 24.1886C28.3988 24.1418 28.2612 24.0621 28.1459 23.9554C28.0307 23.8486 27.9408 23.7174 27.8827 23.5714C27.8247 23.4254 27.8 23.2683 27.8104 23.1115C27.8209 22.9548 27.8663 22.8024 27.9432 22.6654C28.895 20.9646 29.3945 19.0481 29.3941 17.0991Z" fill="#0D647F"/>
<path d="M14.4861 18.1538C14.2064 18.154 13.938 18.0432 13.7401 17.8456C13.5421 17.648 13.4307 17.3798 13.4304 17.1001C13.4302 16.8204 13.541 16.552 13.7386 16.354C13.9362 16.1561 14.2044 16.0447 14.4841 16.0444H14.4861C14.7658 16.0444 15.0341 16.1555 15.2319 16.3533C15.4297 16.5511 15.5408 16.8194 15.5408 17.0991C15.5408 17.3788 15.4297 17.6471 15.2319 17.8449C15.0341 18.0427 14.7658 18.1538 14.4861 18.1538Z" fill="#E6E9F2"/>
<path d="M18 18.1537C17.9653 18.1538 17.9305 18.1522 17.8959 18.1487C17.8617 18.1453 17.8277 18.1402 17.794 18.1333C17.7602 18.1263 17.7265 18.1178 17.6934 18.108C17.6605 18.0979 17.6281 18.0862 17.5964 18.0728C17.5645 18.06 17.5332 18.0455 17.5029 18.0292C17.4727 18.0131 17.4431 17.9948 17.4143 17.9757C17.3856 17.9568 17.3579 17.9364 17.3313 17.9146C17.3046 17.8928 17.2786 17.8689 17.254 17.845C17.2294 17.8212 17.2062 17.7943 17.1844 17.7677C17.1626 17.7411 17.1422 17.7134 17.1232 17.6847C17.1042 17.6559 17.0859 17.6263 17.0698 17.5961C17.0536 17.5659 17.0395 17.5342 17.0262 17.5026C17.0128 17.4709 17.0011 17.4385 16.991 17.4056C16.9812 17.3725 16.9727 17.3387 16.9657 17.305C16.9587 17.2712 16.9538 17.2368 16.9502 17.2031C16.9468 17.1685 16.9452 17.1338 16.9453 17.099C16.9452 17.0645 16.9468 17.03 16.9502 16.9956C16.9538 16.9612 16.9594 16.9267 16.9657 16.893C16.972 16.8592 16.9812 16.8255 16.991 16.7931C17.0009 16.7599 17.0127 16.7273 17.0262 16.6954C17.0395 16.6638 17.0543 16.6328 17.0698 16.6026C17.0861 16.572 17.1039 16.5422 17.1232 16.5133C17.1422 16.4852 17.1626 16.4571 17.1844 16.4303C17.2062 16.4036 17.2301 16.3776 17.254 16.353C17.2779 16.3284 17.3046 16.3059 17.3313 16.2835C17.3581 16.2624 17.3855 16.2413 17.4143 16.2223C17.4431 16.2033 17.4727 16.1857 17.5029 16.1695C17.5331 16.1534 17.5648 16.1386 17.5964 16.1252C17.6282 16.1121 17.6605 16.1006 17.6934 16.0907C17.7595 16.0707 17.8273 16.0571 17.8959 16.05C17.9649 16.043 18.0344 16.043 18.1034 16.05C18.1379 16.053 18.1722 16.0582 18.206 16.0655C18.2398 16.0717 18.2732 16.0802 18.3059 16.0907C18.339 16.1006 18.3716 16.1121 18.4036 16.1252C18.4352 16.1386 18.4662 16.1534 18.4964 16.1695C18.5268 16.1856 18.5564 16.2032 18.585 16.2223C18.6138 16.2413 18.642 16.2624 18.6687 16.2835C18.6954 16.3059 18.7214 16.3292 18.7453 16.353C18.7692 16.3768 18.7931 16.4037 18.8156 16.4303C18.8367 16.4571 18.8578 16.4852 18.8768 16.5133C18.8959 16.5422 18.9135 16.572 18.9295 16.6026C18.9457 16.6328 18.9605 16.6638 18.9738 16.6954C18.9872 16.7271 18.9984 16.76 19.009 16.7931C19.0195 16.8263 19.0273 16.8592 19.0343 16.893C19.0413 16.9267 19.0463 16.9612 19.0498 16.9956C19.0533 17.0301 19.0547 17.0646 19.0547 17.099C19.0547 17.1335 19.0526 17.1686 19.0498 17.2031C19.047 17.2375 19.0406 17.2712 19.0343 17.305C19.028 17.3387 19.0188 17.3725 19.009 17.4056C18.9991 17.4387 18.9872 17.471 18.9738 17.5026C18.9605 17.5342 18.9457 17.5659 18.9295 17.5961C18.9134 17.6263 18.8958 17.6559 18.8768 17.6847C18.8578 17.7135 18.8367 17.741 18.8156 17.7677C18.7931 17.7943 18.7699 17.8204 18.7453 17.845C18.7207 17.8696 18.6954 17.8928 18.6687 17.9146C18.6418 17.9364 18.6139 17.9568 18.585 17.9757C18.5564 17.9951 18.5268 18.0129 18.4964 18.0292C18.4663 18.0455 18.4353 18.06 18.4036 18.0728C18.3716 18.0862 18.339 18.0979 18.3059 18.108C18.2735 18.1178 18.2398 18.1263 18.206 18.1333C18.1721 18.1402 18.1378 18.1454 18.1034 18.1487C18.069 18.1522 18.0345 18.1538 18 18.1537Z" fill="#E6E9F2"/>
<path d="M19.0344 16.893C19.0273 16.8592 19.0189 16.8255 19.0091 16.7931C18.9992 16.7608 18.9873 16.7271 18.9739 16.6954C18.9605 16.6638 18.9458 16.6328 18.9296 16.6026C18.9135 16.572 18.8959 16.5422 18.8769 16.5133C18.8579 16.4852 18.8368 16.4571 18.8157 16.4303C18.7932 16.4036 18.77 16.3776 18.7454 16.353C18.7208 16.3284 18.6955 16.306 18.6687 16.2835C18.642 16.2624 18.6139 16.2413 18.5851 16.2223C18.5565 16.2032 18.5269 16.1856 18.4965 16.1695C18.4662 16.1534 18.4353 16.1386 18.4037 16.1252C18.3717 16.1121 18.3391 16.1006 18.3059 16.0907C18.2732 16.0802 18.2399 16.0717 18.2061 16.0655C18.1722 16.0582 18.1379 16.053 18.1034 16.05C18.0691 16.0465 18.0345 16.0447 18 16.0447V18.1538C18.0345 18.1539 18.069 18.1522 18.1034 18.1488C18.1378 18.1454 18.1721 18.1403 18.206 18.1334C18.2398 18.1263 18.2735 18.1179 18.3059 18.1081C18.339 18.098 18.3716 18.0863 18.4036 18.0729C18.4353 18.0601 18.4663 18.0455 18.4964 18.0293C18.5268 18.013 18.5564 17.9952 18.585 17.9759C18.6138 17.9568 18.642 17.9364 18.6687 17.9147C18.6954 17.893 18.7214 17.8689 18.7453 17.8451C18.7692 17.8213 18.7931 17.7944 18.8156 17.7677C18.8367 17.741 18.8578 17.7136 18.8768 17.6848C18.8958 17.6559 18.9134 17.6264 18.9295 17.5962C18.9457 17.566 18.9605 17.5343 18.9738 17.5027C18.9872 17.471 18.9984 17.438 19.009 17.4056C19.0195 17.3733 19.0273 17.3388 19.0343 17.305C19.0413 17.2713 19.0462 17.2369 19.0498 17.2031C19.0533 17.1694 19.0547 17.1335 19.0547 17.0991C19.0547 17.0646 19.0526 17.0302 19.0498 16.9957C19.047 16.9613 19.0406 16.9267 19.0344 16.893Z" fill="#CFD7E6"/>
<path d="M21.5156 18.1538C21.2359 18.154 20.9675 18.0432 20.7696 17.8456C20.5716 17.648 20.4602 17.3798 20.46 17.1001C20.4597 16.8204 20.5706 16.552 20.7682 16.354C20.9658 16.156 21.2339 16.0447 21.5137 16.0444H21.5156C21.7954 16.0444 22.0636 16.1555 22.2614 16.3533C22.4592 16.5511 22.5703 16.8194 22.5703 17.0991C22.5703 17.3788 22.4592 17.6471 22.2614 17.8449C22.0636 18.0427 21.7954 18.1538 21.5156 18.1538Z" fill="#CFD7E6"/>
<path d="M18.1034 32.3138C19.6748 31.9423 20.6475 30.3674 20.2761 28.796C19.9046 27.2247 18.3297 26.2519 16.7583 26.6234C15.1869 26.9948 14.2142 28.5698 14.5856 30.1411C14.9571 31.7125 16.532 32.6852 18.1034 32.3138Z" fill="#176F93"/>
<path d="M17.428 26.556V32.4044C18.2035 32.4044 18.9473 32.0963 19.4957 31.5479C20.0441 30.9995 20.3522 30.2557 20.3522 29.4802C20.3522 28.7046 20.0441 27.9609 19.4957 27.4125C18.9473 26.8641 18.2035 26.556 17.428 26.556Z" fill="#0D647F"/>
<path d="M28.5482 24.1889C28.4096 24.1457 28.2813 24.0742 28.1715 23.9791C28.0617 23.8839 27.9728 23.7672 27.9103 23.636C27.8477 23.5049 27.813 23.3623 27.8082 23.2171C27.8033 23.0719 27.8285 22.9273 27.8822 22.7923C27.0629 24.2199 25.9425 25.452 24.599 26.4029C23.2555 27.3539 21.7211 28.0009 20.1023 28.2991C20.3998 28.9702 20.4331 29.7288 20.1954 30.4233C22.0531 30.1161 23.8262 29.4244 25.4011 28.3924C26.976 27.3604 28.3181 26.0109 29.3414 24.4303C29.0708 24.3717 28.8055 24.291 28.5482 24.1889Z" fill="#1794C6"/>
</svg>
