<svg width="56" height="56" viewBox="0 0 56 56" fill="none" xmlns="http://www.w3.org/2000/svg">
<path d="M47.7969 16.5161H40.5737C40.9135 14.4535 41.125 12.0915 41.125 11.5942C41.125 10.6754 40.4032 9.95361 39.4844 9.95361H38.1718C38.0406 9.69111 37.8438 9.1333 37.8438 8.31299C37.8438 7.49268 38.0406 6.93475 38.1718 6.67236H39.4844C40.4032 6.67236 41.125 5.95038 41.125 5.03174C41.125 4.11288 40.4032 3.39111 39.4844 3.39111H19.7969C17.0733 3.39111 14.875 5.58955 14.875 8.31299C14.875 9.95164 15.6712 13.7761 16.8987 16.5628C16.7756 16.5334 16.6477 16.5161 16.5156 16.5161H8.20312C5.48909 16.5161 3.28125 18.724 3.28125 21.438V41.1255C3.28125 43.8395 5.48909 46.0474 8.20312 46.0474H47.7969C50.5109 46.0474 52.7188 43.8395 52.7188 41.1255V21.438C52.7188 18.724 50.5109 16.5161 47.7969 16.5161ZM18.2453 18.8707C18.1868 19.1735 18.1562 19.4835 18.1562 19.7974V18.7618C18.1858 18.799 18.2155 18.8354 18.2453 18.8707ZM37.8438 36.2036H19.7969C18.8917 36.2036 18.1562 35.4682 18.1562 34.563V29.6411C18.1562 31.2977 18.9973 32.8455 20.4858 33.834C22.853 35.3191 25.2089 34.0787 25.2667 34.0535L35.1794 29.0964C36.8232 28.2248 37.8438 26.5473 37.8438 24.7192C37.8438 22.8911 36.8232 21.2137 35.1105 20.3068L34.0913 19.7974H37.8438V36.2036Z" fill="url(#paint0_linear_211_6642)"/>
<path d="M54.3594 42.7661H1.64062C0.733797 42.7661 0 43.4999 0 44.4067C0 48.9297 3.68014 52.6099 8.20312 52.6099H47.7969C52.3199 52.6099 56 48.9297 56 44.4067C56 43.4999 55.2662 42.7661 54.3594 42.7661ZM19.7969 39.4849H39.4844C40.4032 39.4849 41.125 38.7629 41.125 37.8442V11.5942C41.125 12.5129 40.4032 13.2349 39.4844 13.2349H19.7969C17.0733 13.2349 14.875 11.0363 14.875 8.31299V34.563C14.875 37.2863 17.0733 39.4849 19.7969 39.4849ZM21.4375 19.7974C21.4375 19.2394 21.7329 18.7146 22.225 18.3864C22.6844 18.091 23.3079 18.091 23.7999 18.3207L33.6436 23.2426C34.2016 23.538 34.5625 24.0958 34.5625 24.7192C34.5625 25.3427 34.2016 25.9005 33.6436 26.1958L23.7999 31.1177C23.195 31.3768 22.63 31.305 22.225 31.0519C21.7329 30.7237 21.4375 30.1988 21.4375 29.641V19.7974Z" fill="url(#paint1_linear_211_6642)"/>
<defs>
<linearGradient id="paint0_linear_211_6642" x1="28" y1="46.0474" x2="28" y2="3.39111" gradientUnits="userSpaceOnUse">
<stop stop-color="#ADDCFF"/>
<stop offset="0.5028" stop-color="#EAF6FF"/>
<stop offset="1" stop-color="#EAF6FF"/>
</linearGradient>
<linearGradient id="paint1_linear_211_6642" x1="28" y1="52.6099" x2="28" y2="8.31299" gradientUnits="userSpaceOnUse">
<stop stop-color="#5558FF"/>
<stop offset="1" stop-color="#00C0FF"/>
</linearGradient>
</defs>
</svg>
