<svg width="56" height="56" viewBox="0 0 56 56" fill="none" xmlns="http://www.w3.org/2000/svg">
<g clip-path="url(#clip0_211_6602)">
<path d="M56 36.7505V54.2505C56 55.1566 55.2654 55.8911 54.3594 55.8911H39.5938V46.0474H33.0312C31.219 46.0474 29.75 44.5783 29.75 42.7661C29.75 40.9539 31.219 39.4849 33.0312 39.4849H39.5938V36.7505C39.5938 32.2201 43.2665 28.5474 47.7969 28.5474C52.3273 28.5474 56 32.2201 56 36.7505ZM0 36.7505V54.2505C0 55.1566 0.734562 55.8911 1.64062 55.8911H16.4062V46.0474H22.9688C24.781 46.0474 26.25 44.5783 26.25 42.7661C26.25 40.9539 24.781 39.4849 22.9688 39.4849H16.4062V36.7505C16.4062 32.2201 12.7335 28.5474 8.20312 28.5474C3.6727 28.5474 0 32.2201 0 36.7505ZM40.5781 15.9692V5.03174C40.5781 2.31344 38.3745 0.109863 35.6562 0.109863H20.3438C17.6255 0.109863 15.4219 2.31344 15.4219 5.03174V15.9692C15.4219 17.3212 16.9653 18.0929 18.0469 17.2817L21.9844 14.3286H34.0156L37.9531 17.2817C39.0347 18.0929 40.5781 17.3212 40.5781 15.9692Z" fill="url(#paint0_linear_211_6602)"/>
<path d="M39.5938 55.8911H16.4062V49.3286H39.5938V55.8911ZM39.5938 46.0474V49.3286H40.6875C45.52 49.3286 49.4375 45.4111 49.4375 40.5786V36.9692C49.4375 36.0632 48.7029 35.3286 47.7969 35.3286C46.8908 35.3286 46.1562 36.0632 46.1562 36.9692V40.5786C46.1562 43.5989 43.7078 46.0474 40.6875 46.0474H39.5938ZM47.7969 30.7349C44.1783 30.7349 41.2344 27.7909 41.2344 24.1724C41.2344 20.5538 44.1783 17.6099 47.7969 17.6099C51.4154 17.6099 54.3594 20.5538 54.3594 24.1724C54.3594 27.7909 51.4154 30.7349 47.7969 30.7349ZM15.3125 46.0474C12.2922 46.0474 9.84375 43.5989 9.84375 40.5786V36.9692C9.84375 36.0632 9.10919 35.3286 8.20312 35.3286C7.29706 35.3286 6.5625 36.0632 6.5625 36.9692V40.5786C6.5625 45.4111 10.48 49.3286 15.3125 49.3286H16.4062V46.0474H15.3125ZM1.64062 24.1724C1.64062 20.5538 4.58456 17.6099 8.20312 17.6099C11.8217 17.6099 14.7656 20.5538 14.7656 24.1724C14.7656 27.7909 11.8217 30.7349 8.20312 30.7349C4.58456 30.7349 1.64062 27.7909 1.64062 24.1724ZM34.0156 7.21924C34.0156 6.31318 33.2811 5.57861 32.375 5.57861H23.625C22.7189 5.57861 21.9844 6.31318 21.9844 7.21924C21.9844 8.1253 22.7189 8.85986 23.625 8.85986H32.375C33.2811 8.85986 34.0156 8.1253 34.0156 7.21924Z" fill="url(#paint1_linear_211_6602)"/>
</g>
<defs>
<linearGradient id="paint0_linear_211_6602" x1="28" y1="55.8911" x2="28" y2="0.109863" gradientUnits="userSpaceOnUse">
<stop stop-color="#00B59B"/>
<stop offset="1" stop-color="#4EFFA8"/>
</linearGradient>
<linearGradient id="paint1_linear_211_6602" x1="28" y1="55.8911" x2="28" y2="5.57861" gradientUnits="userSpaceOnUse">
<stop stop-color="#A4FFE7"/>
<stop offset="0.9973" stop-color="#E9FFF3"/>
</linearGradient>
<clipPath id="clip0_211_6602">
<rect width="56" height="56" fill="white" transform="translate(0 0.000488281)"/>
</clipPath>
</defs>
</svg>
