<svg width="56" height="56" viewBox="0 0 56 56" fill="none" xmlns="http://www.w3.org/2000/svg">
<g clip-path="url(#clip0_211_6614)">
<path d="M53.1998 55.5197L39.6925 42.011C39.0517 41.3702 39.0517 40.3319 39.6925 39.6911C40.3334 39.0502 41.3717 39.0502 42.0125 39.6911L55.5196 53.1999C56.1605 53.8407 56.1605 54.879 55.5196 55.5198C54.8788 56.1607 53.8406 56.1607 53.1998 55.5197Z" fill="url(#paint0_linear_211_6614)"/>
<path d="M24.6094 49.2192C11.039 49.2192 0 38.1802 0 24.6099C0 11.0395 11.039 0.000488281 24.6094 0.000488281C38.1797 0.000488281 49.2188 11.0395 49.2188 24.6099C49.2188 38.1802 38.1797 49.2192 24.6094 49.2192Z" fill="url(#paint1_linear_211_6614)"/>
<path d="M26.25 26.2505V27.8911C26.25 28.7979 25.5162 29.5317 24.6094 29.5317C23.7025 29.5317 22.9688 28.7979 22.9688 27.8911V26.2505H11.4844C10.9064 26.2505 10.3597 26.1321 9.84375 25.9483V31.1724C9.84375 33.8864 12.0516 36.0942 14.7656 36.0942H34.4531C37.1672 36.0942 39.375 33.8864 39.375 31.1724V25.9483C38.8591 26.1321 38.3123 26.2505 37.7344 26.2505H26.25ZM37.7344 16.4067H31.1719C31.1719 12.7874 28.2271 9.84424 24.6094 9.84424C20.9917 9.84424 18.0469 12.7874 18.0469 16.4067H11.4844C10.5775 16.4067 9.84375 17.1405 9.84375 18.0474V21.3286C9.84375 22.2338 10.5807 22.9692 11.4844 22.9692H37.7344C38.638 22.9692 39.375 22.2338 39.375 21.3286V18.0474C39.375 17.1405 38.6412 16.4067 37.7344 16.4067ZM21.3281 16.4067C21.3281 14.5979 22.7989 13.1255 24.6094 13.1255C26.4199 13.1255 27.8906 14.5979 27.8906 16.4067H21.3281Z" fill="url(#paint2_linear_211_6614)"/>
</g>
<defs>
<linearGradient id="paint0_linear_211_6614" x1="47.673" y1="56.367" x2="47.3306" y2="11.5138" gradientUnits="userSpaceOnUse">
<stop stop-color="#5558FF"/>
<stop offset="1" stop-color="#00C0FF"/>
</linearGradient>
<linearGradient id="paint1_linear_211_6614" x1="24.6094" y1="49.2192" x2="24.6094" y2="0.000488281" gradientUnits="userSpaceOnUse">
<stop stop-color="#ADDCFF"/>
<stop offset="0.5028" stop-color="#EAF6FF"/>
<stop offset="1" stop-color="#EAF6FF"/>
</linearGradient>
<linearGradient id="paint2_linear_211_6614" x1="24.6094" y1="56.0671" x2="24.6094" y2="11.385" gradientUnits="userSpaceOnUse">
<stop stop-color="#5558FF"/>
<stop offset="1" stop-color="#00C0FF"/>
</linearGradient>
<clipPath id="clip0_211_6614">
<rect width="56" height="56" fill="white" transform="translate(0 0.000488281)"/>
</clipPath>
</defs>
</svg>
