<svg width="56" height="56" viewBox="0 0 56 56" fill="none" xmlns="http://www.w3.org/2000/svg">
<path d="M54.3594 24.7192H39.4844V5.03174H9.95312V24.7192H26.3594V46.0474C26.3594 46.9542 27.0932 47.688 28 47.688H48.9965L52.9944 53.5199C53.4044 54.1361 54.1646 54.3853 54.8353 54.1799C55.5274 53.9701 56 53.3324 56 52.6099V26.3599C56 25.453 55.2662 24.7192 54.3594 24.7192Z" fill="url(#paint0_linear_211_6627)"/>
<path d="M41.125 1.75049H1.64062C0.733797 1.75049 0 2.48429 0 3.39111V32.9224C0 33.5856 0.398891 34.1849 1.01259 34.438C1.61722 34.6903 2.32706 34.5559 2.80066 34.0823L8.99183 28.0005H41.125C42.0318 28.0005 42.7656 27.2667 42.7656 26.3599V3.39111C42.7656 2.48429 42.0318 1.75049 41.125 1.75049ZM27.2038 16.2823L19.0006 21.2041C18.4925 21.5083 17.861 21.5162 17.3472 21.2249C16.8329 20.9333 16.5156 20.3886 16.5156 19.7974V9.95361C16.5156 9.36244 16.8328 8.81764 17.3472 8.52605C17.8616 8.23446 18.4928 8.24244 19.0006 8.54683L27.2038 13.4687C27.6973 13.7651 28 14.2986 28 14.8754C28 15.4521 27.6971 15.9859 27.2038 16.2823ZM34.5625 34.563C33.6564 34.563 32.9219 35.2976 32.9219 36.2036C32.9219 37.1097 33.6564 37.8442 34.5625 37.8442C35.4686 37.8442 36.2031 37.1097 36.2031 36.2036C36.2031 35.2976 35.4686 34.563 34.5625 34.563ZM41.125 34.563C40.2189 34.563 39.4844 35.2976 39.4844 36.2036C39.4844 37.1097 40.2189 37.8442 41.125 37.8442C42.0311 37.8442 42.7656 37.1097 42.7656 36.2036C42.7656 35.2976 42.0311 34.563 41.125 34.563ZM47.6875 34.563C46.7814 34.563 46.0469 35.2976 46.0469 36.2036C46.0469 37.1097 46.7814 37.8442 47.6875 37.8442C48.5936 37.8442 49.3281 37.1097 49.3281 36.2036C49.3281 35.2976 48.5936 34.563 47.6875 34.563Z" fill="url(#paint1_linear_211_6627)"/>
<defs>
<linearGradient id="paint0_linear_211_6627" x1="32.9766" y1="54.2507" x2="32.9766" y2="5.03185" gradientUnits="userSpaceOnUse">
<stop stop-color="#FFC2CC"/>
<stop offset="1" stop-color="#FFF2F4"/>
</linearGradient>
<linearGradient id="paint1_linear_211_6627" x1="24.6641" y1="37.8443" x2="24.6641" y2="1.7506" gradientUnits="userSpaceOnUse">
<stop stop-color="#FD3A84"/>
<stop offset="1" stop-color="#FFA68D"/>
</linearGradient>
</defs>
</svg>
