<svg width="44" height="44" viewBox="0 0 44 44" fill="none" xmlns="http://www.w3.org/2000/svg">
<path d="M21.3774 31.8137H22.6227V36.8746H21.3774V31.8137Z" fill="#474646"/>
<path d="M41.9246 6.78285C41.9246 7.91548 41.0064 8.83365 39.8738 8.83365H4.1263C2.99367 8.83365 2.0755 7.91548 2.0755 6.78286C2.0755 5.65023 2.99367 4.73206 4.1263 4.73206H39.8738C41.0064 4.73206 41.9246 5.65023 41.9246 6.78285Z" fill="#474646"/>
<path d="M41.9246 6.78275C41.9246 7.9117 41.0031 8.83309 39.874 8.83309H4.12605C3.15479 8.83309 2.33291 8.15248 2.12537 7.2392C2.49891 7.58781 2.997 7.81198 3.55327 7.81198H39.3012C40.4385 7.81198 41.3518 6.89058 41.3518 5.76144C41.3518 5.61206 41.3352 5.46268 41.3019 5.32141C41.6838 5.68685 41.9246 6.20977 41.9246 6.78275Z" fill="#2D2C2C"/>
<path d="M38.881 8.83313V27.1893C38.881 30.0302 36.5781 32.3331 33.7373 32.3331H10.2629C7.42203 32.3331 5.11908 30.0302 5.11908 27.1893V8.83313H38.881Z" fill="#5E5EEF"/>
<path d="M38.8779 8.83313V27.1887C38.8779 29.0982 37.8401 30.7585 36.3042 31.6386C37.0431 30.7502 37.4748 29.6211 37.4748 28.3841V12.6241C37.4748 11.1907 36.3128 10.0288 34.8794 10.0288H5.12225V8.83313H38.8779Z" fill="#4242E5"/>
<path d="M8.43994 26.5219V14.6441C8.43994 13.2685 9.55504 12.1534 10.9306 12.1534H33.0699C34.4454 12.1534 35.5605 13.2685 35.5605 14.6441V26.5214C35.5605 27.8969 34.4461 29.012 33.0706 29.012C27.9085 29.0123 16.0923 29.0125 10.9301 29.0126C9.55452 29.0126 8.43994 27.8975 8.43994 26.5219Z" fill="white"/>
<path d="M35.5571 23.5775V26.5245C35.5571 27.8945 34.4446 29.0151 33.0665 29.0151H10.9336C9.58044 29.0151 8.48453 27.936 8.45129 26.5993C11.4401 27.3796 14.8024 27.8197 18.3555 27.8197C25.2461 27.8197 31.4144 26.1759 35.5571 23.5775Z" fill="#E4E3FF"/>
<g opacity="0.4">
<path d="M6.88863 23.1509C6.54488 23.1509 6.26599 22.872 6.26599 22.5282V17.6873C6.26599 17.3436 6.54488 17.0647 6.88863 17.0647C7.23238 17.0647 7.51127 17.3436 7.51127 17.6873V22.5282C7.51127 22.872 7.23238 23.1509 6.88863 23.1509Z" fill="white"/>
</g>
<g opacity="0.4">
<path d="M6.88863 16.0148C6.54488 16.0148 6.26599 15.7359 6.26599 15.3922V14.5693C6.26599 14.2255 6.54488 13.9467 6.88863 13.9467C7.23238 13.9467 7.51127 14.2255 7.51127 14.5693V15.3922C7.51127 15.7359 7.23238 16.0148 6.88863 16.0148Z" fill="white"/>
</g>
<g opacity="0.6">
<g opacity="0.4">
<path d="M20.8664 6.22225C20.8664 6.566 20.5875 6.84489 20.2438 6.84489H10.0067C9.66292 6.84489 9.38403 6.566 9.38403 6.22225C9.38403 5.8785 9.66292 5.59961 10.0067 5.59961H20.2438C20.5875 5.59961 20.8664 5.8785 20.8664 6.22225Z" fill="white"/>
</g>
<g opacity="0.4">
<path d="M8.33417 6.22225C8.33417 6.566 8.05527 6.84489 7.71152 6.84489H6.88863C6.54488 6.84489 6.26599 6.566 6.26599 6.22225C6.26599 5.8785 6.54488 5.59961 6.88863 5.59961H7.71152C8.05527 5.59961 8.33417 5.8785 8.33417 6.22225Z" fill="white"/>
</g>
</g>
<path d="M24.2424 37.0149C24.2424 38.2574 23.2422 39.268 22 39.268C20.7579 39.268 19.7577 38.2574 19.7577 37.0149C19.7577 35.7833 20.7579 34.7727 22 34.7727C23.2422 34.7727 24.2424 35.7833 24.2424 37.0149Z" fill="#474646"/>
<path d="M23.1046 37.0177C23.1046 37.6297 22.6119 38.1276 22 38.1276C21.3881 38.1276 20.8954 37.6297 20.8954 37.0177C20.8954 36.411 21.3881 35.9132 22 35.9132C22.6119 35.9132 23.1046 36.411 23.1046 37.0177Z" fill="white"/>
<path d="M28.2781 20.3505C28.2781 21.2848 28.0711 22.1766 27.7048 22.9728C27.2323 23.992 26.4945 24.8626 25.5815 25.4889V25.4942C24.5729 26.195 23.3467 26.6037 22.0196 26.6037C18.5639 26.6037 15.7717 23.8062 15.7717 20.3505C15.7717 16.8948 18.5639 14.092 22.0196 14.092C25.4753 14.092 28.2781 16.8948 28.2781 20.3505Z" fill="#F9B938"/>
<g opacity="0.4">
<path d="M17.3663 20.4891C17.3627 20.4891 17.3592 20.4891 17.3557 20.4891C17.1893 20.4832 17.059 20.3434 17.0643 20.1765C17.1186 18.61 17.8829 17.1939 19.1622 16.2909C19.2967 16.1935 19.4872 16.226 19.5828 16.3634C19.6789 16.4997 19.6465 16.6878 19.5102 16.7839C18.3866 17.5772 17.7154 18.8211 17.6683 20.1977C17.6624 20.3605 17.5285 20.4891 17.3663 20.4891Z" fill="white"/>
</g>
<g opacity="0.4">
<path d="M20.1144 15.9713C20.0695 15.8237 20.1527 15.6668 20.3003 15.6214C20.5545 15.5438 20.8186 15.488 21.0843 15.4557C21.2358 15.4295 21.3774 15.5459 21.3959 15.6996C21.4145 15.8532 21.3052 15.9926 21.1521 16.0112C20.9186 16.0397 20.6874 16.0889 20.4643 16.1572C20.315 16.202 20.1597 16.1179 20.1144 15.9713Z" fill="white"/>
</g>
<path d="M28.2782 20.3489C28.2782 23.804 25.4804 26.6018 22.0196 26.6018C19.1488 26.6018 16.7386 24.6748 16.0083 22.04C17.0533 24.0063 19.132 25.349 21.5252 25.349C24.9804 25.349 27.7838 22.5512 27.7838 19.0905C27.7838 18.5231 27.7107 17.9781 27.5647 17.4557C28.0197 18.3208 28.2782 19.3095 28.2782 20.3489Z" fill="#ECB021"/>
<path d="M24.1783 21.1576L21.6142 22.9642C20.9587 23.426 20.0548 22.9572 20.0548 22.1553V18.5421C20.0548 17.7402 20.9587 17.2714 21.6142 17.7332L24.1783 19.5399C24.7378 19.934 24.7378 20.7635 24.1783 21.1576Z" fill="white"/>
<g opacity="0.2">
<path d="M20.9493 20.4872C20.8243 20.4872 20.7228 20.3858 20.7228 20.2607V18.9873C20.7228 18.8623 20.8243 18.7609 20.9493 18.7609C21.0744 18.7609 21.1758 18.8623 21.1758 18.9873V20.2607C21.1758 20.3858 21.0744 20.4872 20.9493 20.4872Z" fill="white"/>
</g>
<path d="M24.1723 21.1546L21.621 22.9641C21.0129 23.3941 20.1823 23.0233 20.0636 22.3262C20.3751 22.4895 20.7608 22.5044 21.0871 22.267L23.6531 20.4573C23.9943 20.2201 24.1277 19.8196 24.0536 19.4636L24.1723 19.5379C24.7359 19.9384 24.7359 20.7689 24.1723 21.1546Z" fill="#D0D0F7"/>
</svg>
