<svg width="36" height="36" viewBox="0 0 36 36" fill="none" xmlns="http://www.w3.org/2000/svg">
<path d="M8.15625 21.6562H3.65625V10.6875H8.15625V21.6562Z" fill="#B3B4B6"/>
<path d="M5.90625 21.6562H3.65625V10.6875H5.90625V21.6562Z" fill="#DBDEE3"/>
<path d="M5.90625 6.1875C5.28469 6.1875 4.78125 6.69094 4.78125 7.3125V8.4375H7.03125V7.3125C7.03125 6.69094 6.52781 6.1875 5.90625 6.1875Z" fill="#B3B4B6"/>
<path d="M5.90625 6.1875C5.28469 6.1875 4.78125 6.69094 4.78125 7.3125V8.4375H5.90625V6.1875Z" fill="#DBDEE3"/>
<path d="M3.65625 28.4062L5.67225 31.4302C5.78362 31.5973 6.02888 31.5973 6.14025 31.4302L8.15625 28.4062H3.65625Z" fill="#B3B4B6"/>
<path d="M5.34375 30.9375L5.67225 31.4302C5.78362 31.5973 6.02888 31.5973 6.14025 31.4302L6.46875 30.9375H5.34375Z" fill="#55525B"/>
<path d="M3.65625 21.6562H8.15625V28.4062H3.65625V21.6562Z" fill="#353744"/>
<path d="M3.65625 21.6562H5.90625V28.4062H3.65625V21.6562Z" fill="#55525B"/>
<path d="M7.3125 8.4375H4.5C4.03425 8.4375 3.65625 8.8155 3.65625 9.28125V10.6875H8.15625V9.28125C8.15625 8.8155 7.77825 8.4375 7.3125 8.4375Z" fill="#353744"/>
<path d="M5.90625 8.4375H4.5C4.03425 8.4375 3.65625 8.8155 3.65625 9.28125V10.6875H5.90625V8.4375Z" fill="#55525B"/>
<path d="M3.65625 10.6875V9.5625H2.53125C1.90969 9.5625 1.40625 10.0659 1.40625 10.6875V17.1562C1.40625 17.7778 1.90969 18.2812 2.53125 18.2812C3.15281 18.2812 3.65625 17.7778 3.65625 17.1562C3.65625 16.5347 3.15281 16.0312 2.53125 16.0312V10.6875H3.65625Z" fill="#55525B"/>
<path d="M25.0312 32.0625H11.5312C10.2887 32.0625 9.28125 31.0551 9.28125 29.8125V8.4375C9.28125 7.19494 10.2887 6.1875 11.5312 6.1875H25.0312C26.2738 6.1875 27.2812 7.19494 27.2812 8.4375V29.8125C27.2812 31.0551 26.2738 32.0625 25.0312 32.0625Z" fill="#F68820"/>
<path d="M28.4062 29.8125H14.9062C13.6637 29.8125 12.6562 28.8051 12.6562 27.5625V6.1875C12.6562 4.94494 13.6637 3.9375 14.9062 3.9375H26.1562L30.6562 8.4375V27.5625C30.6562 28.8051 29.6488 29.8125 28.4062 29.8125Z" fill="#FBBE18"/>
<path d="M30.6562 8.4375H28.4062C27.1637 8.4375 26.1562 7.43006 26.1562 6.1875V3.9375L30.6562 8.4375Z" fill="#F68820"/>
<path d="M19.9688 11.25H26.7188C27.0293 11.25 27.2812 10.998 27.2812 10.6875C27.2812 10.377 27.0293 10.125 26.7188 10.125H19.9688C19.6583 10.125 19.4062 10.377 19.4062 10.6875C19.4062 10.998 19.6583 11.25 19.9688 11.25Z" fill="#F68820"/>
<path d="M16.5938 14.0625H26.7188C27.0293 14.0625 27.2812 13.8105 27.2812 13.5C27.2812 13.1895 27.0293 12.9375 26.7188 12.9375H16.5938C16.2833 12.9375 16.0312 13.1895 16.0312 13.5C16.0312 13.8105 16.2833 14.0625 16.5938 14.0625Z" fill="#F68820"/>
<path d="M16.5938 16.875H26.7188C27.0293 16.875 27.2812 16.623 27.2812 16.3125C27.2812 16.002 27.0293 15.75 26.7188 15.75H16.5938C16.2833 15.75 16.0312 16.002 16.0312 16.3125C16.0312 16.623 16.2833 16.875 16.5938 16.875Z" fill="#F68820"/>
<path d="M16.5938 19.6875H26.7188C27.0293 19.6875 27.2812 19.4355 27.2812 19.125C27.2812 18.8145 27.0293 18.5625 26.7188 18.5625H16.5938C16.2833 18.5625 16.0312 18.8145 16.0312 19.125C16.0312 19.4355 16.2833 19.6875 16.5938 19.6875Z" fill="#F68820"/>
<path d="M16.5938 22.5H26.7188C27.0293 22.5 27.2812 22.248 27.2812 21.9375C27.2812 21.627 27.0293 21.375 26.7188 21.375H16.5938C16.2833 21.375 16.0312 21.627 16.0312 21.9375C16.0312 22.248 16.2833 22.5 16.5938 22.5Z" fill="#F68820"/>
<path d="M16.5938 25.3125H21.375C21.6855 25.3125 21.9375 25.0605 21.9375 24.75C21.9375 24.4395 21.6855 24.1875 21.375 24.1875H16.5938C16.2833 24.1875 16.0312 24.4395 16.0312 24.75C16.0312 25.0605 16.2833 25.3125 16.5938 25.3125Z" fill="#F68820"/>
<path d="M30.6562 27.5625C32.8309 27.5625 34.5938 25.7996 34.5938 23.625C34.5938 21.4504 32.8309 19.6875 30.6562 19.6875C28.4816 19.6875 26.7188 21.4504 26.7188 23.625C26.7188 25.7996 28.4816 27.5625 30.6562 27.5625Z" fill="#55525B"/>
<path d="M31.7812 21.9375L30.0937 23.625L29.5312 23.0625C29.2207 22.752 28.7167 22.752 28.4062 23.0625C28.0957 23.373 28.0957 23.877 28.4062 24.1875L29.5312 25.3125C29.8417 25.623 30.3457 25.623 30.6562 25.3125L32.9062 23.0625C33.2167 22.752 33.2167 22.248 32.9062 21.9375C32.5957 21.627 32.0917 21.627 31.7812 21.9375Z" fill="#6FA4D8"/>
</svg>
