<svg width="57" height="56" viewBox="0 0 57 56" fill="none" xmlns="http://www.w3.org/2000/svg">
<path fill-rule="evenodd" clip-rule="evenodd" d="M15.9 16.8006V14.4673C15.9 9.57033 19.8698 5.60059 24.7667 5.60059H32.2334C37.1303 5.60059 41.1 9.57033 41.1 14.4673V16.8006C41.1 17.3161 41.5179 17.7339 42.0334 17.7339C42.5488 17.7339 42.9667 17.3161 42.9667 16.8006V14.4673H44.8334C48.6992 14.4673 51.8334 17.6012 51.8334 21.4673V23.1688C51.8334 24.1155 51.2612 24.9685 50.3853 25.3277L38.5784 30.1684C36.1007 27.4055 32.5034 25.6673 28.5 25.6673C24.4967 25.6673 20.8994 27.4055 18.4216 30.1684L6.61485 25.3277C5.73882 24.9685 5.16669 24.1155 5.16669 23.1688V21.4673C5.16669 17.6012 8.30068 14.4673 12.1667 14.4673H14.0334V16.8006C14.0334 17.3161 14.4512 17.7339 14.9667 17.7339C15.4822 17.7339 15.9 17.3161 15.9 16.8006ZM37.3667 16.8006V14.4673C37.3667 11.6322 35.0684 9.33392 32.2334 9.33392H24.7667C21.9316 9.33392 19.6334 11.6322 19.6334 14.4673V16.8006C19.6334 17.3161 20.0512 17.7339 20.5667 17.7339C21.0822 17.7339 21.5 17.3161 21.5 16.8006V14.4673H35.5V16.8006C35.5 17.3161 35.9179 17.7339 36.4334 17.7339C36.9488 17.7339 37.3667 17.3161 37.3667 16.8006Z" fill="url(#paint0_linear_211_6671)"/>
<path fill-rule="evenodd" clip-rule="evenodd" d="M15.9 16.8006V14.4673C15.9 9.57033 19.8698 5.60059 24.7667 5.60059H32.2334C37.1303 5.60059 41.1 9.57033 41.1 14.4673V16.8006C41.1 17.3161 41.5179 17.7339 42.0334 17.7339C42.5488 17.7339 42.9667 17.3161 42.9667 16.8006V14.4673H44.8334C48.6992 14.4673 51.8334 17.6012 51.8334 21.4673V23.1688C51.8334 24.1155 51.2612 24.9685 50.3853 25.3277L38.5784 30.1684C36.1007 27.4055 32.5034 25.6673 28.5 25.6673C24.4967 25.6673 20.8994 27.4055 18.4216 30.1684L6.61485 25.3277C5.73882 24.9685 5.16669 24.1155 5.16669 23.1688V21.4673C5.16669 17.6012 8.30068 14.4673 12.1667 14.4673H14.0334V16.8006C14.0334 17.3161 14.4512 17.7339 14.9667 17.7339C15.4822 17.7339 15.9 17.3161 15.9 16.8006ZM37.3667 16.8006V14.4673C37.3667 11.6322 35.0684 9.33392 32.2334 9.33392H24.7667C21.9316 9.33392 19.6334 11.6322 19.6334 14.4673V16.8006C19.6334 17.3161 20.0512 17.7339 20.5667 17.7339C21.0822 17.7339 21.5 17.3161 21.5 16.8006V14.4673H35.5V16.8006C35.5 17.3161 35.9179 17.7339 36.4334 17.7339C36.9488 17.7339 37.3667 17.3161 37.3667 16.8006Z" fill="url(#paint1_linear_211_6671)" fill-opacity="0.8"/>
<path d="M5.16669 26.6611C5.16669 26.6611 11.3016 29.2169 17.2463 31.681C14.2483 36.159 14.2342 42.1753 17.2111 46.6672H12.1667C8.30068 46.6672 5.16669 43.5332 5.16669 39.6672V26.6611Z" fill="url(#paint2_linear_211_6671)"/>
<path d="M5.16669 26.6611C5.16669 26.6611 11.3016 29.2169 17.2463 31.681C14.2483 36.159 14.2342 42.1753 17.2111 46.6672H12.1667C8.30068 46.6672 5.16669 43.5332 5.16669 39.6672V26.6611Z" fill="url(#paint3_linear_211_6671)" fill-opacity="0.8"/>
<path d="M44.8333 46.6672H39.789C41.2073 44.5271 42.0333 41.9602 42.0333 39.2005C42.0333 36.418 41.1936 33.8316 39.7537 31.681C45.6984 29.2169 51.8333 26.6611 51.8333 26.6611V39.6672C51.8333 43.5332 48.6992 46.6672 44.8333 46.6672Z" fill="url(#paint4_linear_211_6671)"/>
<path d="M44.8333 46.6672H39.789C41.2073 44.5271 42.0333 41.9602 42.0333 39.2005C42.0333 36.418 41.1936 33.8316 39.7537 31.681C45.6984 29.2169 51.8333 26.6611 51.8333 26.6611V39.6672C51.8333 43.5332 48.6992 46.6672 44.8333 46.6672Z" fill="url(#paint5_linear_211_6671)" fill-opacity="0.8"/>
<path fill-rule="evenodd" clip-rule="evenodd" d="M40.1666 39.2004C40.1666 32.757 34.9433 27.5337 28.5 27.5337C22.0567 27.5337 16.8333 32.757 16.8333 39.2004C16.8333 45.6437 22.0567 50.867 28.5 50.867C34.9433 50.867 40.1666 45.6437 40.1666 39.2004ZM28.5 32.667C27.0609 32.667 25.6391 32.9865 24.3169 33.6036C22.9952 34.2204 21.802 35.1209 20.8019 36.2474C20.4598 36.6329 20.4949 37.2229 20.8804 37.5651C21.2659 37.9072 21.8559 37.8721 22.198 37.4866C23.0365 36.5419 24.0259 35.7993 25.1063 35.2951C26.1863 34.7911 27.3391 34.5337 28.5 34.5337C29.6609 34.5337 30.8137 34.7911 31.8937 35.2951C32.9741 35.7993 33.9634 36.5419 34.8019 37.4866C35.1441 37.8721 35.7341 37.9072 36.1196 37.5651C36.5051 37.2229 36.5402 36.6329 36.198 36.2474C35.198 35.1209 34.0048 34.2204 32.683 33.6036C31.3609 32.9865 29.9391 32.667 28.5 32.667ZM28.5 46.2004C29.2732 46.2004 29.9 45.5736 29.9 44.8004C29.9 44.0271 29.2732 43.4004 28.5 43.4004C27.7268 43.4004 27.1 44.0271 27.1 44.8004C27.1 45.5736 27.7268 46.2004 28.5 46.2004ZM26.0174 41.1067C25.7377 41.5397 25.16 41.664 24.727 41.3844C24.294 41.1048 24.1696 40.527 24.4493 40.094C25.2958 38.7832 27.0175 38.267 28.5 38.267C29.9928 38.267 31.703 38.7814 32.5507 40.094C32.8304 40.527 32.706 41.1048 32.273 41.3844C31.84 41.664 31.2622 41.5397 30.9826 41.1067C30.5057 40.3683 29.2963 40.1847 28.5 40.1337C27.6667 40.1337 26.5124 40.3402 26.0174 41.1067Z" fill="url(#paint6_linear_211_6671)"/>
<path fill-rule="evenodd" clip-rule="evenodd" d="M40.1666 39.2004C40.1666 32.757 34.9433 27.5337 28.5 27.5337C22.0567 27.5337 16.8333 32.757 16.8333 39.2004C16.8333 45.6437 22.0567 50.867 28.5 50.867C34.9433 50.867 40.1666 45.6437 40.1666 39.2004ZM28.5 32.667C27.0609 32.667 25.6391 32.9865 24.3169 33.6036C22.9952 34.2204 21.802 35.1209 20.8019 36.2474C20.4598 36.6329 20.4949 37.2229 20.8804 37.5651C21.2659 37.9072 21.8559 37.8721 22.198 37.4866C23.0365 36.5419 24.0259 35.7993 25.1063 35.2951C26.1863 34.7911 27.3391 34.5337 28.5 34.5337C29.6609 34.5337 30.8137 34.7911 31.8937 35.2951C32.9741 35.7993 33.9634 36.5419 34.8019 37.4866C35.1441 37.8721 35.7341 37.9072 36.1196 37.5651C36.5051 37.2229 36.5402 36.6329 36.198 36.2474C35.198 35.1209 34.0048 34.2204 32.683 33.6036C31.3609 32.9865 29.9391 32.667 28.5 32.667ZM28.5 46.2004C29.2732 46.2004 29.9 45.5736 29.9 44.8004C29.9 44.0271 29.2732 43.4004 28.5 43.4004C27.7268 43.4004 27.1 44.0271 27.1 44.8004C27.1 45.5736 27.7268 46.2004 28.5 46.2004ZM26.0174 41.1067C25.7377 41.5397 25.16 41.664 24.727 41.3844C24.294 41.1048 24.1696 40.527 24.4493 40.094C25.2958 38.7832 27.0175 38.267 28.5 38.267C29.9928 38.267 31.703 38.7814 32.5507 40.094C32.8304 40.527 32.706 41.1048 32.273 41.3844C31.84 41.664 31.2622 41.5397 30.9826 41.1067C30.5057 40.3683 29.2963 40.1847 28.5 40.1337C27.6667 40.1337 26.5124 40.3402 26.0174 41.1067Z" fill="url(#paint7_linear_211_6671)"/>
<defs>
<linearGradient id="paint0_linear_211_6671" x1="-2.73483" y1="17.8845" x2="64.1894" y2="17.8845" gradientUnits="userSpaceOnUse">
<stop offset="0.0001" stop-color="#FF688E"/>
<stop offset="1" stop-color="#B5153D"/>
</linearGradient>
<linearGradient id="paint1_linear_211_6671" x1="28.5" y1="58.0908" x2="28.5" y2="32.8087" gradientUnits="userSpaceOnUse">
<stop stop-color="#527FD4"/>
<stop offset="1" stop-color="#78A7FF" stop-opacity="0"/>
</linearGradient>
<linearGradient id="paint2_linear_211_6671" x1="3.12139" y1="36.6642" x2="20.4447" y2="36.6642" gradientUnits="userSpaceOnUse">
<stop offset="0.0001" stop-color="#FF688E"/>
<stop offset="1" stop-color="#B5153D"/>
</linearGradient>
<linearGradient id="paint3_linear_211_6671" x1="28.5" y1="58.0907" x2="28.5" y2="32.8086" gradientUnits="userSpaceOnUse">
<stop stop-color="#527FD4"/>
<stop offset="1" stop-color="#78A7FF" stop-opacity="0"/>
</linearGradient>
<linearGradient id="paint4_linear_211_6671" x1="37.7084" y1="36.6642" x2="55.0317" y2="36.6642" gradientUnits="userSpaceOnUse">
<stop offset="0.0001" stop-color="#FF688E"/>
<stop offset="1" stop-color="#B5153D"/>
</linearGradient>
<linearGradient id="paint5_linear_211_6671" x1="28.5" y1="58.0907" x2="28.5" y2="32.8086" gradientUnits="userSpaceOnUse">
<stop stop-color="#527FD4"/>
<stop offset="1" stop-color="#78A7FF" stop-opacity="0"/>
</linearGradient>
<linearGradient id="paint6_linear_211_6671" x1="12.8826" y1="39.2004" x2="46.3447" y2="39.2004" gradientUnits="userSpaceOnUse">
<stop offset="0.0001" stop-color="#FF688E"/>
<stop offset="1" stop-color="#B5153D"/>
</linearGradient>
<linearGradient id="paint7_linear_211_6671" x1="12.8826" y1="39.2004" x2="46.3447" y2="39.2004" gradientUnits="userSpaceOnUse">
<stop offset="0.0001" stop-color="#FF688E"/>
<stop offset="1" stop-color="#B5153D"/>
</linearGradient>
</defs>
</svg>
