<svg width="36" height="36" viewBox="0 0 36 36" fill="none" xmlns="http://www.w3.org/2000/svg">
<g clip-path="url(#clip0_0_348)">
<path d="M3.00159 18.5731V14.5188C3.00159 13.8115 3.61021 13.2576 4.31446 13.3241L15.6982 14.3994H20.3051L31.6888 13.3241C32.393 13.2576 33.0017 13.8115 33.0017 14.5188V18.5731H3.00159Z" fill="#D6E3FA"/>
<path d="M31.6888 13.324L30.6273 13.4243C31.0422 13.6113 31.3357 14.0277 31.3357 14.5187V18.573H33.0016V14.5187C33.0016 13.8114 32.393 13.2575 31.6888 13.324Z" fill="#BDD5F8"/>
<path d="M24.6116 26.4639L34.2017 27.4785C34.8203 27.5473 35.3889 27.1316 35.5109 26.5211L35.5112 26.5199C36.1607 23.2717 36.1606 19.9269 35.5109 16.6787C35.3889 16.0684 34.8204 15.6527 34.2018 15.7214L24.6114 16.7348L11.3753 16.7849L1.79814 15.7215C1.17953 15.6528 0.611056 16.0685 0.488993 16.6788L0.488853 16.6794C-0.160835 19.9276 -0.160835 23.2723 0.488853 26.5206L0.488993 26.5211C0.611056 27.1315 1.1796 27.5472 1.79828 27.4784L11.3752 26.4137L24.6116 26.4639Z" fill="#ECF3FD"/>
<path d="M35.511 16.6788C35.3889 16.0685 34.8204 15.6528 34.2018 15.7215L33.1807 15.8295C33.5133 15.9869 33.768 16.2939 33.845 16.6788C34.4947 19.9271 34.4947 23.2718 33.8452 26.52L33.845 26.5212C33.768 26.9061 33.5135 27.2131 33.1809 27.3706L34.2017 27.4786C34.8204 27.5474 35.3889 27.1317 35.511 26.5212L35.5112 26.52C36.1608 23.2718 36.1607 19.9271 35.511 16.6788Z" fill="#D6E3FA"/>
<path d="M27.5209 32.1001L24.4673 26.8098L11.5377 26.813L8.4825 32.1001C8.27775 32.4547 8.4806 32.9058 8.8818 32.9879L10.5447 33.3282L12.2088 33.1261L12.6231 34.5282L13.7493 35.7982C14.0209 36.1046 14.5131 36.0548 14.7178 35.7001L18.0016 29.9995L21.2854 35.7001C21.4902 36.0548 21.9822 36.1046 22.254 35.7982L23.3801 34.5282L23.7367 32.8292L25.4586 33.3283L27.1215 32.988C27.5228 32.9058 27.7256 32.4547 27.5209 32.1001Z" fill="#DC6671"/>
<path d="M13.6885 34.5796C13.5145 34.8809 13.1336 34.9612 12.8561 34.7909L13.7493 35.7981C14.021 36.1046 14.5131 36.0547 14.7179 35.7001L18.0017 29.9994L16.9723 28.8789L13.6885 34.5796Z" fill="#D94B59"/>
<path d="M23.6247 33.3625L22.7493 33.5417C22.6221 33.5677 22.5068 33.6343 22.4207 33.7314L21.0451 35.2827L21.2855 35.7C21.4903 36.0547 21.9823 36.1045 22.2541 35.7981L23.3802 34.5281L23.6247 33.3625Z" fill="#D94B59"/>
<path d="M27.5209 32.1001L24.4673 26.8098L22.8015 26.8102L25.8548 32.1001C26.0596 32.4547 25.8567 32.9058 25.4555 32.9879L24.7691 33.1284L25.4586 33.3282L27.1215 32.9879C27.5228 32.9058 27.7256 32.4547 27.5209 32.1001Z" fill="#D94B59"/>
<path d="M22.5533 28.2959H13.4499L10.5447 33.328L11.588 33.5414C11.7152 33.5674 11.8305 33.634 11.9166 33.7311L12.6231 34.5279L15.8325 28.9691H20.1707L23.3802 34.5279L24.0867 33.7311C24.1729 33.634 24.2882 33.5674 24.4154 33.5414L25.4587 33.328L22.5533 28.2959Z" fill="#ECF3FD"/>
<path d="M22.8041 33.5304L23.3801 34.5281L24.0866 33.7314C24.1728 33.6343 24.2881 33.5677 24.4153 33.5417L25.4586 33.3282L25.2826 33.0233L22.8041 33.5304Z" fill="#D6E3FA"/>
<path d="M26.4013 21.5997C26.4013 20.6821 25.9598 19.8677 25.2777 19.3572C24.8687 19.0511 24.6595 18.5461 24.7322 18.0404C24.8535 17.1971 24.5899 16.3091 23.9411 15.6602C23.2922 15.0114 22.4043 14.7477 21.5609 14.8691C21.0552 14.9419 20.5503 14.7327 20.2441 14.3237C19.7336 13.6416 18.9192 13.2001 18.0017 13.2001C17.0841 13.2001 16.2697 13.6416 15.7592 14.3237C15.453 14.7327 14.9481 14.9419 14.4424 14.8691C13.599 14.7478 12.7111 15.0114 12.0622 15.6602C11.4134 16.3091 11.1497 17.1971 11.2711 18.0404C11.3438 18.5461 11.1347 19.0511 10.7256 19.3572C10.0435 19.8677 9.60205 20.6821 9.60205 21.5997C9.60205 22.5173 10.0435 23.3316 10.7256 23.8422C11.1347 24.1483 11.3438 24.6532 11.2711 25.159C11.1498 26.0023 11.4134 26.8903 12.0622 27.5391C12.7111 28.188 13.599 28.4516 14.4424 28.3303C14.9481 28.2575 15.453 28.4667 15.7592 28.8757C16.2697 29.5578 17.0841 29.9993 18.0017 29.9993C18.9192 29.9993 19.7336 29.5578 20.2441 28.8757C20.5503 28.4666 21.0552 28.2575 21.5609 28.3303C22.4043 28.4516 23.2922 28.188 23.9411 27.5391C24.5899 26.8903 24.8536 26.0023 24.7322 25.159C24.6595 24.6532 24.8687 24.1483 25.2777 23.8422C25.9598 23.3316 26.4013 22.5173 26.4013 21.5997Z" fill="#F0DC34"/>
<path d="M25.2777 19.3572C24.8686 19.0511 24.6595 18.5461 24.7322 18.0404C24.8535 17.1971 24.5899 16.3091 23.9411 15.6602C23.2922 15.0114 22.4042 14.7478 21.5609 14.8691C21.0552 14.9419 20.5502 14.7327 20.2441 14.3237C19.7336 13.6416 18.9192 13.2001 18.0016 13.2001C17.7115 13.2001 17.4317 13.2444 17.1686 13.3264C17.7377 13.5035 18.229 13.8572 18.5781 14.3237C18.8843 14.7327 19.3892 14.9419 19.8949 14.8691C20.7383 14.7478 21.6263 15.0114 22.2751 15.6602C22.9239 16.3091 23.1875 17.1971 23.0662 18.0404C22.9935 18.5461 23.2026 19.0511 23.6117 19.3572C24.2938 19.8677 24.7352 20.6821 24.7352 21.5997C24.7352 22.5173 24.2938 23.3316 23.6117 23.8422C23.2026 24.1483 22.9935 24.6532 23.0662 25.159C23.1875 26.0023 22.9239 26.8903 22.2751 27.5391C21.6262 28.188 20.7383 28.4516 19.8949 28.3303C19.3892 28.2575 18.8843 28.4667 18.5781 28.8758C18.229 29.3422 17.7377 29.6958 17.1686 29.873C17.4318 29.9549 17.7115 29.9993 18.0016 29.9993C18.9192 29.9993 19.7336 29.5579 20.2441 28.8758C20.5502 28.4667 21.0552 28.2576 21.5609 28.3303C22.4042 28.4516 23.2922 28.188 23.9411 27.5391C24.5899 26.8903 24.8535 26.0023 24.7322 25.159C24.6595 24.6532 24.8686 24.1483 25.2777 23.8422C25.9598 23.3316 26.4013 22.5173 26.4013 21.5997C26.4013 20.6821 25.9598 19.8677 25.2777 19.3572Z" fill="#ECC130"/>
<path d="M21.391 24.9925C23.2652 23.1183 23.2652 20.0795 21.391 18.2053C19.5168 16.331 16.478 16.331 14.6038 18.2053C12.7295 20.0795 12.7295 23.1183 14.6038 24.9925C16.478 26.8667 19.5167 26.8667 21.391 24.9925Z" fill="#FAEF6C"/>
<path d="M20.3222 22.1631C20.631 20.8747 19.8369 19.5799 18.5486 19.2711C17.2602 18.9622 15.9654 19.7563 15.6566 21.0447C15.3478 22.333 16.1418 23.6278 17.4302 23.9366C18.7185 24.2455 20.0133 23.4514 20.3222 22.1631Z" fill="#F0DC34"/>
<path d="M18.1516 22.1426H17.8516C17.5516 22.1426 17.3083 21.8994 17.3083 21.5994C17.3083 21.2994 17.5516 21.0562 17.8516 21.0562H18.1516C18.4516 21.0562 18.6948 21.2994 18.6948 21.5994C18.6948 21.8994 18.4517 22.1426 18.1516 22.1426Z" fill="#617881"/>
<path d="M18.0016 19.1993C17.7087 19.1993 17.4282 19.252 17.1686 19.3481C18.0835 19.6867 18.7356 20.5668 18.7356 21.5993C18.7356 22.6319 18.0835 23.512 17.1686 23.8506C17.4282 23.9466 17.7087 23.9993 18.0016 23.9993C19.3271 23.9993 20.4016 22.9248 20.4016 21.5993C20.4016 20.2739 19.3271 19.1993 18.0016 19.1993Z" fill="#ECC130"/>
<path d="M23.4017 7.14338L27.568 5.2917C28.0431 5.08055 28.0431 4.40626 27.568 4.19511L18.2453 0.0517324C18.0902 -0.0172441 17.9131 -0.0172441 17.758 0.0517324L8.43531 4.19511C7.9602 4.40626 7.9602 5.08055 8.43531 5.2917L12.6017 7.14338H23.4017Z" fill="#617881"/>
<path d="M27.568 4.19511L18.2453 0.0517324C18.0902 -0.0172441 17.913 -0.0172441 17.7579 0.0517324L17.1686 0.313646L25.902 4.19511C26.3771 4.40626 26.3771 5.08048 25.902 5.2917L21.7356 7.14338H23.4016L27.5679 5.2917C28.0431 5.08055 28.0431 4.40626 27.568 4.19511Z" fill="#516874"/>
<path d="M23.4017 8.4V5.37944C23.4017 5.05938 23.1422 4.79993 22.8222 4.79993H13.1811C12.8611 4.79993 12.6016 5.05938 12.6016 5.37944V8.4L18.0016 9.60002L23.4017 8.4Z" fill="#516874"/>
<path d="M8.40163 8.48813C8.10161 8.48813 7.8584 8.24492 7.8584 7.94489V4.8406C7.8584 4.5405 8.10161 4.29736 8.40163 4.29736C8.70166 4.29736 8.94487 4.54057 8.94487 4.8406V7.94489C8.94494 8.24499 8.70173 8.48813 8.40163 8.48813Z" fill="#516874"/>
<path d="M21.7135 5.37944V8.77511L23.4017 8.4V5.37944C23.4017 5.05938 23.1422 4.79993 22.8222 4.79993H21.1341C21.4541 4.8 21.7135 5.05945 21.7135 5.37944Z" fill="#425768"/>
<path d="M13.7606 10.8H22.2427C22.8828 10.8 23.4017 10.2811 23.4017 9.64104V8.40002H12.6017V9.64104C12.6017 10.2811 13.1205 10.8 13.7606 10.8Z" fill="#82B7F9"/>
<path d="M23.4017 9.64104V8.40002H21.7135V9.64104C21.7135 10.2811 21.1946 10.8 20.5546 10.8H22.2427C22.8828 10.8 23.4017 10.2811 23.4017 9.64104Z" fill="#66A4F7"/>
<path d="M9.60165 8.98307C9.60165 8.30111 9.03275 7.75197 8.34362 7.78445C7.69822 7.81483 7.2016 8.37086 7.2016 9.01696V10.2C7.2016 10.5314 7.47026 10.8 7.80158 10.8H9.0016C9.33298 10.8 9.60158 10.5314 9.60158 10.2V8.98307H9.60165Z" fill="#F0DC34"/>
<path d="M8.34359 7.78445C8.04293 7.79858 7.77553 7.92774 7.57458 8.12595C7.79712 8.34378 7.93556 8.64711 7.93556 8.98306V10.2C7.93556 10.4488 7.78418 10.6621 7.5686 10.7531C7.64025 10.7833 7.71893 10.8001 7.80162 10.8001H9.00164C9.33303 10.8001 9.60162 10.5315 9.60162 10.2001V8.98313C9.60162 8.3011 9.03272 7.75203 8.34359 7.78445Z" fill="#ECC130"/>
</g>
<defs>
<clipPath id="clip0_0_348">
<rect width="36" height="36" fill="white"/>
</clipPath>
</defs>
</svg>
