<svg width="36" height="36" viewBox="0 0 36 36" fill="none" xmlns="http://www.w3.org/2000/svg">
<path d="M18 4.0697L24.3984 17.59L18 28.8281H2.73724V4.0697H18Z" fill="#E6F2FF"/>
<path d="M18 4.0697H33.5475V28.8281H18V4.0697Z" fill="#CCE6FF"/>
<path d="M18 2.98828L19.6805 3.96513L18 5.09766H3.9375V25.418C3.9375 26.0002 3.465 26.4727 2.88281 26.4727C2.30063 26.4727 1.82812 26.0002 1.82812 25.418V4.04297C1.82812 3.46078 2.30063 2.98828 2.88281 2.98828H18Z" fill="#333373"/>
<path d="M34.1719 4.04297V25.418C34.1719 26.0002 33.6994 26.4727 33.1172 26.4727C32.535 26.4727 32.0625 26.0002 32.0625 25.418V5.09766H18V2.98828H33.1172C33.6994 2.98828 34.1719 3.46078 34.1719 4.04297Z" fill="#17174D"/>
<path d="M18 27.3867L21.9639 29.7387L18 33.0117H4.69828C2.10797 33.0117 0 30.9037 0 28.3134V26.332C0 25.7498 0.4725 25.2773 1.05469 25.2773H13.0078C13.59 25.2773 14.0625 25.7498 14.0625 26.332C14.0625 26.9135 14.5357 27.3867 15.1172 27.3867H18Z" fill="#5C5C99"/>
<path d="M36 26.332V28.3134C36 30.9037 33.892 33.0117 31.3017 33.0117H18V27.3867H20.8828C21.4643 27.3867 21.9375 26.9135 21.9375 26.332C21.9375 25.7498 22.41 25.2773 22.9922 25.2773H34.9453C35.5275 25.2773 36 25.7498 36 26.332Z" fill="#333373"/>
<path d="M27.8874 11.0567V19.3184C27.8874 19.6981 27.6835 20.0489 27.353 20.236C27.192 20.3274 27.012 20.3731 26.8327 20.3731C26.6456 20.3731 26.4579 20.3231 26.2913 20.2233L21.4221 17.3081C21.1036 17.1176 20.9095 16.7738 20.9095 16.4032V13.9226C20.9095 13.5492 21.1071 13.2033 21.4292 13.0135L26.2983 10.1475C26.6238 9.95556 27.0281 9.95345 27.3565 10.1412C27.6849 10.3289 27.8874 10.6784 27.8874 11.0567Z" fill="#333373"/>
<path d="M18 9.91406L20.3105 14.4845L18 20.4609H9.16736C8.58447 20.4609 8.11267 19.9884 8.11267 19.4062V10.9688C8.11267 10.3866 8.58447 9.91406 9.16736 9.91406H18Z" fill="#6AABFF"/>
<path d="M11.6719 14.4845C12.2544 14.4845 12.7266 14.0123 12.7266 13.4298C12.7266 12.8473 12.2544 12.3751 11.6719 12.3751C11.0894 12.3751 10.6172 12.8473 10.6172 13.4298C10.6172 14.0123 11.0894 14.4845 11.6719 14.4845Z" fill="#FF637B"/>
<path d="M23.0189 10.9688V19.4062C23.0189 19.9884 22.5464 20.4609 21.9642 20.4609H18V9.91406H21.9642C22.5464 9.91406 23.0189 10.3866 23.0189 10.9688Z" fill="#5980FF"/>
</svg>
