<svg width="36" height="36" viewBox="0 0 36 36" fill="none" xmlns="http://www.w3.org/2000/svg">
<g clip-path="url(#clip0_0_255)">
<path d="M24.2695 21.1496C31.3818 25.9294 35.9604 30.5079 35.9604 30.5079C35.9604 30.5079 36.4152 32.0748 34.245 34.2449C32.0748 36.4151 30.508 35.9603 30.508 35.9603C30.508 35.9603 25.9295 31.3818 21.1497 24.2694" fill="#26457D"/>
<path d="M21.15 24.2695L22.2828 23.1367C27.774 29.183 32.3533 33.8341 33.4557 34.9466C31.7052 36.3075 30.5081 35.9605 30.5081 35.9605C30.5081 35.9605 25.9294 31.3816 21.15 24.2695Z" fill="#21386B"/>
<path d="M14.1592 28.3182C21.979 28.3182 28.3183 21.979 28.3183 14.1591C28.3183 6.33925 21.979 0 14.1592 0C6.33931 0 6.10352e-05 6.33925 6.10352e-05 14.1591C6.10352e-05 21.979 6.33931 28.3182 14.1592 28.3182Z" fill="#F19028"/>
<path d="M15.2295 28.2789C14.8758 28.3051 14.5197 28.3186 14.1597 28.3186C6.33994 28.3186 0 21.9787 0 14.159C0 6.33915 6.33994 6.10352e-05 14.1597 6.10352e-05C14.5197 6.10352e-05 14.8758 0.013561 15.2295 0.0397173C7.90938 0.586186 2.13975 6.69845 2.13975 14.159C2.13975 21.6195 7.90938 27.7325 15.2295 28.2789Z" fill="#E27D47"/>
<path d="M14.1592 23.8217C19.4958 23.8217 23.8219 19.4955 23.8219 14.1589C23.8219 8.82232 19.4958 4.49615 14.1592 4.49615C8.82257 4.49615 4.4964 8.82232 4.4964 14.1589C4.4964 19.4955 8.82257 23.8217 14.1592 23.8217Z" fill="#F1F4F6"/>
<path d="M4.4964 14.159C4.4964 8.82239 8.82259 4.49628 14.1592 4.49628C14.6098 4.49628 15.0527 4.52728 15.4865 4.58642C10.7779 5.2335 7.15098 9.2731 7.15098 14.1591C7.15098 19.0451 10.778 23.0847 15.4865 23.7318C15.0527 23.7909 14.6098 23.8219 14.1592 23.8219C8.82259 23.8219 4.4964 19.4957 4.4964 14.159Z" fill="#D0E2E7"/>
<path d="M20.1499 13.777L18.9219 14.9742C18.5437 15.3427 18.371 15.8735 18.4605 16.3938L18.7503 18.0841C18.975 19.3943 17.6001 20.3934 16.4233 19.7747L14.9054 18.9768C14.4383 18.7308 13.8801 18.7308 13.4129 18.9768L11.895 19.7747C10.7182 20.3934 9.34327 19.3942 9.56799 18.0841L9.85782 16.3938C9.94725 15.8735 9.77457 15.3427 9.39643 14.9742L8.16835 13.777C7.21667 12.8492 7.74204 11.233 9.05724 11.0418L10.7544 10.7951C11.2767 10.7192 11.7284 10.3912 11.962 9.91785L12.7209 8.37991C13.0151 7.78401 13.5871 7.48602 14.1591 7.48602C14.7311 7.48602 15.3032 7.78401 15.5973 8.37991L16.3562 9.91785C16.5898 10.3912 17.0416 10.7192 17.5639 10.7951L19.261 11.0418C20.5763 11.233 21.1016 12.8492 20.1499 13.777Z" fill="#F9DA41"/>
<path d="M10.2679 13.9851C10.7702 15.2618 11.5149 16.1155 10.9918 17.3209C10.4688 18.5266 10.7331 20.1101 13.4129 18.9768L11.895 19.7747C10.7182 20.3934 9.34327 19.3943 9.56799 18.0841L9.85782 16.3939C9.94725 15.8735 9.77457 15.3427 9.39643 14.9743L8.16835 13.7771C7.21667 12.8493 7.74204 11.233 9.05724 11.0419L10.7544 10.7952C11.2767 10.7193 11.7284 10.3913 11.962 9.91791L12.7209 8.37997C13.0151 7.78407 13.5871 7.48608 14.1591 7.48608C13.0305 7.48608 13.4996 10.7409 11.8837 11.5947C10.2679 12.4487 9.76571 12.7085 10.2679 13.9851Z" fill="#EDC932"/>
</g>
<defs>
<clipPath id="clip0_0_255">
<rect width="36" height="36" fill="white"/>
</clipPath>
</defs>
</svg>
