<svg width="57" height="56" viewBox="0 0 57 56" fill="none" xmlns="http://www.w3.org/2000/svg">
<g clip-path="url(#clip0_211_6657)">
<path d="M18.0572 7.59909C23.8162 1.84328 33.1838 1.84328 38.9429 7.59909C39.584 8.24001 40.6223 8.24001 41.2632 7.59909C41.9041 6.95817 41.9041 5.91972 41.2632 5.2788C34.2255 -1.75895 22.7747 -1.75895 15.7369 5.2788C15.096 5.91972 15.096 6.95817 15.7369 7.59909C16.3778 8.24001 17.4162 8.24001 18.0572 7.59909ZM20.379 9.9209C19.7381 10.5618 19.7381 11.6003 20.379 12.2412C21.0199 12.8821 22.0584 12.8821 22.6993 12.2412C25.7919 9.14861 31.208 9.14861 34.3007 12.2412C34.9418 12.8821 35.9801 12.8821 36.621 12.2412C37.2619 11.6003 37.2619 10.5618 36.621 9.9209C32.288 5.58805 24.7119 5.58805 20.379 9.9209ZM48.1903 49.4371H21.9365C21.0296 49.4371 20.2957 50.171 20.2957 51.0779C20.2957 51.9849 21.0296 52.7188 21.9365 52.7188H48.1903C49.0972 52.7188 49.8311 51.9849 49.8311 51.0779C49.8311 50.171 49.0972 49.4371 48.1903 49.4371ZM48.1903 16.4011H8.80965C7.90269 16.4011 7.16879 17.135 7.16879 18.042V41.2328C7.16879 42.1397 7.90269 42.8736 8.80965 42.8736H48.1903C49.0972 42.8736 49.8311 42.1397 49.8311 41.2328V18.042C49.8311 17.135 49.0972 16.4011 48.1903 16.4011ZM15.3731 49.4371H8.80965C7.90269 49.4371 7.16879 50.171 7.16879 51.0779C7.16879 51.9849 7.90269 52.7188 8.80965 52.7188H15.3731C16.28 52.7188 17.0139 51.9849 17.0139 51.0779C17.0139 50.171 16.28 49.4371 15.3731 49.4371Z" fill="url(#paint0_linear_211_6657)"/>
<path d="M34.267 28.2303L26.0627 23.3077C25.5564 23.0048 24.9251 22.9953 24.4091 23.2869C23.8947 23.5786 23.5774 24.1233 23.5774 24.7147V34.5598C23.5774 35.1511 23.8946 35.696 24.4091 35.9876C24.923 36.279 25.5545 36.271 26.0627 35.9668L34.267 31.0442C34.7606 30.7478 35.0634 30.2142 35.0634 29.6374C35.0634 29.0606 34.7606 28.5267 34.267 28.2303ZM18.6548 46.1552C15.9404 46.1552 13.7322 48.3634 13.7322 51.0778C13.7322 53.7922 15.9404 56.0004 18.6548 56.0004C21.3692 56.0004 23.5774 53.7922 23.5774 51.0778C23.5774 48.3634 21.3693 46.1552 18.6548 46.1552Z" fill="url(#paint1_linear_211_6657)"/>
</g>
<defs>
<linearGradient id="paint0_linear_211_6657" x1="28.5" y1="52.7188" x2="28.5" y2="0.000488281" gradientUnits="userSpaceOnUse">
<stop stop-color="#FD3A84"/>
<stop offset="1" stop-color="#FFA68D"/>
</linearGradient>
<linearGradient id="paint1_linear_211_6657" x1="24.3978" y1="56.0004" x2="24.3978" y2="23.0743" gradientUnits="userSpaceOnUse">
<stop stop-color="#FFC2CC"/>
<stop offset="1" stop-color="#FFF2F4"/>
</linearGradient>
<clipPath id="clip0_211_6657">
<rect width="56" height="56" fill="white" transform="translate(0.5 0.000488281)"/>
</clipPath>
</defs>
</svg>
