<svg width="106" height="97" viewBox="0 0 106 97" fill="none" xmlns="http://www.w3.org/2000/svg">
<g filter="url(#filter0_dd_0_30)">
<path fill-rule="evenodd" clip-rule="evenodd" d="M45.8398 25.6867C35.5019 28.7989 30.566 35.8545 31.0321 46.8538C33.3684 40.583 37.3224 37.3043 42.8942 37.0176C46.078 36.8526 48.8067 38.3361 51.8379 39.9543C56.7787 42.6254 62.531 45.702 72.1525 42.8055C82.5073 39.6883 87.4432 32.6326 86.9602 21.6385C84.6168 27.916 80.6628 31.1947 75.0981 31.4746C71.9206 31.6377 69.1856 30.1561 66.1298 28.5249C61.1953 25.8518 55.4676 22.7884 45.8398 25.6867ZM33.3373 54.511C22.9825 57.6282 18.0466 64.6839 18.5296 75.6781C20.8827 69.4022 24.8367 66.1235 30.3917 65.8419C33.5692 65.6788 36.3042 67.1604 39.3619 68.7979C44.3008 71.4628 50.055 74.5456 59.6765 71.6492C70.0312 68.532 74.9671 61.4763 74.4842 50.4821C72.1226 56.7606 68.1674 60.0351 62.6183 60.3057C59.4408 60.4689 56.7058 58.9873 53.65 57.356C48.7092 54.6849 42.955 51.602 33.3335 54.4985L33.3373 54.511Z" stroke="#EEE0FF" stroke-width="1.3" stroke-miterlimit="10"/>
</g>
<defs>
<filter id="filter0_dd_0_30" x="0.207352" y="0.77626" width="105.075" height="95.7524" filterUnits="userSpaceOnUse" color-interpolation-filters="sRGB">
<feFlood flood-opacity="0" result="BackgroundImageFix"/>
<feColorMatrix in="SourceAlpha" type="matrix" values="0 0 0 0 0 0 0 0 0 0 0 0 0 0 0 0 0 0 127 0" result="hardAlpha"/>
<feOffset/>
<feGaussianBlur stdDeviation="4.41"/>
<feColorMatrix type="matrix" values="0 0 0 0 1 0 0 0 0 0.168627 0 0 0 0 0.835294 0 0 0 1 0"/>
<feBlend mode="normal" in2="BackgroundImageFix" result="effect1_dropShadow_0_30"/>
<feColorMatrix in="SourceAlpha" type="matrix" values="0 0 0 0 0 0 0 0 0 0 0 0 0 0 0 0 0 0 127 0" result="hardAlpha"/>
<feOffset/>
<feGaussianBlur stdDeviation="8.82"/>
<feColorMatrix type="matrix" values="0 0 0 0 1 0 0 0 0 0.168627 0 0 0 0 0.835294 0 0 0 1 0"/>
<feBlend mode="normal" in2="effect1_dropShadow_0_30" result="effect2_dropShadow_0_30"/>
<feBlend mode="normal" in="SourceGraphic" in2="effect2_dropShadow_0_30" result="shape"/>
</filter>
</defs>
</svg>
