<svg width="36" height="36" viewBox="0 0 36 36" fill="none" xmlns="http://www.w3.org/2000/svg">
<path d="M21.4269 1.96967H22.8501V4.5791H21.4269V1.96967Z" fill="#A3A3CC"/>
<path fill-rule="evenodd" clip-rule="evenodd" d="M24.497 5.65521L26.9348 6.66645L28.1493 5.85195L31.0881 8.7908L30.2737 10.0052L31.2849 12.4431L32.7184 12.7258V16.8817L31.2849 17.1644L30.2737 19.6022L31.0881 20.8167L28.1493 23.7555L26.9348 22.941L24.497 23.9523L24.2144 25.3858H20.0584L19.7757 23.9523L17.3379 22.941L16.1234 23.7555L13.1846 20.8167L13.999 19.6022L12.9878 17.1644L11.5543 16.8817V12.7258L12.9878 12.4431L13.999 10.0052L13.1846 8.7908L16.1234 5.85195L17.3379 6.66645L19.7757 5.65521L20.0584 4.22168H24.2144L24.497 5.65521Z" fill="#F89B00"/>
<path fill-rule="evenodd" clip-rule="evenodd" d="M24.497 5.65521L27.224 6.7864L28.3372 6.03989L31.0881 8.7908L30.2737 10.0052L31.2849 12.4431L32.7184 12.7258V16.8817L31.2849 17.1644L30.2737 19.6022L31.0881 20.8167L28.3372 23.5676L27.224 22.8211L24.497 23.9523L24.2144 25.3857H20.5747L20.2721 23.8508L17.621 22.7511L16.5669 23.4581L13.9256 20.8167L14.74 19.6022L13.7287 17.1644L12.2953 16.8817V12.7258L13.7287 12.4431L14.74 10.0052L13.9256 8.7908L16.5669 6.14937L17.621 6.85629L20.2721 5.75667L20.5747 4.22168H24.2144L24.497 5.65521Z" fill="#F9AC00"/>
<path d="M22.1364 22.0436C26.1348 22.0436 29.3762 18.8022 29.3762 14.8037C29.3762 10.8052 26.1348 7.56384 22.1364 7.56384C18.1379 7.56384 14.8965 10.8052 14.8965 14.8037C14.8965 18.8022 18.1379 22.0436 22.1364 22.0436Z" fill="#D3D3F2"/>
<path fill-rule="evenodd" clip-rule="evenodd" d="M21.8989 22.0393C18.0104 21.9139 14.8965 18.7227 14.8965 14.8037C14.8965 10.8847 18.0104 7.69348 21.8989 7.56812C25.7874 7.69348 28.9013 10.8848 28.9013 14.8037C28.9013 18.7226 25.7873 21.9139 21.8989 22.0393Z" fill="#E9E9FF"/>
<path fill-rule="evenodd" clip-rule="evenodd" d="M25.0084 9.12171C25.1047 8.95408 25.3187 8.89628 25.4863 8.99261C25.6539 9.08894 25.7117 9.3029 25.6154 9.47053L25.3485 9.93269C25.2522 10.1003 25.0383 10.1581 24.8706 10.0618C24.703 9.96546 24.6452 9.75149 24.7415 9.58387L25.0084 9.12171ZM27.4591 11.3157C27.6267 11.2186 27.8413 11.2758 27.9384 11.4434C28.0355 11.611 27.9782 11.8256 27.8107 11.9227L27.3485 12.1895C27.1809 12.2865 26.9663 12.2294 26.8693 12.0618C26.7722 11.8941 26.8294 11.6795 26.997 11.5825L27.4591 11.3157ZM28.4852 14.4409C28.6793 14.4409 28.8367 14.5983 28.8367 14.7925C28.8367 14.9866 28.6793 15.144 28.4852 15.144H27.9515C27.7574 15.144 27.5999 14.9866 27.5999 14.7925C27.5999 14.5983 27.7574 14.4409 27.9515 14.4409H28.4852ZM27.8093 17.6624C27.9769 17.7587 28.0347 17.9726 27.9384 18.1403C27.842 18.3079 27.6281 18.3657 27.4605 18.2694L26.9983 18.0025C26.8307 17.9062 26.7729 17.6922 26.8692 17.5246C26.9655 17.357 27.1795 17.2992 27.3471 17.3955L27.8093 17.6624ZM25.6153 20.1145C25.7116 20.2821 25.6538 20.4961 25.4862 20.5924C25.3186 20.6887 25.1046 20.6309 25.0083 20.4633L24.7415 20.0012C24.6451 19.8335 24.7029 19.6196 24.8706 19.5232C25.0382 19.4269 25.2521 19.4847 25.3485 19.6523L25.6153 20.1145ZM22.4901 21.1392C22.4901 21.3334 22.3326 21.4908 22.1385 21.4908C21.9444 21.4908 21.7869 21.3334 21.7869 21.1392V20.6056C21.7869 20.4114 21.9444 20.254 22.1385 20.254C22.3326 20.254 22.4901 20.4114 22.4901 20.6056V21.1392ZM19.2686 20.4633C19.1723 20.6309 18.9583 20.6887 18.7907 20.5924C18.6231 20.4961 18.5653 20.2821 18.6616 20.1145L18.9284 19.6523C19.0248 19.4847 19.2387 19.4269 19.4064 19.5232C19.574 19.6196 19.6318 19.8335 19.5355 20.0012L19.2686 20.4633ZM16.8165 18.2694C16.6488 18.3657 16.4349 18.3079 16.3386 18.1403C16.2422 17.9726 16.3 17.7587 16.4677 17.6624L16.9298 17.3955C17.0974 17.2992 17.3114 17.357 17.4077 17.5246C17.5041 17.6922 17.4463 17.9062 17.2786 18.0025L16.8165 18.2694ZM15.7918 15.1441C15.5977 15.1441 15.4402 14.9867 15.4402 14.7925C15.4402 14.5984 15.5977 14.441 15.7918 14.441H16.3255C16.5196 14.441 16.677 14.5984 16.677 14.7925C16.677 14.9867 16.5196 15.1441 16.3255 15.1441H15.7918ZM16.4663 11.9227C16.2987 11.8256 16.2415 11.611 16.3386 11.4434C16.4357 11.2758 16.6503 11.2186 16.8179 11.3157L17.28 11.5825C17.4477 11.6795 17.5048 11.8942 17.4077 12.0618C17.3107 12.2294 17.0961 12.2865 16.9285 12.1895L16.4663 11.9227ZM18.6616 9.47053C18.5653 9.3029 18.6231 9.08894 18.7907 8.99261C18.9583 8.89628 19.1723 8.95408 19.2686 9.12171L19.5355 9.58387C19.6318 9.75149 19.574 9.96546 19.4064 10.0618C19.2387 10.1581 19.0248 10.1003 18.9284 9.93269L18.6616 9.47053ZM21.7869 8.44586C21.7869 8.25173 21.9443 8.0943 22.1384 8.0943C22.3326 8.0943 22.49 8.25173 22.49 8.44586V8.97953C22.49 9.17367 22.3326 9.3311 22.1384 9.3311C21.9443 9.3311 21.7869 9.17367 21.7869 8.97953V8.44586Z" fill="#A3A3CC"/>
<path fill-rule="evenodd" clip-rule="evenodd" d="M22.4901 14.7924C22.4901 14.9866 22.3326 15.144 22.1385 15.144C21.9444 15.144 21.7869 14.9866 21.7869 14.7924V11.0347C21.7869 10.8405 21.9444 10.6831 22.1385 10.6831C22.3326 10.6831 22.4901 10.8405 22.4901 11.0347V14.7924Z" fill="#A3A3CC"/>
<path fill-rule="evenodd" clip-rule="evenodd" d="M22.1386 15.5001C22.5283 15.5001 22.8461 15.1822 22.8461 14.7925C22.8461 14.4028 22.5283 14.085 22.1386 14.085C21.7489 14.085 21.431 14.4028 21.431 14.7925C21.431 15.1822 21.7489 15.5001 22.1386 15.5001Z" fill="#F9AC00"/>
<path d="M24.2382 0.771912H20.0389C19.8491 0.771912 19.6953 0.925754 19.6953 1.11553V2.05308C19.6953 2.24285 19.8491 2.39669 20.0389 2.39669H24.2382C24.428 2.39669 24.5818 2.24285 24.5818 2.05308V1.11553C24.5818 0.925754 24.428 0.771912 24.2382 0.771912Z" fill="#5D689E"/>
<path fill-rule="evenodd" clip-rule="evenodd" d="M22.7282 23.2395C22.6794 22.3797 21.9993 21.547 20.4755 21.5068C18.0494 21.4426 17.1909 21.3686 14.7524 21.0703C13.1952 20.8798 11.9098 21.8463 10.7284 22.8786C8.73252 24.6225 7.56111 25.3709 5.28186 26.7234L10.3861 32.5649C12.9035 29.9275 14.4185 29.6915 16.9676 29.7406C19.3634 29.7865 19.6503 29.9635 21.9861 28.9608L32.3084 24.1247C34.9196 22.9013 33.1356 20.3525 31.0188 21.295C28.463 22.4326 24.1993 23.7493 22.6039 24.0088C22.6998 23.7864 22.7449 23.5315 22.7283 23.2395H22.7282Z" fill="#FDD7AD"/>
<path fill-rule="evenodd" clip-rule="evenodd" d="M22.7283 23.2394C22.6895 22.5562 22.252 21.8901 21.3094 21.6252C21.5842 21.9484 21.7273 22.3702 21.7483 22.7392C21.7677 23.0713 21.6774 23.3253 21.4647 23.5372C20.4653 24.5335 17.3226 24.3442 15.813 24.2527C15.557 24.2372 15.3365 24.2243 15.1521 24.2166C14.8241 24.2044 14.5482 24.4601 14.5352 24.7887C14.5229 25.1167 14.7789 25.3937 15.1072 25.4056C15.2775 25.4124 15.493 25.4252 15.7415 25.4402C18.2498 25.5919 21.0333 25.6477 22.305 24.3798C22.4197 24.265 22.5198 24.142 22.604 24.0089C22.6999 23.7865 22.7449 23.5316 22.7283 23.2396L22.7283 23.2394ZM9.11366 31.1738L9.84231 30.4501C12.1903 28.2608 14.2726 28.3228 16.5273 28.3673C18.495 28.4023 19.3833 28.7296 21.357 27.8837L32.0428 22.9524C32.8069 22.5945 33.1507 22.0846 32.939 21.6217C32.87 21.4707 32.7097 21.3022 32.4911 21.1708C33.7557 21.5535 34.2613 23.2096 32.3084 24.1245L21.9861 28.9606C19.6503 29.9634 19.3635 29.7864 16.9676 29.7404C14.4185 29.6913 12.9035 29.9273 10.386 32.5647L9.11359 31.1736L9.11366 31.1738Z" fill="#E6B17C"/>
<path fill-rule="evenodd" clip-rule="evenodd" d="M2.6259 29.1342L7.66562 34.9019C8.01198 35.2983 8.61983 35.3393 9.01625 34.9929L10.5534 33.6498C10.9498 33.3034 10.9908 32.6957 10.6444 32.2992L5.60469 26.5314C5.25833 26.135 4.65048 26.0941 4.25412 26.4404L2.71695 27.7836C2.3206 28.1299 2.27954 28.7378 2.6259 29.1342Z" fill="#2A92FA"/>
<path fill-rule="evenodd" clip-rule="evenodd" d="M6.60333 33.6862L7.66561 34.9019C8.01197 35.2984 8.61982 35.3393 9.01625 34.9929L10.5534 33.6498C10.9498 33.3035 10.9908 32.6957 10.6444 32.2992L9.40683 30.8829L6.6034 33.6862L6.60333 33.6862Z" fill="#0E82F5"/>
</svg>
