<svg width="48" height="48" viewBox="0 0 48 48" fill="none" xmlns="http://www.w3.org/2000/svg">
<path d="M40.5 6.375H7.5C5.22183 6.375 3.375 8.22183 3.375 10.5V31.5C3.375 33.7782 5.22183 35.625 7.5 35.625H40.5C42.7782 35.625 44.625 33.7782 44.625 31.5V10.5C44.625 8.22183 42.7782 6.375 40.5 6.375Z" fill="url(#paint0_linear_211_6102)"/>
<path d="M41.625 40.5C41.6248 40.9972 41.4272 41.474 41.0756 41.8256C40.724 42.1772 40.2472 42.3748 39.75 42.375H8.25C7.75272 42.375 7.27581 42.1775 6.92417 41.8258C6.57254 41.4742 6.375 40.9973 6.375 40.5C6.375 40.0027 6.57254 39.5258 6.92417 39.1742C7.27581 38.8225 7.75272 38.625 8.25 38.625H39.75C40.2472 38.6252 40.724 38.8228 41.0756 39.1744C41.4272 39.526 41.6248 40.0028 41.625 40.5Z" fill="url(#paint1_linear_211_6102)"/>
<path d="M28.125 40.5C28.1248 40.9972 27.9272 41.474 27.5756 41.8256C27.224 42.1772 26.7472 42.3748 26.25 42.375H8.25C7.75272 42.375 7.27581 42.1775 6.92417 41.8258C6.57254 41.4742 6.375 40.9973 6.375 40.5C6.375 40.0027 6.57254 39.5258 6.92417 39.1742C7.27581 38.8225 7.75272 38.625 8.25 38.625H26.25C26.7472 38.6252 27.224 38.8228 27.5756 39.1744C27.9272 39.526 28.1248 40.0028 28.125 40.5Z" fill="url(#paint2_linear_211_6102)"/>
<path d="M31.1865 18.706L22.2751 13.7548C21.8756 13.5328 21.425 13.4189 20.9679 13.4245C20.5109 13.4301 20.0632 13.5549 19.6692 13.7867C19.2752 14.0184 18.9485 14.349 18.7215 14.7458C18.4945 15.1425 18.3751 15.5917 18.375 16.0488V25.9511C18.3736 26.4088 18.4922 26.8588 18.7188 27.2564C18.9454 27.654 19.2723 27.9854 19.6667 28.2174C20.0612 28.4494 20.5096 28.5741 20.9673 28.5789C21.4249 28.5838 21.8758 28.4687 22.2751 28.2451L31.1865 23.2939C31.5958 23.0668 31.9369 22.7343 32.1744 22.331C32.4118 21.9276 32.5371 21.468 32.5371 21C32.5371 20.5319 32.4118 20.0723 32.1744 19.669C31.9369 19.2656 31.5958 18.9331 31.1865 18.706Z" fill="white"/>
<defs>
<linearGradient id="paint0_linear_211_6102" x1="3.29097" y1="21" x2="44.7092" y2="21" gradientUnits="userSpaceOnUse">
<stop offset="0.0001" stop-color="#E855DE"/>
<stop offset="0.827956" stop-color="#6D0FEB"/>
<stop offset="1" stop-color="#5400EE"/>
</linearGradient>
<linearGradient id="paint1_linear_211_6102" x1="6.3032" y1="40.5" x2="41.6969" y2="40.5" gradientUnits="userSpaceOnUse">
<stop offset="0.0001" stop-color="#E855DE"/>
<stop offset="0.827956" stop-color="#6D0FEB"/>
<stop offset="1" stop-color="#5400EE"/>
</linearGradient>
<linearGradient id="paint2_linear_211_6102" x1="6.3307" y1="40.5" x2="28.1694" y2="40.5" gradientUnits="userSpaceOnUse">
<stop offset="0.0001" stop-color="#E855DE"/>
<stop offset="0.827956" stop-color="#6D0FEB"/>
<stop offset="1" stop-color="#5400EE"/>
</linearGradient>
</defs>
</svg>
