<svg width="36" height="36" viewBox="0 0 36 36" fill="none" xmlns="http://www.w3.org/2000/svg">
<path d="M2.81279 2.24731C1.88765 2.24731 1.12695 3.0121 1.12695 3.93724V21.9376C1.12695 22.8627 1.88765 23.6234 2.81279 23.6234H30.9364C31.8616 23.6234 32.6264 22.8627 32.6264 21.9376V3.93724C32.6264 3.0121 31.8616 2.24731 30.9364 2.24731H2.81279Z" fill="#E7EBEF"/>
<path d="M28.6864 2.24707C29.6115 2.24707 30.3761 3.0127 30.3761 3.93784V20.8128C30.3761 21.738 29.6115 22.4982 28.6864 22.4982H2.8125C1.88735 22.4982 1.1272 21.738 1.1272 20.8128V21.9378C1.1272 22.863 1.88735 23.6231 2.8125 23.6231H30.9364C31.8615 23.6231 32.6261 22.863 32.6261 21.9378V3.93784C32.6261 3.0127 31.8615 2.24707 30.9364 2.24707H28.6864Z" fill="#DBE1E7"/>
<path d="M6.19247 24.7487C4.64407 24.7487 3.3772 26.0114 3.3772 27.5598V28.1245C3.3772 29.6729 4.64407 30.9357 6.19247 30.9357C7.74086 30.9357 9.00358 29.6729 9.00358 28.1245V27.5598C9.00358 26.0114 7.74086 24.7487 6.19247 24.7487Z" fill="#FDD5A6"/>
<path d="M29.8111 24.7487C28.2627 24.7487 27 26.0114 27 27.5598V28.1245C27 29.6729 28.2627 30.9357 29.8111 30.9357C31.3595 30.9357 32.6264 29.6729 32.6264 28.1245V27.5598C32.6264 26.0114 31.3595 24.7487 29.8111 24.7487Z" fill="#FDD5A6"/>
<path d="M6.19226 24.748C5.79186 24.748 5.41187 24.8357 5.06616 24.9876C6.05666 25.4231 6.75366 26.4111 6.75366 27.5595V28.1241C6.75366 29.2725 6.05666 30.2605 5.06616 30.696C5.41187 30.848 5.79186 30.9356 6.19226 30.9356C7.74065 30.9356 9.00366 29.6725 9.00366 28.1241V27.5595C9.00366 26.0111 7.74065 24.748 6.19226 24.748Z" fill="#FDCC93"/>
<path d="M29.8151 24.748C29.4147 24.748 29.0347 24.8357 28.689 24.9876C29.6795 25.4231 30.3765 26.4111 30.3765 27.5595V28.1241C30.3765 29.2725 29.6795 30.2605 28.689 30.696C29.0347 30.848 29.4147 30.9356 29.8151 30.9356C31.3635 30.9356 32.6265 29.6725 32.6265 28.1241V27.5595C32.6265 26.0111 31.3635 24.748 29.8151 24.748Z" fill="#FDCC93"/>
<path d="M17.9981 24.7487C16.4497 24.7487 15.1829 26.0114 15.1829 27.5598V28.1245C15.1829 29.6729 16.4497 30.9357 17.9981 30.9357C19.5465 30.9357 20.8092 29.6729 20.8092 28.1245V27.5598C20.8092 26.0114 19.5465 24.7487 17.9981 24.7487Z" fill="#FDD5A6"/>
<path d="M17.9982 24.748C17.5978 24.748 17.2178 24.8357 16.8721 24.9876C17.8626 25.4231 18.5596 26.4111 18.5596 27.5595V28.1241C18.5596 29.2725 17.8626 30.2605 16.8721 30.696C17.2178 30.848 17.5978 30.9356 17.9982 30.9356C19.5466 30.9356 20.8096 29.6725 20.8096 28.1241V27.5595C20.8096 26.0111 19.5466 24.748 17.9982 24.748Z" fill="#FDCC93"/>
<path d="M3.93801 4.49781C3.86377 4.49752 3.79021 4.51196 3.72156 4.54024C3.65292 4.56852 3.59055 4.61011 3.53806 4.6626C3.48556 4.7151 3.44398 4.77744 3.4157 4.84608C3.38742 4.91473 3.37301 4.98835 3.3733 5.06259V20.8122C3.37356 20.8861 3.38837 20.9593 3.4169 21.0275C3.44542 21.0956 3.48709 21.1574 3.53953 21.2095C3.59197 21.2616 3.65416 21.3028 3.72253 21.3308C3.7909 21.3588 3.86412 21.3731 3.93801 21.3728H29.8111C29.885 21.3731 29.9582 21.3588 30.0266 21.3308C30.0949 21.3028 30.1571 21.2616 30.2095 21.2095C30.262 21.1574 30.3037 21.0956 30.3322 21.0275C30.3607 20.9593 30.3755 20.8861 30.3758 20.8122V5.06259C30.3761 4.98835 30.3617 4.91473 30.3334 4.84608C30.3051 4.77744 30.2635 4.7151 30.211 4.6626C30.1585 4.61011 30.0962 4.56852 30.0275 4.54024C29.9589 4.51196 29.8853 4.49752 29.8111 4.49781H3.93801Z" fill="#68B1FC"/>
<path d="M4.50279 29.8103C2.64278 29.8103 1.12698 31.3261 1.12696 33.1861V34.3114C1.12667 34.3856 1.14109 34.4593 1.16937 34.5279C1.19764 34.5966 1.23923 34.6589 1.29173 34.7114C1.34422 34.7639 1.40659 34.8055 1.47523 34.8338C1.54387 34.862 1.61743 34.8764 1.69167 34.8761H10.6897C10.764 34.8764 10.8375 34.862 10.9062 34.8338C10.9748 34.8055 11.0372 34.7639 11.0897 34.7114C11.1422 34.6589 11.1838 34.5966 11.212 34.5279C11.2403 34.4593 11.2547 34.3856 11.2544 34.3114V33.1861C11.2544 31.3261 9.73863 29.8103 7.87862 29.8103H4.50279Z" fill="#FC6067"/>
<path d="M19.6882 29.8103C21.5482 29.8103 23.064 31.3261 23.064 33.1861V34.3114C23.0643 34.3856 23.0499 34.4593 23.0216 34.5279C22.9933 34.5966 22.9517 34.6589 22.8992 34.7114C22.8468 34.7639 22.7844 34.8055 22.7157 34.8338C22.6471 34.862 22.5735 34.8764 22.4993 34.8761H13.5012C13.427 34.8764 13.3534 34.862 13.2848 34.8338C13.2162 34.8055 13.1538 34.7639 13.1013 34.7114C13.0488 34.6589 13.0072 34.5966 12.9789 34.5279C12.9507 34.4593 12.9362 34.3856 12.9365 34.3114V33.1861C12.9365 31.3261 14.4524 29.8103 16.3124 29.8103H19.6882Z" fill="#68B1FC"/>
<path d="M31.5053 29.8103C33.3653 29.8103 34.877 31.3261 34.877 33.1861V34.3114C34.8773 34.3853 34.863 34.4586 34.835 34.5269C34.807 34.5953 34.7658 34.6575 34.7137 34.7099C34.6616 34.7623 34.5998 34.804 34.5316 34.8325C34.4634 34.861 34.3903 34.8759 34.3164 34.8761H25.3184C25.2441 34.8764 25.1706 34.862 25.1019 34.8338C25.0333 34.8055 24.9709 34.7639 24.9184 34.7114C24.8659 34.6589 24.8244 34.5966 24.7961 34.5279C24.7678 34.4593 24.7534 34.3856 24.7537 34.3114V33.1861C24.7537 31.3261 26.2695 29.8103 28.1295 29.8103H31.5053Z" fill="#59E78B"/>
<path d="M20.2493 33.7515H13.5015C13.1891 33.7526 12.9356 33.4991 12.9368 33.1868V34.3118C12.9356 34.6241 13.1891 34.8777 13.5015 34.8765H22.4993C22.8116 34.8776 23.0652 34.6241 23.064 34.3118V33.1857C23.0639 31.3256 21.5479 29.8107 19.6879 29.8107H17.4379C19.2979 29.8107 20.8139 31.3257 20.814 33.1862C20.8151 33.4992 20.5616 33.7527 20.2493 33.7515Z" fill="#4FA4FB"/>
<path d="M32.0623 33.7515H25.3145C25.0021 33.7526 24.7486 33.4991 24.7498 33.1868V34.3118C24.7486 34.6241 25.0021 34.8777 25.3145 34.8765H34.3123C34.6246 34.8776 34.8781 34.6241 34.877 34.3118V33.1857C34.8769 31.3256 33.3609 29.8107 31.5009 29.8107H29.2509C31.1109 29.8107 32.6269 31.3257 32.627 33.1862C32.6281 33.4992 32.3746 33.7527 32.0623 33.7515Z" fill="#41E37A"/>
<path d="M8.4397 33.7515H1.69189C1.37952 33.7526 1.126 33.4991 1.1272 33.1868V34.3118C1.12608 34.6241 1.37953 34.8777 1.69189 34.8765H10.6897C11.0021 34.8776 11.2556 34.6241 11.2544 34.3118V33.1857C11.2544 31.3256 9.73831 29.8107 7.8783 29.8107H5.6283C7.48831 29.8107 9.00437 31.3257 9.0044 33.1862C9.00552 33.4992 8.75208 33.7527 8.4397 33.7515Z" fill="#FB4F56"/>
<path d="M3.9386 4.49818C3.62581 4.4965 3.37161 4.75003 3.37281 5.06283V20.8129C3.37393 21.1239 3.62752 21.375 3.9386 21.3732H6.1886C5.87785 21.3743 5.62391 21.1236 5.62281 20.8129V6.18784C5.62168 5.87547 5.87622 5.62198 6.1886 5.62319H29.8114C30.1238 5.62207 30.3773 5.87547 30.3761 6.18784V5.06283C30.3772 4.75048 30.1238 4.49699 29.8114 4.49818H3.9386Z" fill="#4FA4FB"/>
<path d="M18.5625 1.12646C17.6374 1.12646 16.8772 1.88658 16.8772 2.81172V11.8095C16.8772 12.7347 17.6374 13.5003 18.5625 13.5003H19.1228V16.3106C19.1222 16.4187 19.1528 16.5246 19.2108 16.6158C19.2689 16.7069 19.3519 16.7794 19.4501 16.8246C19.5482 16.8698 19.6573 16.8858 19.7643 16.8706C19.8713 16.8554 19.9716 16.8098 20.0533 16.7391L23.8315 13.5003H33.1864C34.1115 13.5003 34.8772 12.7347 34.8772 11.8095V2.81172C34.8772 1.88658 34.1115 1.12646 33.1864 1.12646H18.5625Z" fill="#FC6067"/>
<path d="M23.0637 4.49814V10.1243C23.0638 10.5652 23.5482 10.8346 23.9229 10.6022L28.424 7.79072C28.7771 7.57049 28.7771 7.05627 28.424 6.83602L23.9229 4.02023C23.585 3.80891 23.0637 4.01386 23.0637 4.49814Z" fill="#E7EBEF"/>
<path d="M30.9364 1.12646C31.8616 1.12646 32.6272 1.88658 32.6272 2.81172V10.6846C32.6272 11.6097 31.8616 12.3753 30.9364 12.3753H23.8316L20.0534 15.6141C19.6879 15.9302 19.12 15.6687 19.1228 15.1856V16.3106C19.12 16.7938 19.6879 17.0552 20.0534 16.7391L23.8316 13.5003H33.1864C34.1116 13.5003 34.8772 12.7347 34.8772 11.8095V2.81172C34.8772 1.88658 34.1116 1.12646 33.1864 1.12646H30.9364Z" fill="#FB4F56"/>
<path d="M8.99939 16.8776C7.13938 16.8776 5.62329 18.3881 5.62329 20.2481V21.3721H18.0016V20.2481C18.0016 18.3881 16.4866 16.8776 14.6266 16.8776H8.99939Z" fill="#FCBC60"/>
<path d="M12.3762 16.8776C14.2362 16.8776 15.7512 18.3881 15.7512 20.2481V21.3721H18.0012V20.2481C18.0012 18.3881 16.4862 16.8776 14.6262 16.8776H12.3762Z" fill="#FBB04F"/>
<path d="M9.56425 14.6263V17.4378C9.5637 17.4809 9.56829 17.5241 9.57743 17.5664C9.57743 17.5664 9.67655 17.9837 10.0092 18.3673C10.3418 18.7509 10.9553 19.1232 11.8154 19.1232C12.6754 19.1232 13.2845 18.7509 13.6171 18.3673C13.9497 17.9837 14.0489 17.5664 14.0489 17.5664C14.0582 17.5243 14.0627 17.4812 14.0621 17.4378V14.6263H9.56425Z" fill="#FDD5A6"/>
<path d="M9.56421 14.6263V16.8225C10.2283 17.2103 10.9966 17.4367 11.8153 17.4367C12.6329 17.4367 13.3991 17.2106 14.062 16.8236V14.6263H9.56421Z" fill="#FDCC93"/>
<path d="M8.43921 10.6855V12.9367C8.43919 14.7967 9.95529 16.3117 11.8153 16.3117C13.6753 16.3117 15.187 14.7967 15.187 12.9367V10.6855H8.43921Z" fill="#FDD5A6"/>
<path d="M12.9369 10.6855V12.9367C12.9369 14.4018 11.9975 15.6499 10.6902 16.115C11.0428 16.2405 11.4203 16.3117 11.8152 16.3117C13.6752 16.3117 15.1869 14.7967 15.1869 12.9367V10.6855H12.9369Z" fill="#FDCC93"/>
<path d="M11.2506 6.74915C9.39059 6.74915 7.87451 8.26521 7.87452 10.1252V11.8106C7.87283 12.1234 8.12642 12.3776 8.43921 12.3764H10.1245C11.5606 12.3764 13.0443 11.6414 13.4182 11.4008L14.2279 12.2094C14.3333 12.3159 14.4768 12.3761 14.6267 12.3765H15.187C15.4998 12.3776 15.7535 12.1235 15.7517 11.8107V10.1254C15.7517 8.26532 14.2356 6.74928 12.3756 6.74928L11.2506 6.74915Z" fill="#5A626E"/>
<path d="M11.2505 6.74915C11.0585 6.74915 10.8714 6.77045 10.688 6.80085C12.2811 7.07032 13.5016 8.45725 13.5016 10.1253V11.4843L14.2278 12.2094C14.3332 12.3159 14.4767 12.3761 14.6266 12.3765H15.1869C15.4997 12.3776 15.7534 12.1235 15.7516 11.8107V10.1254C15.7516 8.26539 14.2355 6.74928 12.3755 6.74928L11.2505 6.74915Z" fill="#515663"/>
</svg>
