<svg width="40" height="40" viewBox="0 0 40 40" fill="none" xmlns="http://www.w3.org/2000/svg">
<path d="M20.625 1.25171C19.817 1.25171 19.1289 1.77658 18.8684 2.49928H3.12502C2.09708 2.49928 1.25002 3.3463 1.25002 4.37423V10.6243C1.23802 11.4695 2.51205 11.4695 2.50002 10.6243V4.37423C2.50002 4.01719 2.76796 3.7493 3.12502 3.7493H18.7525V4.99924H4.37502C4.02986 4.99929 3.75006 5.27909 3.75002 5.62425V23.1242C3.75006 23.4694 4.02986 23.7492 4.37502 23.7492H33.125C33.4702 23.7492 33.75 23.4694 33.75 23.1242V15.0005H35V24.3743C35 24.7313 34.7321 24.9993 34.375 24.9993H3.12502C2.76796 24.9993 2.50002 24.7313 2.50002 24.3743V16.2493C2.51202 15.404 1.23799 15.404 1.25002 16.2493V24.3743C1.25002 25.4022 2.09708 26.2493 3.12502 26.2493H34.375C35.403 26.2493 36.25 25.4022 36.25 24.3743V15.0005H36.8738C37.9017 15.0005 38.7525 14.1497 38.7525 13.1218V3.12421C38.7525 2.09628 37.9017 1.25171 36.8738 1.25171H20.625ZM20.625 2.49683H36.8738C37.2309 2.49683 37.5025 2.76717 37.5025 3.12421V13.1218C37.5025 13.4788 37.2309 13.7505 36.8738 13.7505H26.2488C26.1006 13.7498 25.957 13.8017 25.8435 13.8969L22.4976 16.7668V14.373C22.4963 14.0298 22.2183 13.7518 21.875 13.7505H20.625C20.268 13.7505 20.0025 13.4788 20.0025 13.1218V3.12421C20.0025 2.76717 20.268 2.49683 20.625 2.49683ZM25.6262 4.99802V11.2493C25.6263 11.7392 26.1645 12.0386 26.5808 11.7803L31.5821 8.65645C31.9745 8.41175 31.9745 7.84039 31.5821 7.59566L26.5808 4.46701C26.206 4.23245 25.6262 4.44221 25.6262 4.99802ZM26.8762 6.12837L30.0696 8.12552L26.8762 10.1189V6.12837ZM5.00002 6.24933H18.7525V13.1219C18.7525 14.1499 19.5971 15.0005 20.625 15.0005H21.2476V18.1231C21.2445 18.66 21.8754 18.9504 22.2815 18.5992L26.4795 15.0005H32.5V22.4994H20C20 20.4327 18.3155 18.753 16.2488 18.753H15.6262V17.1612C16.3916 16.4737 16.8775 15.4805 16.8775 14.3743V13.7518C17.2226 13.7506 17.5013 13.4695 17.5 13.1244V11.2506C17.5 9.18387 15.8155 7.49935 13.7488 7.49935H12.4988C10.4321 7.49935 8.75249 9.1839 8.75247 11.2506V13.1244C8.75122 13.4695 9.02986 13.7504 9.37502 13.7518V14.3743C9.37501 15.4803 9.85866 16.4738 10.6238 17.1612V18.753H9.99758C7.9309 18.753 6.25124 20.4327 6.25124 22.4994H5.00002V6.24933ZM12.4988 8.7506H13.7488C15.1446 8.7506 16.2488 9.85474 16.2488 11.2506V12.243L15.4407 11.4348C15.23 11.2241 14.9012 11.1915 14.6533 11.3566C14.6533 11.3566 12.8448 12.5017 11.2476 12.5017H9.99758V11.2504C9.9976 9.85459 11.103 8.7506 12.4988 8.7506ZM1.86526 12.4908C1.52056 12.4955 1.2453 12.7797 1.25002 13.1244V13.7494C1.23802 14.5946 2.51205 14.5946 2.50002 13.7494V13.1244C2.50503 12.772 2.2176 12.4853 1.86526 12.4908ZM14.8999 12.658L15.6262 13.3868V14.3743C15.6262 15.7701 14.5221 16.8744 13.1262 16.8744C11.7305 16.8744 10.6238 15.7701 10.6238 14.3743V13.7518H11.2476C12.8501 13.7518 14.4845 12.9254 14.8999 12.658ZM11.8762 17.9059C12.2678 18.045 12.6878 18.1255 13.1262 18.1255C13.5651 18.1255 13.9844 18.0452 14.3762 17.9059V19.2559C14.3762 19.2559 14.1645 19.9981 13.1262 19.9981C12.088 19.9981 11.8762 19.2645 11.8762 19.2645V17.9059ZM9.99758 19.998H10.8447C10.8447 19.998 11.3841 21.2481 13.1262 21.2481C14.8684 21.2481 15.4065 19.998 15.4065 19.998H16.2488C17.6446 19.998 18.75 21.1035 18.75 22.4993H7.50247C7.50247 21.1035 8.60179 19.998 9.99758 19.998ZM6.87624 27.4981C5.15581 27.4981 3.74758 28.9014 3.74758 30.6218V31.2492C3.74758 31.9767 4.01055 32.6388 4.43117 33.1707C2.63373 33.446 1.25249 34.9997 1.25247 36.8731V38.1242C1.25122 38.4694 1.52986 38.7503 1.87502 38.7517H11.8726C12.2197 38.753 12.5013 38.4713 12.5 38.1242V36.8731C12.5 35.0003 11.1162 33.4467 9.31887 33.1707C9.73854 32.6388 10 31.9767 10 31.2492V30.6218C10 28.9014 8.59668 27.4981 6.87624 27.4981ZM20.0025 27.4981C18.282 27.4981 16.8738 28.9014 16.8738 30.6218V31.2492C16.8738 31.9766 17.1357 32.6388 17.5562 33.1707C15.7583 33.4462 14.3738 34.9999 14.3738 36.8731V38.1242C14.3726 38.4713 14.6542 38.753 15.0012 38.7517H24.9988C25.3459 38.753 25.6276 38.4713 25.6262 38.1242V36.8731C25.6262 35.0005 24.2421 33.447 22.4451 33.1707C22.8648 32.6388 23.1262 31.9767 23.1262 31.2492V30.6218C23.1262 28.9014 21.7229 27.4981 20.0025 27.4981ZM33.1238 27.4981C31.4034 27.4981 30 28.9014 30 30.6218V31.2492C30 31.9767 30.2615 32.6388 30.6812 33.1707C28.8839 33.4467 27.4988 35.0003 27.4988 36.8731V38.1242C27.4976 38.4718 27.7799 38.7537 28.1275 38.7517H38.125C38.4721 38.753 38.7538 38.4713 38.7525 38.1242V36.8731C38.7525 34.9997 37.367 33.446 35.5689 33.1707C35.9895 32.6388 36.2512 31.9767 36.2512 31.2492V30.6218C36.2512 28.9014 34.8442 27.4981 33.1238 27.4981ZM6.87624 28.7492C7.92581 28.7492 8.74881 29.5722 8.74881 30.6218V31.2492C8.74881 32.2988 7.92581 33.123 6.87624 33.123C5.82668 33.123 4.99881 32.2988 4.99881 31.2492V30.6218C4.99881 29.5722 5.82668 28.7492 6.87624 28.7492ZM20.0025 28.7492C21.052 28.7492 21.875 29.5722 21.875 30.6218V31.2492C21.875 32.2988 21.052 33.123 20.0025 33.123C18.9529 33.123 18.1238 32.2988 18.1238 31.2492V30.6218C18.1238 29.5722 18.9529 28.7492 20.0025 28.7492ZM33.1238 28.7492C34.1734 28.7492 35.0012 29.5722 35.0012 30.6218V31.2492C35.0012 32.2988 34.1734 33.123 33.1238 33.123C32.0742 33.123 31.25 32.2988 31.25 31.2492V30.6218C31.25 29.5722 32.0742 28.7492 33.1238 28.7492ZM4.99881 34.373H8.74881C10.1446 34.373 11.25 35.4772 11.25 36.8731V37.5017H2.49758V36.8731C2.4976 35.4772 3.60301 34.373 4.99881 34.373ZM18.1238 34.373H21.875C23.2708 34.373 24.3762 35.4772 24.3762 36.8731V37.5017H15.6238V36.8731C15.6238 35.4772 16.728 34.373 18.1238 34.373ZM31.25 34.373H35.0012C36.397 34.373 37.5025 35.4772 37.5025 36.8731V37.5017H28.75V36.8731C28.75 35.4772 29.8542 34.373 31.25 34.373Z" fill="url(#paint0_linear_211_6271)"/>
<defs>
<linearGradient id="paint0_linear_211_6271" x1="1.24994" y1="19.919" x2="38.8516" y2="19.9189" gradientUnits="userSpaceOnUse">
<stop offset="0.0001" stop-color="#54CF68"/>
<stop offset="1" stop-color="#00827A"/>
</linearGradient>
</defs>
</svg>
