<svg width="28" height="28" viewBox="0 0 28 28" fill="none" xmlns="http://www.w3.org/2000/svg">
<path d="M21.0051 4.10156L23.293 8.70783L13.9988 21.4932L4.70452 8.70783L6.99243 4.10156L21.0051 4.10156Z" fill="#C1F261"/>
<path d="M6.99365 4.10156L4.70575 8.70783L14 21.4932L14 4.10156L6.99365 4.10156Z" fill="#A0E65C"/>
<path d="M-0.00189793 9.10554L4.46607 6.99364e-05L8.10547 1.59831L8.00977 5.74226L6.61529 8.54778L3.96563 10.4092L-0.00189793 9.10554Z" fill="#59B348"/>
<path d="M14 28L12.3594 22.9688L14 18.7032L21.3828 8.54771L24.0324 7.12786L28 9.10547L14 28Z" fill="#A0E65C"/>
<path d="M4.46803 1.66519e-06L23.5156 0L23.3926 4.51172L19.9883 5.74219L8.01172 5.74219L4.46803 1.66519e-06Z" fill="#A0E65C"/>
<path d="M-1.65181e-06 9.10547L6.61719 8.54771L14 18.7032L14 28L-1.65181e-06 9.10547Z" fill="#79CC52"/>
<path d="M19.9883 5.74219L23.5156 3.92041e-07L23.532 3.90602e-07L28 9.10547L21.3828 8.54771L19.9883 5.74219Z" fill="#79CC52"/>
<path d="M14 0L4.46797 8.33317e-07L8.01166 5.74219L14 5.74219L14 0Z" fill="#79CC52"/>
</svg>
